<?xml version="1.0" encoding="utf-8"?>
<!-- Generator: Adobe Illustrator 24.2.1, SVG Export Plug-In . SVG Version: 6.00 Build 0)  -->
<svg version="1.1" id="Layer_1" xmlns="http://www.w3.org/2000/svg" xmlns:xlink="http://www.w3.org/1999/xlink" x="0px" y="0px"
	 viewBox="0 0 32.77 21.84" style="enable-background:new 0 0 32.77 21.84;" xml:space="preserve">
<style type="text/css">
	.st0{fill:none;stroke:#FFFFFF;stroke-width:1.365;stroke-miterlimit:10;}
	.st1{fill:none;stroke:#FFFFFF;stroke-width:1.365;stroke-linecap:round;stroke-linejoin:round;stroke-miterlimit:10;}
	.st2{fill:none;stroke:#FFFFFF;stroke-linejoin:round;stroke-miterlimit:10;}
	.st3{fill:none;stroke:#FFFFFF;stroke-miterlimit:10;}
	.st4{fill:#FFFFFF;}
</style>
<path class="st0" d="M30.72,6.14h-4.78v9.56h4.78 M2.05,6.14h4.78v9.56H2.05 M16.38,2.05V19.8 M16.38,15.02c2.26,0,4.1-1.83,4.1-4.1
	s-1.83-4.1-4.1-4.1s-4.1,1.83-4.1,4.1S14.12,15.02,16.38,15.02z M31.4,21.16H1.36c-0.38,0-0.68-0.31-0.68-0.68V1.37
	c0-0.38,0.3-0.68,0.68-0.68H31.4c0.38,0,0.68,0.31,0.68,0.68v19.11C32.09,20.86,31.78,21.16,31.4,21.16z"/>
</svg>
