<?xml version="1.0" encoding="utf-8"?>
<!-- Generator: Adobe Illustrator 24.2.1, SVG Export Plug-In . SVG Version: 6.00 Build 0)  -->
<svg version="1.1" id="Layer_1" xmlns="http://www.w3.org/2000/svg" xmlns:xlink="http://www.w3.org/1999/xlink" x="0px" y="0px"
	 viewBox="0 0 32.77 21.84" style="enable-background:new 0 0 32.77 21.84;" xml:space="preserve">
<style type="text/css">
	.st0{fill:none;stroke:#FFFFFF;stroke-width:1.365;stroke-miterlimit:10;}
	.st1{fill:none;stroke:#FFFFFF;stroke-width:1.365;stroke-linecap:round;stroke-linejoin:round;stroke-miterlimit:10;}
	.st2{fill:none;stroke:#FFFFFF;stroke-linejoin:round;stroke-miterlimit:10;}
	.st3{fill:none;stroke:#FFFFFF;stroke-miterlimit:10;}
	.st4{fill:#FFFFFF;}
</style>
<g>
	<rect x="0.68" y="0.68" class="st1" width="31.4" height="20.48"/>
	<g>
		<g>
			<line class="st2" x1="16.86" y1="9.97" x2="15.91" y2="9.97"/>
			<line class="st2" x1="16.86" y1="12.35" x2="15.91" y2="12.35"/>
		</g>
		<g>
			<g>
				<line class="st3" x1="8.77" y1="10.92" x2="9.77" y2="10.92"/>
				<path class="st3" d="M8.43,9.59V9.26c0-0.37,0.3-0.67,0.67-0.67h0.67c0.37,0,0.67,0.3,0.67,0.67v1c0,0.37-0.3,0.67-0.67,0.67
					c0.37,0,0.67,0.3,0.67,0.67v1c0,0.37-0.3,0.67-0.67,0.67H9.1c-0.37,0-0.67-0.3-0.67-0.67v-0.33"/>
			</g>
			
				<rect x="2.81" y="6.11" transform="matrix(-1.836970e-16 1 -1 -1.836970e-16 20.3546 1.4904)" class="st2" width="13.24" height="9.62"/>
		</g>
		<g>
			<path class="st3" d="M22.06,9.59V9.26c0-0.37,0.3-0.67,0.67-0.67h0.67c0.37,0,0.67,0.3,0.67,0.67v0.67c0,0.37-0.3,0.87-0.67,1.33
				c-0.25,0.32-0.81,0.85-1.12,1.14c-0.14,0.13-0.21,0.3-0.21,0.49v0.37h2v-0.67"/>
			
				<rect x="16.72" y="6.11" transform="matrix(-1.836970e-16 1 -1 -1.836970e-16 34.2584 -12.4134)" class="st2" width="13.24" height="9.62"/>
		</g>
	</g>
</g>
</svg>
