<?xml version="1.0" encoding="utf-8"?>
<!-- Generator: Adobe Illustrator 24.2.3, SVG Export Plug-In . SVG Version: 6.00 Build 0)  -->
<svg version="1.1" id="Layer_1" xmlns="http://www.w3.org/2000/svg" xmlns:xlink="http://www.w3.org/1999/xlink" x="0px" y="0px"
	 viewBox="0 0 156.8 167.7" style="enable-background:new 0 0 156.8 167.7;" xml:space="preserve">
<style type="text/css">
	.st0{fill:#FFFFFF;}
	.st1{fill-rule:evenodd;clip-rule:evenodd;fill:#FFFFFF;}
	.st2{fill-rule:evenodd;clip-rule:evenodd;fill:#493C3B;}
	.st3{fill:#D6D6D6;}
	.st4{fill:#606060;}
</style>
<g>
	<path class="st0" d="M119.4,70.5c-1.1-3.9-3.6-6.9-7.4-8.9c-1.7-0.9-7.4-3.4-7.4-3.4c-1.4-0.6-2.6-1.4-2.9-1.6
		c-6.6-4.4-13.7-7-21.7-8.1c-4.1-0.5-9.1-0.9-11.9,1.1c-1.7,1.3-2.3,2.1-3.6,5.3c-0.1,0.3-0.6,1-1.3,1.5c-0.5,0.3-1.4,0.8-2.7,1.5
		c-1.3,0.6-1.7,1.1-1.9,1.4c-0.1,0.1-0.1,0.4,0.2,0.5c0.3,0.2,1.1,0.3,3.3,0.2l1,0c2.7-0.1,4.9-0.2,7.3,1.8c1.9,1.6,2.9,2.3,4.3,2.8
		c1.4,0.5,3.4,0.6,4.8,2.5c1.4,1.9,2.9,4.5,6.1,7.2s5.5,3.8,6.2,3.8c0.5,0,0.6-0.9,0.7-1.4c0.2-1,0.4-1.2,0.7-1.3
		c0.5,0,2.5,2.4,3.6,6.1c1.1,3.7,0.8,7.9,0.2,10.1c-2.1,7-8.5,14-13,17.4c-2,1.5-4.3,2.8-5.1,3.3c-0.2,0.1-0.2,0.2,0,0.3
		c0.7,0.1,2.2,0.4,4.7,0.3c2.7-0.1,5.2-0.7,6.2-1c0.2-0.1,0.4,0,0.4,0.3c0.2,0.9,0.7,3.4,1.9,5c0.8,1,1.4,1.5,1.7,1.7
		c0.2,0.1,0.3,0,0.3-0.3c-0.1-0.8-0.1-2.8,0.3-4.5c0.5-2.3,1.4-3.6,3.4-6.1c2-2.5,9.1-12,11.9-19.5c2.4-6.3,3.2-9.7,2.3-17.7
		c0-0.1,0.1-0.4,0.5-0.4c0.9,0,3.1,0.5,5,3.3c0.6,1,1.4,1.5,1.9,1.7c0.2,0.1,0.5,0,0.5,0C120.3,73.6,119.8,71.9,119.4,70.5z
		 M103.4,84.3c-0.3,0.9-0.5,2.4-0.4,6s-1.1,5.1-4,9.7c-2.9,4.6-5.9,7.2-6.9,8c-0.8,0.6-1.1,0.2-1.3-0.1c0-0.1,0.2-0.4,0.3-0.5
		c1.4-1.5,3.9-4.6,6.7-9.5c3.1-5.3,3.1-11.8,2.4-15.6c-0.8-4.3-4.3-9.6-6.3-11.5c-1.9-1.8-2.9-2.4-3.2-1.7c-0.3,0.7,0.3,2.7,0,3.5
		c-0.3,0.8-1.1-0.2-2.4-2c-1.2-1.7-2.8-4.1-4.5-5.6c-1.7-1.5-4.1-2.6-5.8-3.1c-1.8-0.5-2.9-0.8-4-1.4c-1.1-0.6-1.5-1.9-1.3-2.7
		c0.2-0.8,1.9-1.5,3.9-1.4c2.7,0.1,6.3,0.8,10.7,2.6c4.5,1.8,7.7,4,10,6.1s4.7,6.5,5.2,8c0.5,1.5-0.2,2.3-0.6,3.7
		c-0.5,1.4,0,3.1,0.9,4.4C103.5,82.7,103.6,83.4,103.4,84.3z"/>
	<path class="st0" d="M88.2,113.9c-1.4,0.3-5.4,1-8.7,0.7c-4-0.4-4.1-2.1-3-2.7c6.5-3.6,8.8-5.5,13.7-11.7c4.9-6.3,6.1-10,5.6-15.5
		c-0.2-2.3-1.4-4.9-1.9-6c-0.1-0.3-0.3-0.1-0.6,0.2c-0.2,0.4-0.6,0.8-1.1,0.9c-0.9,0.3-3.8-0.9-8.3-4.9c-3.3-2.9-5.3-6.1-6.3-7.5
		c0-0.1-0.1-0.1-0.2-0.2l0,0C54,67.7,35.1,85.8,35.1,107.9c0,1.6,0.1,3.2,0.3,4.7l0,0c1.9-0.2,6.4-0.4,14.5-0.1
		c12.3,0.5,17.3,2.8,22.7,4.6c3.8,1.3,9.8,2.8,18.9,2.1h0c-1.2-1.2-2.3-2.8-2.7-4.9C88.8,114.1,88.6,113.8,88.2,113.9z M57.4,110.6
		l-5.7-4.1v0L52,102l0,0l4.3-1.7l0,0l5.3,3.8l0,0v4.9l0,0L57.4,110.6L57.4,110.6z M72.1,101.4c-0.2-0.1-2.5-1-4.3-1.7l0,0l-2-6.2
		l0,0l2.6-3.3l0,0l4.3,1.1l0,0l2.2,6.6l0,0.1C74.1,98.9,72.2,101.2,72.1,101.4z M72.1,106.5l-5.7,4.1l0,0c-1.2-0.5-3.9-1.5-4.2-1.6
		v-4.9l0,0l5.3-3.8l0,0l4.3,1.7l0,0L72.1,106.5L72.1,106.5z M65.2,93.1L65.2,93.1l-6.5,0l0,0c-1.1-1.4-2.5-3.2-2.7-3.4
		c0.2-0.3,1.8-2.7,2.4-3.8h0h7h0c0.7,1,2.3,3.5,2.4,3.8C67.7,89.9,66.3,91.6,65.2,93.1z M58.1,93.5L58.1,93.5l-2,6.2l0,0
		c-1.8,0.7-4.1,1.6-4.3,1.7c-0.2-0.3-2.1-2.5-2.9-3.5l0-0.1l2.1-6.6l0,0l4.3-1.1h0L58.1,93.5z M67.8,114.3L67.8,114.3
		c-1.4-0.1-3.3-0.3-5.9-1c-1.7-0.4-3.2-0.8-4.5-1v0l0.2-0.9l0,0l4.2-1.7l0,0l4.3,1.7l0,0l0.5,2.4l0.1,0.3c3.4-1.1,6.4-3.3,8.4-6.1
		l-0.3-0.2l-2.1-1.2v0l-0.3-4.5l0,0l2.9-3.5h0l2.5,0.3l0.2,0c0-0.1,0-0.1,0-0.2c0-3.6-1.2-7-3.2-9.7l0,0l-2.1,1.8l0,0l-4.4-1.1
		l0-0.1L66,85.6l0,0l1.1-2.5l0,0c-1.6-0.5-3.4-0.8-5.2-0.8c-1.8,0-3.6,0.3-5.2,0.8l0,0.1l1.1,2.4l0,0.1l-2.5,3.9l0,0L51,90.6l0,0
		l-2-1.8l-0.1-0.1c-2,2.7-3.2,6.1-3.2,9.7c0,0.1,0,0.1,0,0.2l0.3,0l2.5-0.3l0,0l2.9,3.5l0,0l-0.3,4.5l0,0l-2.3,1.4l-0.1,0.1
		c0.9,1.3,2.1,2.5,3.4,3.5l0,0c-0.3,0-0.7-0.1-1-0.1l0,0c-3.6-3.1-5.9-7.7-5.9-12.8c0-9.3,7.5-16.9,16.9-16.9
		c9.3,0,16.9,7.5,16.9,16.9C78.8,105.7,74.2,111.9,67.8,114.3z"/>
	<path class="st0" d="M112.7,83.2c-0.4,2-1,4.2-1.8,6.5c-3,8.7-11.2,18.7-13.6,21.6c-0.5,0.5-1,1.3-1.2,2.1
		c-0.3,1.1-0.7,2.8-0.4,4.6c0,0.3,0.1,0.5,0.1,0.8h0c0.2,0,0.4-0.1,0.5-0.1c11.9-1.8,22.1-9.9,25.4-12.8v0
		C121.3,97.3,118,89.5,112.7,83.2L112.7,83.2z"/>
	<path class="st0" d="M87.2,139.5c-7.7,2.6-13.2,6.5-15.7,8.5h0c2.2,0.3,4.5,0.5,6.9,0.5c11.7,0,22.3-4.4,30.1-11.4h0
		C105.3,136.9,96,136.6,87.2,139.5z"/>
	<path class="st0" d="M82,129.4c-13.8,2-25.4,8.8-29.2,11.3l0,0c3,2.1,6.3,3.8,9.8,5.1l0,0c2.3-2.9,7.8-8,19.2-11.7
		c13.5-4.4,26-0.9,29.5,0.3l0,0c0.8-0.9,1.6-1.9,2.4-2.9l0,0C110.4,130.3,98.3,127,82,129.4z"/>
	<path class="st0" d="M92.4,122.5c-15.9,0.1-15.2-4-26.8-4.4c-9.3-0.3-17.2,1.2-26.9,6.1l0,0c2,4.2,4.7,8,8,11.4h0
		C70,121.9,84,124.5,95.4,125.5c9.4,0.8,18,1.8,20.8,2.2l0,0c2.4-4,4.1-8.4,4.9-13l0,0C117.8,116.8,107.5,122.3,92.4,122.5z"/>
	<g>
		<path class="st0" d="M49.2,150.3c-0.4-0.2-0.8-0.3-1.3-0.1c-0.4,0.2-0.8,0.6-1.2,1.2c-0.4,0.6-0.5,1.1-0.5,1.6s0.2,0.8,0.6,1.1
			c0.4,0.2,0.8,0.3,1.3,0.1c0.4-0.2,0.8-0.6,1.2-1.2c0.4-0.6,0.5-1.1,0.5-1.6C49.8,150.9,49.6,150.5,49.2,150.3z"/>
		<path class="st0" d="M113.4,146.5l-2.3,1.7l2.5,2.9l0.5-0.4c0.6-0.5,0.8-1.2,0.5-2.1C114.4,148,114,147.3,113.4,146.5z"/>
		<path class="st0" d="M44,146.8l-0.8-0.7l-2.6,3.3l0.9,0.7c0.3,0.2,0.7,0.3,1.1,0.1s0.8-0.5,1.2-1c0.4-0.6,0.7-1,0.7-1.4
			C44.6,147.5,44.4,147.1,44,146.8z"/>
		<polygon class="st0" points="29.6,135.3 30.4,136.6 32.1,134.5 32.1,134.5 		"/>
		<path class="st0" d="M54.5,153.2l-1-0.5l-1.8,3.8l1.1,0.5c0.4,0.2,0.7,0.1,1.1-0.1c0.4-0.3,0.7-0.7,1-1.3c0.3-0.6,0.4-1.2,0.4-1.6
			C55.1,153.7,54.9,153.4,54.5,153.2z"/>
		<path class="st0" d="M126,114.1L126,114.1c-3.3,21.9-23.5,38.7-47.6,38.7S34.1,136,30.8,114.2l0,0H15.5v0
			c3.4,30.1,30.6,53.6,62.9,53.6c32.3,0,59.5-23.5,62.9-53.6v0H126z M20.6,120.9l-0.2-0.6l6.2-1.7l1.1,3.9l-0.6,0.2l-0.6,0.2
			l-0.8-2.7l-1.4,0.4l0.7,2.4l-0.6,0.2l-0.6,0.2l-0.7-2.4l-2.6,0.7L20.6,120.9z M22.6,125.4c-0.4,0-0.7-0.3-0.7-0.7
			c0-0.4,0.3-0.7,0.7-0.7s0.7,0.3,0.7,0.7C23.3,125.1,23,125.4,22.6,125.4z M24.8,130.8c-0.6-0.2-1-0.6-1.2-1.2
			c-0.3-0.7-0.3-1.4,0.1-2.1c0.4-0.7,1-1.2,2-1.7c0.9-0.4,1.8-0.5,2.6-0.4c0.7,0.2,1.3,0.6,1.6,1.4c0.3,0.6,0.3,1.2,0.1,1.7
			c-0.2,0.6-0.6,1-1.2,1.4l-0.5-1.1c0.3-0.2,0.5-0.4,0.6-0.7c0.1-0.3,0.1-0.6-0.1-0.9c-0.2-0.4-0.5-0.6-1-0.7c-0.5-0.1-1,0-1.6,0.3
			c-0.6,0.3-1.1,0.6-1.3,1c-0.3,0.4-0.3,0.8-0.1,1.2c0.1,0.3,0.3,0.5,0.6,0.6c0.3,0.1,0.6,0.1,1,0l0.5,1.1
			C26,131,25.3,131,24.8,130.8z M29.1,139l-0.3-0.5l0.9-1l-1.2-1.8l-1.3,0.4l-0.3-0.5l-0.3-0.5l6.5-1.9l0.4,0.6l0.4,0.6l-4.3,5.2
			L29.1,139z M33,143.3c-0.5-0.1-1-0.4-1.5-0.9c-0.5-0.6-0.7-1.1-0.7-1.7c0-0.6,0.3-1.1,0.8-1.5l0.7,0.9c-0.3,0.2-0.4,0.5-0.4,0.8
			c0,0.3,0.1,0.6,0.4,0.9c0.2,0.3,0.5,0.4,0.7,0.5c0.2,0.1,0.5,0,0.7-0.1c0.2-0.1,0.2-0.3,0.2-0.6c0-0.2-0.2-0.6-0.4-1.1
			c-0.3-0.7-0.5-1.2-0.5-1.6c0-0.4,0.3-0.8,0.7-1.1c0.5-0.4,1-0.6,1.5-0.5c0.5,0.1,1,0.4,1.4,0.9c0.4,0.5,0.6,1,0.6,1.6
			c0,0.5-0.3,1-0.8,1.5l-0.7-0.9c0.2-0.2,0.3-0.4,0.4-0.7s-0.1-0.5-0.3-0.8c-0.2-0.2-0.4-0.4-0.7-0.4c-0.2-0.1-0.4,0-0.6,0.2
			c-0.1,0.1-0.2,0.3-0.2,0.5c0,0.2,0.1,0.5,0.4,0.9c0.4,0.8,0.6,1.4,0.6,1.8s-0.2,0.8-0.7,1.2C34,143.2,33.5,143.3,33,143.3z
			 M37,147.9l-0.4-0.4l2-2.1l-1.6-1.5l-2,2.1l-0.4-0.4l-0.4-0.4l4.5-4.6l0.4,0.4l0.4,0.4l-1.7,1.7l1.6,1.5l1.7-1.7l0.4,0.4l0.4,0.4
			l-4.5,4.6L37,147.9z M42.8,151.5c-0.7,0.2-1.3,0.1-1.9-0.4l-1.4-1.1l-0.5-0.4l4-5.1l0.5,0.4l1.4,1.1c0.6,0.5,0.9,1,0.9,1.7
			c0,0.7-0.3,1.4-0.9,2.2C44.2,150.8,43.5,151.3,42.8,151.5z M48.5,155.3c-0.7,0.3-1.5,0.2-2.2-0.3c-0.7-0.4-1.1-1-1.2-1.8
			s0.1-1.6,0.7-2.5c0.5-0.9,1.2-1.5,1.9-1.7c0.7-0.3,1.5-0.2,2.2,0.3c0.7,0.4,1.1,1,1.2,1.8c0.1,0.8-0.1,1.6-0.7,2.5
			C49.8,154.5,49.2,155.1,48.5,155.3z M55.9,156.1c-0.4,0.9-1,1.6-1.6,2c-0.6,0.4-1.3,0.4-2,0.1l-1.6-0.8l-0.5-0.3l2.7-5.8l0.5,0.3
			l1.7,0.8c0.7,0.3,1.1,0.8,1.3,1.5C56.5,154.4,56.3,155.2,55.9,156.1z M64.4,157l-0.8-0.2l-1.4,4.8l-1.3-0.4l1.4-4.8l-2.5-0.7
			l0.3-1.1l4.5,1.3L64.4,157z M66.3,162.5l-1.3-0.3l1-4.9l-1-0.2l0.2-1.1l2.2,0.5L66.3,162.5z M73.2,158.5l-0.8-0.1l-0.6,4.9
			l-1.3-0.2l0.6-4.9l-2.6-0.3l0.1-1.2l4.7,0.6L73.2,158.5z M80.4,159.7c-0.2,1.1-0.5,2-1,2.7c-0.6,0.8-1.4,1.2-2.4,1.2l-2.6,0
			l-0.6-6.1l1.3,0l0.2,2.8l0.4,0c0.2,0,0.4-0.1,0.5-0.3c0.1-0.1,0.1-0.4,0.2-0.6l0.2-1.8l1.3,0l-0.3,2.1c-0.1,0.5-0.3,0.9-0.6,1.1
			c-0.3,0.3-0.7,0.4-1.2,0.4l-0.3,0l0.1,1.3l1.2,0c0.7,0,1.2-0.3,1.6-0.8c0.3-0.4,0.5-1.1,0.7-1.9l0.3-2.3l1.2,0L80.4,159.7z
			 M86.1,163.1c-0.4-0.6-0.7-1.1-1-1.5c-0.4-0.6-0.8-1-1.2-1.4c-0.2,0-0.3,0.2-0.4,0.6c-0.1,0.2-0.1,0.5-0.1,0.7l0,1.9l-1.3,0.1l0-2
			c0-0.5,0.1-0.9,0.3-1.3c0.2-0.3,0.5-0.6,0.9-0.8c-0.1-0.1-0.1-0.2-0.2-0.3c-0.1-0.1-0.2-0.2-0.5-0.5l-1.2-1.2l1.6-0.2
			c0.7,0.7,1.1,1.2,1.3,1.4c0.2,0.2,0.4,0.5,0.7,0.9c0.2,0,0.3-0.2,0.4-0.4c0-0.2,0.1-0.4,0.1-0.6l0.1-1.5l1.3-0.1l-0.1,1.5
			c0,0.4-0.1,0.7-0.2,1c-0.1,0.3-0.3,0.6-0.6,0.8c-0.1,0.1-0.2,0.1-0.2,0.1c-0.1,0-0.1,0-0.2,0.1c0.7,0.8,1.4,1.7,2,2.6L86.1,163.1z
			 M96.1,159.9c-0.4,0.9-1.1,1.4-2,1.7l-1.7,0.5l-2.1-5.8l1.3-0.3l1.6,4.7l0.5-0.1c0.6-0.2,1.1-0.6,1.3-1.1c0.2-0.5,0.2-1.2,0-1.9
			c-0.1-0.4-0.2-0.6-0.4-0.8c-0.2-0.3-0.5-0.3-0.8-0.3c-0.1,0-0.2,0.1-0.4,0.2c-0.2,0.1-0.2,0.2-0.2,0.2l-0.3-1.1
			c0.1-0.1,0.2-0.2,0.4-0.3c0.2-0.1,0.4-0.1,0.5-0.2c0.6-0.2,1.2-0.1,1.6,0.3c0.4,0.3,0.7,0.9,0.9,1.6
			C96.5,158.2,96.4,159.1,96.1,159.9z M101.1,159.3l-1.4-3.7c-0.1-0.3-0.3-0.6-0.5-0.7c-0.2-0.1-0.4-0.1-0.8,0.1l-1.8,0.7l-0.4-1.1
			l1.9-0.7c0.7-0.2,1.2-0.3,1.7-0.1c0.5,0.2,0.8,0.6,1.1,1.3l1.4,3.8L101.1,159.3z M104.6,157.8l-2.1-4.5l-0.9,0.4l-0.5-1.1l2.1-1
			l2.7,5.5L104.6,157.8z M107.6,156.4l-0.6-1l3-1.8l-1.4-2.4c-0.2-0.3-0.4-0.5-0.6-0.5c-0.2,0-0.5,0-0.8,0.2l-1,0.6l1,1.8l-1.1,0.7
			l-1.6-2.8l2.1-1.2c0.6-0.4,1.2-0.5,1.7-0.4c0.6,0.1,1.1,0.5,1.5,1.2l2,3.3L107.6,156.4z M114.8,151.7l-1.4,1.1l-4.1-4.6l4.4-3.3
			c0.7,0.9,1.2,1.7,1.5,2.3c0.5,0.9,0.7,1.7,0.7,2.4C116,150.3,115.6,151.1,114.8,151.7z M122.8,147.2l-4.8-4.8l-0.7,0.7l-0.8-0.8
			l1.6-1.6l5.6,5.7L122.8,147.2z M124.2,143l-3.7-3.3l-0.6,0.7l-0.9-0.8l1.5-1.7l4.6,4L124.2,143z M127.6,138.7l-4-2.9L122,138
			l-0.9-0.7l2.8-3.9l0.9,0.7l-0.5,0.6l4,2.9L127.6,138.7z M131,133.3l-1.2,2.2l-1-0.6l0.5-0.9l-4.9-1.3l0.6-1.2l4.9,1.4l0.1-0.2
			c0.1-0.1,0.1-0.3,0.1-0.4c-0.1-0.2-0.4-0.5-0.9-1c-0.2-0.2-0.6-0.4-1.2-0.8l-1.8-1.2l0.6-1.2l1.8,1.1c1,0.6,1.7,1.1,2.2,1.6
			C131.3,131.7,131.4,132.5,131,133.3z M133.1,129.1l-4.5-2.1l-0.4,0.9l-1.1-0.5l0.9-2.1l5.6,2.5L133.1,129.1z M135.1,123.5
			l-1.1-0.4l0.4-1.3l-2.7-0.9c-0.4-0.1-0.6-0.1-0.8-0.1c-0.2,0.1-0.3,0.3-0.4,0.6l-0.3,1l4.5,2.4l-0.4,1.3l-4.4-2.4l-0.3,1l-1.1-0.4
			l1.1-3.3c0.2-0.6,0.5-1.1,1-1.4c0.4-0.2,1-0.3,1.7,0l3.9,1.3L135.1,123.5z"/>
	</g>
</g>
</svg>
