<?xml version="1.0" encoding="utf-8"?>
<!-- Generator: Adobe Illustrator 24.2.3, SVG Export Plug-In . SVG Version: 6.00 Build 0)  -->
<svg version="1.1" id="Layer_1" xmlns="http://www.w3.org/2000/svg" xmlns:xlink="http://www.w3.org/1999/xlink" x="0px" y="0px"
	 viewBox="0 0 156.8 167.7" style="enable-background:new 0 0 156.8 167.7;" xml:space="preserve">
<style type="text/css">
	.st0{fill:#FFFFFF;}
	.st1{fill-rule:evenodd;clip-rule:evenodd;fill:#FFFFFF;}
	.st2{fill-rule:evenodd;clip-rule:evenodd;fill:#493C3B;}
	.st3{fill:#D6D6D6;}
	.st4{fill:#606060;}
</style>
<g>
	<path class="st1" d="M129.7,71.4c-0.1-2.7-0.2-5.6-0.3-8.4c0-1.7-0.7-5.5-5.2-5.5c-0.9,0-1.9,0.1-2.9,0.3c-0.6,0.1-1.1,0.2-1.8,0.2
		c-0.7,0.1-1.7,0.1-2.7,0.1c-4.8,0-11.3-0.9-16.7-2.3c-8.1-2.1-16.1-5.6-19.2-7c-1.1-0.5-1.8-0.6-2-0.7c-0.2,0-0.3,0-0.5,0
		s-0.3,0-0.5,0c-0.3,0-1,0.2-2,0.7c-3.1,1.4-11.1,4.8-19.2,7c-5.3,1.4-11.8,2.3-16.7,2.3c-1.1,0-2,0-2.7-0.1
		c-0.6-0.1-1.2-0.2-1.8-0.2c-1.1-0.2-2.1-0.3-2.9-0.3c-4.6,0-5.2,3.9-5.2,5.5c-0.1,2.8-0.2,5.6-0.3,8.4c-0.5,12.2-0.9,24.8,0.5,36.6
		c1.7,13.5,5.7,24.6,12.4,34c5.7,8,11.9,14,19.1,18.4c5.5,3.4,11.6,5.7,18.6,7.2c0.2,0,0.4,0.1,0.6,0.1s0.4,0,0.6-0.1
		c9.9-2.1,24.5-7,37.8-25.6c6.7-9.4,10.8-20.5,12.4-34C130.7,96.2,130.2,83.6,129.7,71.4z M114.4,140.3
		c-11.8,16.7-24.8,22-35.9,24.4c-11.1-2.4-24.1-7.8-35.9-24.4C26.6,118,29.6,90.8,30.4,63.1c0.1-3.6,2.2-2.6,6.6-2.1
		c4.4,0.5,13.1-0.3,20.5-2.3c8.3-2.2,16.5-5.7,19.6-7.1c0.8-0.4,1.3-0.5,1.3-0.5s0.5,0.1,1.3,0.5c3.1,1.4,11.3,4.9,19.6,7.1
		c7.4,2,16.1,2.8,20.5,2.3c4.4-0.5,6.5-1.5,6.6,2.1C127.3,90.8,130.2,118,114.4,140.3z"/>
	<polygon class="st1" points="104.8,72.1 107.5,72.1 107.5,75.9 105.6,75.9 105.6,73.4 104.8,73.4 	"/>
	<path class="st1" d="M107.1,86v0.6h-2.6v1.3c0,0.7,0.3,1,1,1h1.9v0.6h-2.1c-1.2,0-1.6-0.4-1.6-1.5v-4.3h3.7v0.6h-2.9V86L107.1,86
		L107.1,86z"/>
	<path class="st1" d="M96.4,77.2h1.2v-3.9h-0.9v-1.3h7v6.5h-1.8v-5.2h-2.5V78c0,0.3-0.2,0.5-0.6,0.5h-2.5V77.2z"/>
	<path class="st1" d="M101,88.8h2v0.6h-2.2c-1.1,0-1.5-0.3-1.5-1.3v-4.5h0.8v4.3C100.1,88.5,100.3,88.8,101,88.8z"/>
	<path class="st1" d="M96.4,83.6h-0.8l-2.3,5.8h0.8l0.6-1.5h2.6l0.6,1.5h0.8L96.4,83.6z M94.9,87.3l1.1-2.9l1.1,2.9H94.9z"/>
	<polygon class="st1" points="94.5,71.2 95.9,71.2 95.3,74.2 94.1,74.2 	"/>
	<polygon class="st1" points="92.4,71.2 93.9,71.2 93.2,74.2 92,74.2 	"/>
	<path class="st1" d="M91.5,87.1l-1.2-0.9c-0.7-0.5-1-0.9-1-1.4c0-0.9,0.5-1.3,1.6-1.3h2.2v0.6h-2.1c-0.6,0-0.9,0.2-0.9,0.7
		c0,0.4,0.2,0.6,0.8,0.9l1.2,0.8c0.7,0.4,1,0.9,1,1.5c0,0.9-0.5,1.3-1.5,1.3h-2.2v-0.6h2.1c0.6,0,0.9-0.2,0.9-0.7
		C92.3,87.7,92,87.5,91.5,87.1z"/>
	<path class="st1" d="M85.8,72.1h2.4c1.9,0,2.8,0.7,2.8,2.4v4h-1.8v-3.8c0-1-0.4-1.4-1.2-1.4h-2.1L85.8,72.1L85.8,72.1z"/>
	<path class="st1" d="M83.6,83.6h0.8v3.8c0,1.1,0.5,1.5,1.5,1.5c1.1,0,1.5-0.4,1.5-1.5v-3.8h0.8v3.8c0,1.5-0.7,2.1-2.3,2.1
		c-1.6,0-2.3-0.6-2.3-2.1V83.6z"/>
	<path class="st1" d="M82.4,88.4c-0.2-1-0.5-1.5-1-1.7c0.7-0.2,1.1-0.7,1.1-1.5c0-1.1-0.5-1.6-1.8-1.6h-2.1v5.8h0.8V87h1
		c0.8,0,1,0.4,1.3,1.4l0.2,1h0.8L82.4,88.4z M80.4,86.4h-1v-2.3h1c0.9,0,1.3,0.4,1.3,1.1C81.7,86.1,81.3,86.4,80.4,86.4z"/>
	<polygon class="st1" points="79.4,72.1 82.1,72.1 82.1,75.9 80.3,75.9 80.3,73.4 79.4,73.4 	"/>
	<path class="st1" d="M73.6,72.1H76c1.9,0,2.8,0.7,2.8,2.4v4h-1.8v-3.8c0-1-0.4-1.4-1.2-1.4h-2.1L73.6,72.1L73.6,72.1z"/>
	<path class="st1" d="M77.2,86v0.6h-2.6v1.3c0,0.7,0.3,1,1,1h1.9v0.6h-2.1c-1.2,0-1.6-0.4-1.6-1.5v-4.3h3.7v0.6h-2.9V86L77.2,86
		L77.2,86z"/>
	<polygon class="st1" points="69.8,72.1 72.6,72.1 72.6,78.5 70.8,78.5 70.8,73.4 69.8,73.4 	"/>
	<path class="st1" d="M70.8,84.2v-0.6h1.8V88c0,1-0.4,1.4-1.5,1.4h-0.8v-0.6h0.7c0.6,0,0.8-0.3,0.8-0.9v-3.7H70.8z"/>
	<path class="st1" d="M63.7,72.1h1.8v4.1h-1.3c-0.3,0-0.4-0.1-0.4-0.4V72.1z"/>
	<path class="st1" d="M60.4,72.1h1.8v4c0,0.8,0.4,1.2,1.3,1.2h2.1c0.9,0,1.4-0.4,1.4-1.2v-4h1.8v4.1c0,1.6-1,2.3-2.9,2.3h-2.7
		c-1.9,0-2.9-0.8-2.9-2.3C60.4,76.2,60.4,72.1,60.4,72.1z"/>
	<path class="st1" d="M67.5,88.4c-0.2-1-0.5-1.5-1-1.7c0.7-0.2,1.1-0.7,1.1-1.5c0-1.1-0.5-1.6-1.8-1.6h-2.1v5.8h0.8V87h1
		c0.8,0,1,0.4,1.3,1.4l0.2,1h0.8L67.5,88.4z M65.5,86.4h-1v-2.3h1c0.9,0,1.3,0.4,1.3,1.1C66.8,86.1,66.4,86.4,65.5,86.4z"/>
	<path class="st1" d="M60.7,83.6h-0.8l-2.3,5.8h0.8l0.6-1.5h2.6l0.6,1.5h0.8L60.7,83.6z M59.2,87.3l1.1-2.9l1.1,2.9H59.2z"/>
	<polygon class="st1" points="54.1,71 55.9,71 55.9,72.1 59.5,72.1 59.5,73.4 57.1,78.5 55.2,78.5 57.5,73.4 54.1,73.4 	"/>
	<polygon class="st1" points="53.8,83.6 58,83.6 58,84.2 56.3,84.2 56.3,89.4 55.5,89.4 55.5,84.2 53.8,84.2 	"/>
	<polygon class="st1" points="50,72.1 52.7,72.1 52.7,75.9 50.8,75.9 50.8,73.4 50,73.4 	"/>
	<rect x="52.1" y="83.6" class="st1" width="0.8" height="5.8"/>
	<path class="st1" d="M50.7,86v0.6h-2.6v1.3c0,0.7,0.3,1,1,1h1.9v0.6H49c-1.2,0-1.6-0.4-1.6-1.5v-4.3h3.7v0.6h-2.9V86L50.7,86
		L50.7,86z"/>
	<path class="st1" d="M47.1,72.1h-4.7v1.3H43v5.2h6.3v-4.5C49.3,72.7,48.6,72.1,47.1,72.1z M47.5,77.2h-2.7v-3.9h1.8
		c0.7,0,1,0.3,1,1V77.2z"/>
	<path class="st1" d="M45.3,86.3c0.6-0.1,1-0.6,1-1.4c0-0.9-0.6-1.4-1.7-1.4h-2.2v5.8h2.2c1.2,0,1.8-0.6,1.8-1.6
		C46.4,86.9,45.9,86.4,45.3,86.3z M43.1,84.2h1.3c0.8,0,1.1,0.3,1.1,0.9c0,0.7-0.3,1-1.1,1h-1.3V84.2z M44.4,88.8h-1.3v-2.2h1.3
		c0.9,0,1.2,0.3,1.2,1.1C45.6,88.4,45.3,88.8,44.4,88.8z"/>
	<polygon class="st1" points="70.7,143.3 66.2,143.3 66.2,146.1 70.2,146.1 70.2,147 66.2,147 66.2,151.5 65,151.5 65,142.3 
		70.7,142.3 	"/>
	<path class="st1" d="M77.5,143.3h-2.6c-1.4,0-1.9,0.5-1.9,1.7v3.9c0,1.2,0.6,1.7,1.9,1.7h2.6v1h-2.8c-2.1,0-2.9-0.7-2.9-2.5v-4.2
		c0-1.8,0.8-2.5,2.9-2.5h2.8V143.3z"/>
	<path class="st1" d="M83.8,146.6c1-0.2,1.5-0.9,1.5-2.2c0-1.4-0.9-2.2-2.7-2.2h-3.4v9.2h3.5c1.9,0,2.8-0.9,2.8-2.6
		C85.6,147.5,84.9,146.8,83.8,146.6z M80.4,143.2h2c1.2,0,1.8,0.5,1.8,1.5c0,1.1-0.5,1.5-1.8,1.5h-2V143.2z M82.5,150.6h-2.1v-3.5
		h2.1c1.3,0,1.9,0.5,1.9,1.7C84.4,150,83.8,150.6,82.5,150.6z"/>
	<path class="st1" d="M90.2,149.2c0,1.6-0.6,2.3-2.3,2.3h-1.3v-1h1c0.9,0,1.3-0.4,1.3-1.4v-5.9h-1.5v-1h2.7L90.2,149.2L90.2,149.2z"
		/>
	<path class="st1" d="M80.1,125.5v7.4c4.6,0.7,8.5,3.6,10.6,7.6H65.3c2.1-4,6-6.9,10.6-7.6v-7.4c-16.7-1.1-29.9-14.9-30.2-31.9h4.2
		c0.2,14.6,11.6,26.6,26,27.7v-5.4c-11.4-1.1-20.3-10.6-20.6-22.2h4.2c0.2,9.3,7.3,16.9,16.3,18v-5.5c-6.1-1-10.7-6.2-10.9-12.5h4.2
		c0.2,4,3,7.3,6.7,8.2v-8.2h4.2v8.2c3.7-0.9,6.5-4.2,6.7-8.2H91c-0.2,6.3-4.9,11.5-10.9,12.5v5.5c9.1-1,16.1-8.7,16.3-18h4.2
		c-0.2,11.6-9.2,21.2-20.6,22.2v5.4c14.4-1.1,25.7-13,26-27.6h4.2C110.1,110.6,96.8,124.4,80.1,125.5z"/>
	<polygon class="st1" points="114.5,89.4 113.8,89.4 113.8,84.5 111.8,88.2 111.2,88.2 109.2,84.5 109.2,89.4 108.5,89.4 
		108.5,83.6 109.5,83.6 111.5,87.3 113.4,83.6 114.5,83.6 	"/>
	<path class="st1" d="M114.5,78.5h-6.1v-1.3h3.4v-2.9c0-0.7-0.3-0.9-1-0.9h-2.4v-1.3h2.8c1.8,0,2.4,0.6,2.4,2.1v3.1h0.9L114.5,78.5
		L114.5,78.5z"/>
</g>
</svg>
