<?xml version="1.0" encoding="utf-8"?>
<!-- Generator: Adobe Illustrator 24.2.3, SVG Export Plug-In . SVG Version: 6.00 Build 0)  -->
<svg version="1.1" id="Layer_1" xmlns="http://www.w3.org/2000/svg" xmlns:xlink="http://www.w3.org/1999/xlink" x="0px" y="0px"
	 viewBox="0 0 156.8 167.7" style="enable-background:new 0 0 156.8 167.7;" xml:space="preserve">
<style type="text/css">
	.st0{fill:#FFFFFF;}
	.st1{fill-rule:evenodd;clip-rule:evenodd;fill:#FFFFFF;}
	.st2{fill-rule:evenodd;clip-rule:evenodd;fill:#493C3B;}
	.st3{fill:#D6D6D6;}
	.st4{fill:#606060;}
</style>
<g>
	<path class="st0" d="M156,139.4c-1.3-0.3-3.5-0.5-7.1-0.4c0,0-0.2-4-0.5-7.6c-0.1-0.8-0.7-1.8-1.5-1c-1.8,1.8-5.6,5.5-11.3,9.9
		l-0.2,0.1c-6.2-9.2-18.2-29.8-18.2-50.7c0-13.6,4.6-22.8,6.6-26.1c0.5-0.9,0.7-1.6-0.4-2.6l-13-12.3c-0.7-0.7-1.5-0.8-2.4-0.4
		c-1.7,0.9-5.1,2.5-9.4,4.2c-4.9,1.9-13.2,4.2-20.3,4.2S63,54.6,58.2,52.7c-4.4-1.7-7.7-3.4-9.4-4.2c-0.8-0.4-1.7-0.3-2.4,0.4
		l-13,12.3c-1.1,1-0.9,1.7-0.4,2.6c2,3.3,6.6,12.6,6.6,26.1c0,20.9-12,41.5-18.2,50.7l-0.1-0.1c-5.8-4.5-9.5-8.1-11.3-10
		c-0.8-0.9-1.4,0.1-1.5,1C8.1,135,7.9,139,7.9,139c-3.7-0.1-5.9,0.1-7.1,0.4c-1.1,0.2-1,0.9-0.2,1.7c2.4,2.3,7.8,7.6,12.7,12.6
		c9.2,9.4,14.8,10.9,17.9,11.5c1.2,0.2,2.4,0.2,3.3-0.7c0.5-0.4,0.8-1,1.2-1.8c0.7-1.3,1.4-2.9,1.9-4.1l0.1-0.1
		c12.3,5.9,26.1,9.2,40.7,9.2c7.3,0,14.4-0.8,21.2-2.4s13.3-3.9,19.5-6.8l0.1,0.3c0.5,1.2,1.2,2.8,1.9,4c1.3,2.4,2.7,3.1,5.1,2.5
		c2-0.5,3.7-1.3,5.3-2.1c3.1-1.5,7.1-4.3,12.2-9.5c4.9-5,10.3-10.3,12.7-12.6C157,140.3,157.1,139.6,156,139.4z M27.2,134.3
		c6.4-10.9,14-27.5,14-44.5c0-14-4.8-23.5-6.8-27c-0.1-0.1-0.1-0.2-0.1-0.3c0-0.1,0.1-0.1,0.3-0.3l13-12.3c0.2-0.2,0.3-0.2,0.5-0.1
		c1.7,0.8,5.1,2.5,9.6,4.3c5.4,2.1,13.9,4.3,20.9,4.3c6.9,0,15.5-2.1,20.9-4.3c4.5-1.8,7.9-3.5,9.6-4.3c0.2-0.1,0.3-0.1,0.5,0.1
		l13,12.3c0.2,0.2,0.2,0.2,0.3,0.3c0,0.1-0.1,0.1-0.1,0.3c-2,3.5-6.8,13-6.8,27c0,17,7.7,33.7,14.1,44.6l-0.2,0
		c-3.8-0.2-14.2-0.4-26.5,2.6c-14.1,3.5-21.8,9.8-24.6,12.6c-2.8-2.8-10.5-9.1-24.6-12.6c-0.3-0.1-0.6-0.1-0.9-0.2l0.6,0.1
		c0.3,0,0.5,0,0.8,0c3.5,0,6.7-1.1,9.4-2.9c0.2-0.1,0.3-0.7-0.1-1c-0.6-0.6-1.9-2-2-2.1c-0.3-0.3-1-0.2-1.3-0.1
		c-2.1,0.9-4.5,1.1-6.7,1.1c-2,0-4.3-0.7-6.3-1.7c-0.2-0.1-0.6,0-0.8,0.3c-0.3,0.6-1.4,2.4-1.6,2.7c-0.2,0.3,0.1,0.8,0.3,0.9
		c0.9,0.6,1.9,1.1,2.9,1.5l0.7,0.3c-10.3-1.9-18.6-1.7-21.7-1.5L27.2,134.3z M127.5,136c-14.1,9.3-32.1,14.5-47.8,14.8l0.2-0.2
		c2.9-2.7,10.3-8.6,23.6-11.9c10.2-2.5,19.1-2.8,23.8-2.7L127.5,136z M77.2,150.8c-15.7-0.3-33.7-5.4-47.8-14.8l0.3,0
		c4.8-0.1,13.7,0.2,23.8,2.7c13.3,3.3,20.8,9.2,23.6,11.9L77.2,150.8z M31,163.5c-2.6-0.5-8-2.3-16.5-11c-4.4-4.5-9.2-9.2-11.8-11.7
		c1.2-0.1,2.9-0.2,5.2-0.1l1.6,0.1l0.1-1.6c0,0,0.1-3.2,0.4-6.3c2.1,2.1,5.5,5.2,10.4,9l0.1,0.1c-0.6,0.9-1.2,1.7-1.6,2.3
		c-0.4,0.6-0.4,1.3-0.2,1.8c0.1,0.2,0.8,1,1.7,2c1.8,1.9,4.6,5.1,7.8,9.1c1.8,2.4,3.3,4.3,4.1,5.6C33,163.9,32.3,163.8,31,163.5z
		 M36.2,157.9c-0.5,1.2-1.2,2.8-1.9,4.1c-0.3,0.5-0.3,0.5-0.3,0.5c-0.8-1.5-2.3-3.5-4.6-6.4c-1.1-1.5-2.2-2.8-3.2-4l-0.2-0.3
		c3.3,2.2,6.7,4.2,10.3,6L36.2,157.9z M78.4,166.1c-21.3,0-41.9-7.3-58.2-20.7c0-0.1-0.1-0.2-0.1-0.3c0,0,0,0,0,0
		c1.4-1.9,3.6-5.1,6.1-9.2l0.2,0.1c14.5,10.2,33.9,16.4,52,16.4c18.1,0,37.5-6.2,52-16.4l0.2-0.1c2.5,4.2,4.7,7.3,6.1,9.2
		c0,0,0,0,0,0c0,0.1,0,0.2-0.1,0.3C120.4,158.8,99.7,166.1,78.4,166.1z M122.8,162.5c-0.1-0.2-0.2-0.3-0.3-0.5
		c-0.7-1.3-1.4-2.9-1.9-4.2l0.3-0.1c3.5-1.8,6.9-3.7,10.1-5.9l-0.3,0.4c-1,1.2-2.1,2.5-3.2,4c-2.2,2.8-3.6,4.8-4.5,6.2L122.8,162.5z
		 M142.4,152.5c-5,5.1-8.9,7.8-11.8,9.2c-1.9,1-2.9,1.4-4.9,1.9c-2.5,0.7-1.6-0.3-0.7-1.8c0.8-1.2,2-2.8,3.6-4.9
		c3.1-4.1,6-7.1,7.8-9.1c0.8-0.9,1.5-1.4,1.7-2c0.2-0.5,0.2-1.2-0.2-1.8c-0.4-0.6-1-1.4-1.6-2.3l0.2-0.2c4.8-3.7,8.2-6.9,10.3-8.9
		c0.2,3.2,0.4,6.3,0.4,6.3l0.1,1.6l1.6-0.1c2.4-0.1,4,0,5.2,0.1C151.6,143.3,146.8,148,142.4,152.5z"/>
	<path class="st0" d="M68.4,127.9c-0.3-0.1-2.1-1.3-2.5-1.5c-0.4-0.3-0.9,0.2-1,0.4c-0.2,0.3-0.4,0.7-0.6,1
		c-0.2,0.3-0.4,0.5-0.6,0.8c-0.2,0.2-0.3,0.7,0,1.1c0.2,0.3,1.7,1.8,1.9,2.1c0.3,0.3,0.9,0.1,1.1-0.1c0.7-0.8,1.4-1.6,1.9-2.5
		C68.7,128.9,68.9,128.2,68.4,127.9z"/>
	<path class="st0" d="M44.6,128.6c-0.6-0.4-1.1-0.9-1.5-1.3c-0.2-0.3-0.4-0.5-0.5-0.8c-0.1-0.2-0.5-0.4-0.8-0.3
		c-0.3,0.1-1.8,0.9-2,1c-0.3,0.2-0.3,0.7-0.2,0.9c0.6,1.2,1.4,2.2,2.3,3.2c0.1,0.2,0.6,0.3,0.9,0.1c0.3-0.2,1.5-1.5,1.9-1.9
		C44.9,129.2,44.7,128.8,44.6,128.6z"/>
	<path class="st0" d="M38.5,123.7c0.4,0,2.4-0.3,2.7-0.3c0.4-0.1,0.7-0.5,0.7-0.8c0-0.7,0.3-2.6,0.3-2.8c0-0.3-0.1-0.9-0.6-1
		c-0.4-0.1-0.9-0.2-1.6-0.4c-0.7-0.1-1.3-0.2-1.7-0.3c-0.4-0.1-0.7,0.4-0.7,0.7c0,0.4,0,0.8,0,1.2c0,1,0.1,2,0.3,3
		C37.9,123.4,38.1,123.7,38.5,123.7z"/>
	<path class="st0" d="M39.1,114.8c0.3,0.1,0.7,0.2,1.2,0.4c0.7,0.2,1.4,0.4,2,0.5c0.4,0.1,1-0.5,1.1-0.8c0.3-0.6,0.6-1.2,1-1.7
		c0.1-0.2,0.2-0.8-0.3-1c-0.3-0.2-0.6-0.4-0.9-0.5c-0.5-0.3-1.3-0.8-1.8-1.2c-0.3-0.2-0.8,0-0.9,0.2c-0.7,1-1.3,2.1-1.8,3.3
		C38.6,114.2,38.7,114.7,39.1,114.8z"/>
	<path class="st0" d="M66.4,123.7c0.8,0.2,2.5,0.5,2.8,0.5c0.8,0.1,1.4,0.4,1.6-0.5c0.3-1.1,0.4-2.3,0.4-3.6c0-0.6,0-1.1-0.1-1.6
		c0-0.2-0.3-0.7-0.7-0.7c-1,0.1-2.8,0.4-3.8,0.5c-0.2,0-0.5,0.3-0.4,0.7c0.1,0.8,0.1,2.3-0.1,4C66,123.3,66.1,123.6,66.4,123.7z"/>
	<path class="st0" d="M61.2,113.7c-1.5-1-2.3,0.1-2.1,1.6c0.2,1.6,0,4.3-0.4,7.1c-0.2,1.6-0.5,2.8-0.7,3.6c-0.1,0.5,0,1,0.5,1.2
		c0.5,0.3,1.2,0.5,1.8,0.5c0.5,0,1.1-0.4,1.6-0.8c0.4-0.3,0.7-1,0.7-1.6c0.1-1.2,0.1-3.4,0.1-5.9C62.6,115.8,62.5,114.6,61.2,113.7z
		"/>
	<path class="st0" d="M52.4,112.7c-1.9-0.1-1.9,1.9-1.3,4.4c0.6,2.5,1,4.7,1.2,6.8c0.2,2.1,1.3,4.8,3,3.5c1-0.8,1.2-3.9,0.5-8.1
		S54.3,112.8,52.4,112.7z"/>
	<path class="st0" d="M48.7,117.8c0.5-2.8,0.4-4.3-0.8-4.5c-1.1-0.2-1.9,1.7-2.5,4.5s-0.3,4.9,0.5,7c0.8,2.1,1.2,3,2.4,2.8
		c1.2-0.2,1.4-0.5,0.8-2.1C48.6,123.8,48.2,120.6,48.7,117.8z"/>
	<path class="st0" d="M113.5,80.2c-0.3-2.6-1-8.2-1.4-7.9s-5.5,4.1-4.6,6.2c0.9,2.1,2.3,2.8,1.6,3.8c-0.7,1-3.4,4-3.5,6.8
		c-0.1,2.6,0.4,5.1,0.4,7.6c0,2.1-0.2,4.2-0.4,6.3c-0.1,1.1-0.2,2.1-0.2,3.2c0,1,0.1,2.1-0.4,3c-0.6,0.9-1.6,1-2.6,0.9
		c-2.8-0.3-3.6-3-3.6-3s-1.8-5.2-1.1-8.3c0,0-1.9,1.5-3.4-0.4c0,0-4,3.4-5.4-0.9c0,0-2.6,1-3.4-2.5l-1.3,0.7l-1.4-1
		c0,0,0.1,1.8-1.9,2.8c-2,1-7.8,5-9.3,6.9c0,0-0.7,0.6-2.4,0.1c-1.4-0.5-4.3,0.1-5.1,1.5c-0.4-0.2-0.8-0.5-1.2-0.7
		c-1-0.5-2-0.9-3.1-1.2l0,0c0,0,0,0,0,0c-0.6-0.2-1.1-0.3-1.7-0.4c-0.2,0-0.3-0.1-0.5-0.1c0,0,0,0,0,0v0c-1.1-0.2-2.2-0.3-3.3-0.3
		c-3.7,0-7.1,1.2-9.8,3.2c0,0-0.1,0.1-0.1,0.1c-0.1,0.1-0.2,0.1-0.2,0.2l0.1,0.2c0,0.2,0.1,0.4,0.2,0.6c0.2,0.2,0.4,0.5,0.6,0.8
		c0.4,0.5,1.1,1.5,1.6,2.1c0.1,0.1,0.1,0.1,0.2,0.2l0.1,0.1c0.1,0.1,0.2,0.1,0.3,0.2c2.1-1.3,4.6-2,7-2c3.6,0,6.8,1.5,9.4,3.9
		c0.8,0.8,1.5,1.7,2.1,2.6c0.1,0,0.1,0,0.2,0l0.3-0.1c0,0,0.1,0,0.1,0c0.7-0.3,1.8-0.9,2.4-1.2c0.3-0.1,0.6-0.3,0.8-0.4
		c0,0,0.1,0,0.1-0.1c0.2-0.1,0.3-0.2,0.4-0.3l0.2-0.1c0,0,0,0,0,0c0,0,0,0,0,0v0c0,0,0,0,0,0c0,0,0,0,0,0s0,0,0,0s0,0,0,0
		c0,0,0-0.1,0-0.1l0,0c0-0.1,0-0.2,0-0.2c0,0,0,0,0-0.1c0.8-0.9,2.4-2.1,5.8-2.8c5.7-1.2,6.7-1.8,7.1-0.8c0.4,1,0.8,2.2-0.1,3.1
		c-1.1,1.1-2.2,2.2-3.3,3.3c-0.7,0.8-1.5,1.5-2.2,2.3c-0.7,0.7-1.6,1.6-1.9,2.6c-0.2,0.8,0,1.7,0.1,2.5c0.1,0.8,0.1,1.5,0.1,2.3
		c0,0.8,0.3,2.6-0.4,3.2c-0.8,0.7-1.8,1.3-2.7,2c-1,0.8-2.3,1.5-3.2,2.4c-0.3,0.4-0.6,0.8-0.7,1.3c-0.1,0.4,0,0.8,0,1.3
		c0,0.2,0,0.3,0,0.5c0.1,0.8,1.5,0.5,2,0.4c1-0.3,1.9-1,3-0.9c1,0.1,2.1,0.1,3.4-0.1c1.2-0.3,1.9-0.2,3.3,0.3
		c1.4,0.5,2.9,0.1,3.2-1.6c0.3-1.7-0.6-2.8-0.5-4.2c0.1-1.3-0.1-1.7,1.7-3.2c1.9-1.5,4-4.2,7.6-4.2c3.1,0,5.7,2.4,7.8,4.3
		c0.1,0.1,0.2,0.2,0.2,0.3c0.4,0.7-0.3,1.7-0.9,2c-0.3,0.2-0.8,0.2-1.1,0.3c0,0-2.6,0.6-3,1.9c-0.4,1.3-1.4,3.1-0.5,3.1
		c0.9,0,0.9,0,0.9,0s-0.7,1.2-0.3,1.7c0.4,0.5,1.4-0.5,1.4-0.5c0.5-0.5,1.2-0.8,1.8-1.2c0.2-0.1,0.8-0.5,1-0.4
		c0.3,0.1-0.5,1.5-0.6,1.9c-0.1,0.3-0.2,0.6,0,0.8c0.6-0.1,1.4-0.2,1.9-0.6c0.5-0.4,0.7-0.9,1.3-1.1c0.5-0.2,1-0.2,1.4-0.6
		c0.5-0.5,0.3-1.3,0.5-1.9c0.2-0.4,0.5-0.6,0.8-0.9c0,0,1.5-1.6,1.3-3c-0.2-1.4-1.3-10.1-2.8-12.3c0,0-0.8-0.8,1.1-1.7
		c2-0.9,4.1-2.9,4.2-7.3c0.1-2.2,0.2-4.4,0.3-6.6c0.1-2.5,0.4-5,0.1-7.4c-0.3-2.4-0.6-4.8,0.6-7c0.6-1.1,1.6-2.6,2.7-3.3
		c0,0,0,0,0,0c0.2-0.1,0.4-0.2,0.5-0.4C113.6,81.9,113.6,80.9,113.5,80.2z"/>
	<polygon class="st0" points="52.1,89.7 56,94.9 60,89.6 60.1,89.5 52,89.5 	"/>
	<polygon class="st0" points="55.9,67.6 52.6,72.4 59.6,72.4 	"/>
	<polygon class="st0" points="58.4,77.2 61.6,77.2 61.8,86.4 59.6,86.4 59.6,88.5 64.4,88.5 63.8,75.2 58.4,75.2 	"/>
	<path class="st0" d="M69.1,86.1h-3.5v2.2h3.6c0.3,0.3,0.5,0.7,0.5,1.1c0.1,1,0.1,2,1.3,2.1c1.2,0,1.7-0.1,2,0.7
		c0.3,0.8,2,5.8,4.5,5.4c2.4-0.4,3.8-0.8,3.8-1.7c0,0-2.1-1.1-1.1-3.1c0.3-0.3,1.5-1,1.1-1.8s-1.1-0.5-1.1-0.5s-2.3,0.9-2.9-0.7
		c-0.6-1.5-0.4-3-2.2-2.9s-1.5-1.2-1.5-1.6s-0.2-3.6-3.5-2.2c0,0,1.9,0.5,1.4,1.2c-0.2,0.3-0.6,0.7-0.9,0.9l-3.4-4.3l4.5-5.6H65v2
		h2.9l-3.3,3.7L69.1,86.1z"/>
	<polygon class="st0" points="53.2,83.2 56,83.2 56,88.5 58.4,88.5 57.9,81.1 53.2,81.1 	"/>
	<rect x="53.2" y="84.6" class="st0" width="1.9" height="3.7"/>
	<polygon class="st0" points="60.8,83.4 60.5,78.2 57.3,78.2 57.3,80.5 58.7,80.5 58.7,83.4 	"/>
	<polygon class="st0" points="54.8,78.1 56.9,78.1 56.5,72.9 52.6,72.9 52.6,74.9 54.8,74.9 	"/>
	<polygon class="st0" points="49.8,88.5 52,88.5 52,77.6 53.2,77.6 53.2,75.7 48.4,75.7 48.4,77.7 49.8,77.7 	"/>
	<polygon class="st0" points="45.9,78 46.2,88.5 48.4,88.5 47.9,75.7 42.7,75.7 43.7,78 	"/>
	<polygon class="st0" points="45.3,84.6 42.7,88.5 45.3,88.5 	"/>
	<path class="st0" d="M75.3,73.3c1.5,0.2,2.8-0.9,3.3-0.5S78,73.6,77.6,74s-0.4,0.8-0.4,0.8s-0.1,0.8,0.7,1.6
		c0.8,0.8,2.2,0.3,2.8-0.1c0.6-0.3,0.8-0.1,1.2,0.1c1.1,0.8,2.8-1,3.2-1.4c0.4-0.4,0.7-0.4,0.7-0.4s0.4,0,0.6,0.3
		c0.2,0.4-0.4,0.8-1.5,1.7c-1.1,0.9-3,0.7-3,0.7s-2.6,0.4-3,2.9c-0.3,2.5,0.9,2.4,1.5,2.7c0.7,0.3,1.2,0.5,1.5,1
		c0.2,0.5-0.7,2.3-0.9,3.5c-0.2,1.1,0.9,2,1.3,2.8c0.4,0.7-0.3,1.6-0.4,2.4c-0.1,0.9,1.9,1.5,2.4,1.8c0.6,0.3,1.7-0.8,1.7-0.8
		s0.5,2.5,1.5,2.8c1,0.3,2-0.6,2-0.6s0.2,2.8,1.7,2.8c1.5,0,3.2-1.7,3.2-1.7c0.1,0.5,1.4,1.4,1.4,1.4c3.2-0.9,2.5-4.2,2.5-4.2
		s-0.7-3.7,0.6-8.2c1.3-4.6,1.3-7.4,1.7-12.2c0.3-4.8-3.7-7.1-3.7-7.1s-3.9-2.7-4.4-3.1c-0.5-0.4-0.8-0.2-1.2-0.1
		c-1,0.1-1.5-0.9-2-1.6c-0.5-0.6-0.4-0.3-2.8,0.7c-2.3,1-1.9-0.3-3.7-0.1c-1.8,0.2-2.7,1.6-3.1,2c-0.4,0.4-0.9,0.6-0.9,0.6l-4.1,1.3
		c-0.1,3.3,3,4,3,4c0.4,0.1-0.7,0.6-1.3,0.9c-0.6,0.3-0.8-0.7-1.4-1.3c-0.5-0.6-1.5,0-1.5,0s-0.7,0.7-0.5,1.8
		C73.1,72.8,73.8,73.1,75.3,73.3z M83.4,79.7l1.6,0.4l-1.1,1.6L83.4,79.7z M85,86.6l-0.8-1.9h1.5L85,86.6z M98.6,73.5l-0.2,2.3
		L96.9,74L98.6,73.5z M97.8,79.2L97,81.4l-1.2-2L97.8,79.2z M94.9,85.4l-0.3,1.9l-1.3-1.7L94.9,85.4z M93.5,91.8L93,93.5l-1.1-1.9
		L93.5,91.8z M91.3,81.4L91,83.5l-1.4-1.8L91.3,81.4z M90.3,85.8L89.8,88l-1.2-2.2H90.3z M87.1,91.7l-1-2.3l2.1,0.6L87.1,91.7z
		 M83.7,66.3c-1,3.4-2.7,1-2.7,1L83.7,66.3z"/>
	<path class="st0" d="M37.9,146.1c-0.1,0.1-0.1,0.1-0.2,0.2c-0.1,0.1-0.1,0.2-0.2,0.3c-0.1,0.1-0.1,0.2-0.2,0.3
		c-0.1,0.1-0.2,0.3-0.3,0.5l-0.5-3.4l-2.8-1.5l-0.1,0.1l0.3,2.5l-2.4,2.6l-0.5-0.3l-1,1.8l2.5,1.4l1.1-1.6c0.1-0.1,0.1-0.1,0.2-0.2
		c0.1-0.1,0.1-0.2,0.2-0.3c0.1-0.1,0.1-0.2,0.2-0.3c0.1-0.1,0.2-0.3,0.3-0.5l0.3,4.2l2.8,1.5l0.1-0.1l-0.4-3.3l3.7-3.2l0.1-0.1
		l-2.4-1.3L37.9,146.1z"/>
	<path class="st0" d="M44.6,148.1l0.4-1l-1.6-0.7l-1.6,3.7l0.4,0.2c0.2-0.1,0.4-0.3,0.6-0.5c0.2-0.2,0.5-0.3,0.7-0.5
		c0.2-0.2,0.4-0.4,0.6-0.6C44.3,148.5,44.5,148.3,44.6,148.1z"/>
	<path class="st0" d="M46.6,148.9l0.4-1l-1.6-0.7l-1.6,3.7l0.4,0.2c0.2-0.1,0.4-0.3,0.6-0.5c0.2-0.2,0.5-0.3,0.7-0.5
		c0.2-0.2,0.4-0.4,0.6-0.6C46.3,149.4,46.5,149.2,46.6,148.9z"/>
	<path class="st0" d="M55.3,152.5c-0.2-0.3-0.4-0.5-0.7-0.6c-0.3-0.2-0.7-0.3-1.1-0.5l-5-1.6l-0.6,1.9l0.9,0.3
		c-0.1,0.2-0.2,0.3-0.3,0.5c-0.1,0.1-0.2,0.2-0.2,0.3c-0.1,0.1-0.2,0.3-0.2,0.4l-0.7,2.2l-0.9-0.3l-0.6,1.9l3.5,1.1l1.7-5.3l1,0.3
		c0.3,0.1,0.4,0.2,0.5,0.3c0.1,0.1,0.1,0.4,0,0.7l-1.5,4.6l2.6,0.8l1.5-4.8c0.2-0.5,0.2-0.9,0.2-1.3
		C55.6,153.1,55.5,152.8,55.3,152.5z"/>
	
		<rect x="61.4" y="158" transform="matrix(0.1375 -0.9905 0.9905 0.1375 -102.9566 200.4539)" class="st0" width="4.4" height="2.8"/>
	<path class="st0" d="M69.1,155.2c-0.3-0.3-0.6-0.5-1.1-0.6c-0.4-0.2-1-0.3-1.5-0.4c-0.2,0-0.5-0.1-0.8-0.1c-0.3,0-0.5-0.1-0.8-0.1
		c-0.3,0-0.5-0.1-0.8-0.1c-0.3,0-0.5,0-0.7,0l-0.5,0l-0.3,2l0.6,0c0.1,0,0.3,0,0.5,0s0.4,0,0.6,0.1c0.2,0,0.4,0,0.6,0.1
		c0.2,0,0.4,0,0.5,0.1c0.3,0,0.6,0.1,0.8,0.2c0.2,0.1,0.4,0.2,0.5,0.3s0.2,0.2,0.2,0.4c0,0.2,0,0.3,0,0.6l-0.6,4.4l2.7,0.4l0.7-4.8
		c0.1-0.5,0.1-1-0.1-1.3C69.6,155.8,69.4,155.4,69.1,155.2z"/>
	<polygon class="st0" points="72.1,156.9 75.5,157 75.4,162.6 78.1,162.7 78.3,157.1 79.1,157.1 79.1,155.1 72.2,154.9 	"/>
	<path class="st0" d="M81.1,155l0.1,2l0.7,0c0,0.2-0.1,0.4-0.1,0.5c0,0.1,0,0.2,0,0.3c0,0.1,0,0.1,0,0.2c0,0,0,0.1,0,0.1l0.3,4.5
		l2.8-0.2l-0.4-7.6L81.1,155z"/>
	<path class="st0" d="M93.9,155.1c-0.2-0.3-0.5-0.6-0.8-0.8c-0.3-0.2-0.7-0.3-1.2-0.3c-0.5,0-1,0-1.6,0.1c-0.2,0-0.5,0.1-0.8,0.1
		c-0.3,0-0.5,0.1-0.8,0.1c-0.3,0-0.5,0.1-0.8,0.1c-0.3,0.1-0.5,0.1-0.7,0.1l-0.5,0.1l0.3,2l0.6-0.1c0.1,0,0.3-0.1,0.5-0.1
		c0.2,0,0.4-0.1,0.6-0.1c0.2,0,0.4-0.1,0.6-0.1c0.2,0,0.4-0.1,0.5-0.1c0.3-0.1,0.6-0.1,0.8-0.1c0.2,0,0.4,0.1,0.5,0.1
		c0.1,0.1,0.2,0.2,0.3,0.3c0.1,0.1,0.1,0.3,0.1,0.6l0.6,4.4l2.7-0.4l-0.7-4.8C94.2,155.9,94.1,155.5,93.9,155.1z"/>
	
		<rect x="87.6" y="157.7" transform="matrix(0.9898 -0.1426 0.1426 0.9898 -21.8922 14.3191)" class="st0" width="2.8" height="4.4"/>
	<path class="st0" d="M96,153.2l0.5,2l0.7-0.2c0,0.4,0,0.6,0,0.8c0,0.1,0,0.1,0,0.2c0,0,0,0.1,0,0.1l0.3,1.3l2.7-0.6l-1-4.3
		L96,153.2z"/>
	<path class="st0" d="M105.7,150.5l0.7,1.9l0.6-0.2c0,0.4,0.1,0.6,0.1,0.8c0,0.1,0,0.1,0,0.2c0,0,0,0.1,0,0.1l0.5,1.2l2.6-1
		l-1.5-4.1L105.7,150.5z"/>
	<path class="st0" d="M115,148c-0.2-0.2-0.5-0.4-0.8-0.5c-0.3-0.1-0.6-0.1-0.9,0c-0.3,0.1-0.6,0.2-1,0.3c-0.1,0-0.2,0.1-0.3,0.2
		c-0.1,0.1-0.3,0.1-0.4,0.2c-0.1,0.1-0.3,0.1-0.4,0.2c-0.1,0.1-0.2,0.1-0.3,0.2l0.8,1.8l0.2-0.1c0,0,0.1,0,0.1-0.1
		c0,0,0.1-0.1,0.1-0.1c0,0,0.1,0,0.1-0.1c0,0,0.1,0,0.1,0c0.1,0,0.2-0.1,0.3-0.1c0.1,0,0.2,0,0.3,0c0.1,0,0.1,0.1,0.2,0.1
		c0.1,0.1,0.1,0.2,0.2,0.3l1.2,2.6l-1.4,0.6l0.8,1.9l3.9-1.8l-2.1-4.7C115.5,148.6,115.3,148.3,115,148z"/>
	<path class="st0" d="M124.7,147.9l-1.6-2.8c-0.2-0.3-0.4-0.6-0.6-0.9c-0.2-0.2-0.5-0.4-0.8-0.4c-0.3-0.1-0.6-0.1-1,0
		c-0.4,0.1-0.8,0.3-1.4,0.6c-0.1,0.1-0.3,0.2-0.5,0.3c-0.2,0.1-0.3,0.2-0.5,0.3c-0.2,0.1-0.3,0.2-0.5,0.3c-0.2,0.1-0.3,0.2-0.5,0.3
		l-0.7,0.5l1,1.8l0.6-0.4c0.1,0,0.2-0.1,0.3-0.2c0.1-0.1,0.2-0.1,0.3-0.2c0.1-0.1,0.2-0.1,0.3-0.2c0.1-0.1,0.1-0.1,0.2-0.1
		c0.2-0.1,0.5-0.2,0.6-0.3c0.2-0.1,0.3-0.1,0.4-0.1c0.1,0,0.2,0,0.3,0.1c0.1,0.1,0.1,0.2,0.2,0.3l1.4,2.5l-2.9,1.6l1,1.8l6-3.4
		l-1-1.8L124.7,147.9z"/>
</g>
</svg>
