<?xml version="1.0" encoding="utf-8"?>
<!-- Generator: Adobe Illustrator 24.2.3, SVG Export Plug-In . SVG Version: 6.00 Build 0)  -->
<svg version="1.1" id="Layer_1" xmlns="http://www.w3.org/2000/svg" xmlns:xlink="http://www.w3.org/1999/xlink" x="0px" y="0px"
	 viewBox="0 0 156.8 167.7" style="enable-background:new 0 0 156.8 167.7;" xml:space="preserve">
<style type="text/css">
	.st0{fill:#FFFFFF;}
	.st1{fill-rule:evenodd;clip-rule:evenodd;fill:#FFFFFF;}
	.st2{fill-rule:evenodd;clip-rule:evenodd;fill:#493C3B;}
	.st3{fill:#D6D6D6;}
	.st4{fill:#606060;}
</style>
<g>
	<path class="st0" d="M120.7,65.7c-11.3-11.3-26.3-17.5-42.3-17.5c-16,0-31,6.2-42.3,17.5C24.9,77,18.6,92,18.6,108
		s6.2,31,17.5,42.3c11.3,11.3,26.3,17.5,42.3,17.5c16,0,31-6.2,42.3-17.5c11.3-11.3,17.5-26.3,17.5-42.3S132,77,120.7,65.7z
		 M54.1,151.1l-0.3,0.6c-0.5,0.8-1.1,1.4-1.9,1.6c-0.8,0.3-1.5,0.2-2.2-0.2l-1-0.6l-2.2,3.7c-0.4-0.3-0.8-0.5-1.2-0.8l3.9-6.6
		c0.2-0.3,0.2-0.4,0.2-0.5c0-0.1-0.2-0.2-0.3-0.3l-0.4-0.3l0.8-1.4l1.2,0.7c0.3,0.2,0.4,0.4,0.4,0.8c0,0.4-0.1,0.7-0.3,1.1l-1.3,2.2
		l0.7,0.4c0.4,0.2,0.8,0.3,1.2,0.3c0.5-0.1,0.9-0.4,1.2-0.9c0.1-0.2,0.2-0.4,0.2-0.5c0-0.2,0-0.3-0.2-0.3l-0.4-0.3l0.8-1.4l0.8,0.5
		c0.3,0.2,0.5,0.5,0.6,1C54.4,150.3,54.3,150.7,54.1,151.1z M60.3,153.6l-2.7,6.5l-1.3-0.6l2.3-5.7c0.1-0.3,0.1-0.5,0.1-0.7
		c0-0.2-0.2-0.3-0.4-0.4l-2.8-1.2l0.6-1.5l3.6,1.5c0.3,0.1,0.6,0.4,0.7,0.8C60.5,152.8,60.4,153.2,60.3,153.6z M63.9,154.6l-2,6.8
		l-1.4-0.4l1.8-6.1c0.1-0.3,0.1-0.5,0.1-0.6c0-0.1-0.1-0.2-0.3-0.2l-0.3-0.1l0.5-1.5l1.2,0.3c0.3,0.1,0.5,0.3,0.6,0.7
		C64,153.9,64,154.2,63.9,154.6z M67.4,155.4l-1.5,6.9l-1.4-0.3l1.4-6.2c0.1-0.4,0.1-0.5,0-0.6c0-0.1-0.2-0.1-0.4-0.2l-0.3-0.1
		l0.3-1.6l1.2,0.3c0.3,0.1,0.5,0.3,0.6,0.7C67.4,154.7,67.4,155,67.4,155.4z M77.4,156l-0.5,5.5c0,0.5-0.2,1-0.6,1.4
		c-0.3,0.4-0.7,0.6-1.1,0.6c0,0-0.1,0-0.1,0l-6.7-0.6l0.5-5.3l0.7-1.7l-0.8-0.1l0.1-1.6l1.3,0.1c0.3,0,0.5,0.1,0.6,0.2
		c0.1,0.1,0.1,0.3,0.1,0.7l-0.1,0.8l-0.4,0l-0.5,5.4l1.9,0.2l0.4-4.9c0-0.3,0-0.4-0.1-0.5c0,0-0.1-0.1-0.1-0.1l-0.5,0l0.1-1.6
		l1.5,0.1c0.2,0,0.4,0.1,0.5,0.4c0.1,0.2,0.2,0.4,0.1,0.7l-0.5,6l1.3,0.1c0.2,0,0.4,0,0.5-0.1c0.1-0.1,0.2-0.3,0.2-0.6l0.4-4.2
		c0-0.4-0.1-0.4-0.3-0.4l-0.5,0l0.1-1.6l1.5,0.1c0.2,0,0.3,0.1,0.5,0.2C77.4,155.4,77.5,155.7,77.4,156z M87.3,162.9l-1.7-8.1l0,0.1
		l-0.1-0.5l4.7-1c0.3-0.1,0.7,0.1,1,0.4c0.4,0.3,0.6,0.7,0.7,1l1.4,6.7L87.3,162.9z M99.7,158.4c-0.3,0.8-0.8,1.4-1.5,1.7l-0.3,0.1
		l-0.6-1.6l0.4-0.1c0.4-0.1,0.6-0.4,0.7-0.8c0.1-0.4,0.1-0.8-0.1-1.3l-1-2.7c-0.2-0.6-0.5-0.5-0.7-0.4l-3.2,1.2l-1-2.8l1.3-0.5
		l0.5,1.3l3.4-1.2c0.1,0,0.2,0,0.4,0c0.1,0.1,0.2,0.2,0.3,0.4l1.5,4.2c0.2,0.5,0.3,1,0.3,1.5C99.8,157.6,99.8,158,99.7,158.4z
		 M103.4,157.8l-2.8-5.7c-0.2-0.3-0.3-0.4-0.3-0.5c-0.1,0-0.2,0-0.4,0.1l-0.3,0.1l-0.7-1.4l1.1-0.5c0.3-0.1,0.6-0.1,0.9,0.1
		c0.3,0.2,0.5,0.5,0.7,0.8l3.1,6.4L103.4,157.8z M112.8,152.3l-5.6,3.7l-3-4.4l-0.5-1.7l-0.7,0.4l-0.9-1.3l1.1-0.8
		c0.2-0.2,0.4-0.2,0.6-0.2c0.2,0,0.3,0.2,0.5,0.4l0.4,0.7l-0.3,0.2l3,4.5l1.6-1.1l-2.7-4.1c-0.3-0.4-0.5-0.3-0.5-0.3l-0.4,0.3
		l-0.9-1.3l1.2-0.8c0.2-0.1,0.4-0.1,0.6,0c0.2,0.1,0.4,0.2,0.5,0.4l3.4,5l1.1-0.8c0.2-0.1,0.3-0.3,0.3-0.4c0-0.2,0-0.4-0.2-0.6
		l-2.4-3.5c-0.2-0.3-0.4-0.3-0.5-0.2l-0.4,0.3l-0.9-1.3l1.3-0.8c0.2-0.1,0.4-0.2,0.6-0.1c0.2,0.1,0.4,0.2,0.5,0.5l3.1,4.6
		c0.3,0.4,0.4,0.9,0.4,1.4C113.4,151.6,113.2,152,112.8,152.3z M78.2,151.2c-23.9,0-43.3-19.4-43.3-43.3c0-23.9,19.4-43.3,43.3-43.3
		s43.3,19.4,43.3,43.3C121.6,131.8,102.1,151.2,78.2,151.2z M129.9,98.1c-2.9,0-5.4,2.1-6.6,5.1c-2.4-22.8-21.7-40.6-45.1-40.6
		c-23.3,0-42.6,17.7-45.1,40.3c-1.3-2.9-3.8-4.9-6.7-4.8c-2,0-3.8,1-5.2,2.7c-0.1,0-0.2,0.1-0.2,0.1c0,0,0,0,0,0
		c1.5-12.8,7.3-24.6,16.5-33.9C48.5,56.2,63,50.2,78.4,50.2c15.4,0,29.9,6,40.9,16.9c9.4,9.4,15.2,21.5,16.6,34.5
		C134.5,99.4,132.3,98.1,129.9,98.1z"/>
	<polygon class="st0" points="62.1,120 61.4,119 60.3,119.7 61.7,121.8 64.4,120.2 65,121.1 64.5,123.9 66.2,122.9 66.3,120.7 
		64.7,118.4 	"/>
	<polygon class="st0" points="70.4,116.6 71.2,119 71,119.6 70.2,119.9 69.3,116.8 67.9,117.2 68.8,120.2 68.1,120.5 68.6,121.8 
		72,120.8 72.7,119.1 71.7,116.2 	"/>
	<polygon class="st0" points="80.8,117.1 81.4,117.3 81.2,118.3 82.5,118.6 82.7,117.5 83.9,117.8 83.4,119.9 80.3,119.2 
		80.1,120.5 84.5,121.5 85.7,117 81,116 	"/>
	<polygon class="st0" points="87.6,119.1 90.4,120.5 88.8,123.4 90.2,124.1 92.5,120 88.4,117.8 	"/>
	<polygon class="st0" points="86.1,122 87.3,122.6 88.4,120.5 87.3,119.9 	"/>
	<polygon class="st0" points="74.9,112.1 75,113.5 75.6,113.6 75.6,116.2 77.1,116.2 77,112.1 	"/>
	<path class="st0" d="M88.9,106.3c0.1-0.3,0.1-0.6,0.2-0.9c0-0.3,0.1-0.6,0.1-0.9v-0.2c0.1-0.4,0-0.8,0-1.3c0-0.9,0-1.9-0.2-2.7
		c0-0.2,0-0.3-0.1-0.5c-0.2-0.6-0.4-1.2-0.6-1.8c-1-2.2-2.6-3.8-4.6-5c-0.5-0.3-1.1-0.5-1.7-0.8c-0.7-0.3-1.4-0.4-2.2-0.6
		c-0.3-0.1-0.5,0-0.8-0.1c-0.2,0-0.5,0-0.7-0.1c-0.2,0-0.5,0-0.7,0c-0.5,0-1,0-1.4,0.1c-0.2,0-0.4,0-0.6,0.1c-0.5,0.1-1,0.2-1.5,0.3
		c-0.6,0.2-1.1,0.3-1.6,0.6c-1,0.4-1.9,1-2.7,1.5c-0.4,0.2-0.7,0.5-1,0.8c-0.1,0.1-0.2,0.2-0.3,0.3c-0.2,0.1-0.6,0.5-0.7,0.7
		c-0.7-0.1-1.4-0.2-2.1-0.3c-0.3-0.1-0.5-0.2-0.8-0.3c-0.5-0.1-1.1,0.1-1.3,0.3c-0.5,0.7,0.2,1.6,1.1,1.4c0.3-0.1,0.6-0.2,0.8-0.3
		c0.1-0.1,0.2-0.2,0.4-0.3c0,0,0.2,0,0.3,0.1c0.3,0.1,0.5,0.1,0.8,0.2c1.1,0.4,2.2,0.6,3.2,1c0.9,0.3,1.8,0.5,2.7,0.8
		c0.2,0.1,0.5,0.1,0.7,0.2c0.1,0,0.2,0,0.3,0.1c0,0.2,0.1,0.4,0.1,0.6c0.2,0.5,0.2,1,0.4,1.5c0.2,0.7,0.4,1.5,0.6,2.3
		c0,0.1,0.3,0.8,0.2,0.9c-0.1,0.3-0.2,0.7-0.4,1c-0.3,0.7-0.5,1.4-0.7,2.1c-0.1,0.2-0.1,0.4-0.2,0.6c-0.3,0.8-0.6,1.6-0.9,2.4
		c-0.1,0.3-0.2,0.6-0.3,0.9c-0.2,0.5-0.3,1-0.5,1.5c-0.1,0.2-0.2,0.5-0.3,0.8h0c-0.2-0.3-0.5-0.5-0.7-0.7c-0.5-0.5-1-1-1.5-1.5
		c-0.8-0.8-1.5-1.5-2.3-2.3c-0.3-0.3-0.5-0.5-0.8-0.8c-0.1-0.1-0.2-0.3-0.4-0.4c-0.7-0.5-1.8,0.1-2,0.7c-0.1,0.3-0.1,0.8,0,1
		c0.2,0.4,0.6,0.6,0.9,0.8c0.4,0.3,0.8,0.7,1.3,1c0.5,0.4,1,0.8,1.5,1.2c1.7,1.3,3.4,2.7,5.1,4c0.7,0.5,1.3,1.1,2,1.6
		c0.2,0.1,0.5,0.5,0.8,0.6v0h0c-0.1,0.2-0.4,0.5-0.5,0.6c-0.3,0.4-0.6,0.7-0.9,1c-0.1,0.2-0.3,0.5-0.5,0.6c0,0.1,0.5,0.5,0.7,0.6
		c0.3,0.3,0.6,0.6,1,0.9c0.2,0.1,0.4,0.3,0.5,0.5c0.1,0,0.2-0.1,0.2-0.2c0.2-0.2,0.4-0.4,0.6-0.7c0.1-0.1,0.2-0.2,0.3-0.3
		c0.3-0.3,0.6-0.6,0.8-1c0.1-0.1,0.2-0.2,0.3-0.3c0.2-0.3,0.5-0.5,0.7-0.7c0.1-0.1,0.2-0.2,0.3-0.3c0-1.2,0.1-2.4,0-3.6
		c0.2,0,0.3-0.1,0.4-0.2c0.4-0.2,0.8-0.3,1.2-0.5c1.2-0.5,2.3-1.1,3.3-1.8c0.3-0.2,0.5-0.5,0.8-0.7c1.3-1,2.5-2.6,3.2-4.3
		C88.5,107.7,88.7,107,88.9,106.3z M79,114.9c-0.1,0.1-0.2,0.3-0.3,0.4c-0.3,0.3-0.6,0.7-0.8,1c-0.3,0.4-0.7,0.8-1,1.2
		c-0.1,0.1-0.2,0.2-0.3,0.4c-0.1-0.1-0.2-0.2-0.4-0.3c-0.3-0.3-0.5-0.5-0.8-0.8c-0.4-0.4-0.9-0.8-1.3-1.3c-0.2-0.2-0.4-0.5-0.7-0.7
		c-0.2-0.2-0.4-0.4-0.7-0.6c-0.1-0.1-0.3-0.2-0.4-0.4c0-0.1,0.3-0.4,0.3-0.5c0.3-0.4,0.5-0.9,0.8-1.3c0.7-1.1,1.3-2.2,2-3.3
		c0.3-0.4,0.5-0.9,0.8-1.3c0.1-0.2,0.3-0.4,0.4-0.7c0.1,0.1,0.1,0.3,0.2,0.5c0.2,0.4,0.3,0.8,0.5,1.2c0.6,1.4,1.2,2.9,1.8,4.3
		c0.2,0.4,0.3,0.8,0.5,1.2c0.1,0.2,0.1,0.4,0.2,0.5C79.8,114.6,79.1,114.8,79,114.9z M86.7,104.5c0,0.7,0,1.4-0.2,2
		c0,0.1,0,0.2,0,0.3c-0.1,0.4-0.2,0.9-0.3,1.3c-0.6,1.9-1.6,3.5-3.1,4.6c-0.2,0.1-0.3,0.3-0.5,0.4c-0.4,0.3-0.9,0.5-1.4,0.8
		c-0.2,0.1-0.4,0.2-0.6,0.2c-0.7-3.4-1.4-6.8-2.1-10.3c-0.3-0.1-0.6-0.1-0.9-0.1c-0.1,0-0.2,0-0.3,0h-0.1c0.1-0.1,0.2-0.2,0.3-0.3
		c0.1-0.2,0.3-0.4,0.5-0.5c0.1-0.1,0.2-0.2,0.3-0.3c0.1-0.1,0.1-0.2,0.1-0.3c0.1-0.3,0.3-0.6,0.4-0.9c0.2-0.3,0.3-0.7,0.5-1.1
		c0.1-0.1,0.2-0.3,0.2-0.5c0.4,0,0.9,0,1.2-0.1c0.3-0.1,0.7,0,1.1-0.1c0.1,0,0.3,0,0.4,0c0.4-0.1,0.9,0,1.3-0.1h0.2
		c0.3-0.1,0.7,0,1.1-0.1c0.1,0,0.3,0,0.4,0h0.2v0c-0.3-0.2-0.6-0.6-0.9-0.8c-0.9-0.7-1.7-1.5-2.6-2.2c-0.3-0.2-0.5-0.4-0.8-0.7
		c-0.1-0.1-0.2-0.3-0.4-0.3c0-0.5-0.1-0.8-0.4-1c-0.4-0.3-1.1-0.1-1.4,0.2c-0.3,0.5-0.1,1.1,0.3,1.3c0.1,0.1,0.5,0.2,0.7,0.1
		c0.2,0,0.4,0.4,0.5,0.5c0.3,0.4,0.6,0.7,0.9,1c0.1,0.2,0.3,0.5,0.5,0.6v0c-0.4,0-0.8-0.1-1.2-0.2c-0.1,0-0.2,0-0.3,0
		c-0.4-0.1-0.9-0.1-1.3-0.2c-0.3-0.1-0.6-0.1-0.9-0.1c-0.1,0-0.2,0-0.2,0c-0.2,0-0.2-0.1-0.3-0.3c-0.1-0.2-0.3-0.6-0.5-0.7
		c0-0.1,0.1-0.3,0.1-0.4c0.1-0.4,0-1.3-0.1-1.6c0-0.2,0-0.3-0.1-0.4c-0.1-0.2-0.8-0.3-1.2-0.4c-0.2-0.1-0.5-0.1-0.8-0.1
		c-0.1,0-0.2,0-0.3,0c-0.5,0-0.7,0.4-0.7,0.9c0.1,0,0.3,0,0.4,0.1c0.1,0.1,0,0.2,0,0.3c0.1,0.3,0,0.6,0.1,0.9c0,0.1,0,0.3,0,0.4
		c0,0.2,0.4,0.3,0.6,0.4c0.1,0,0.2,0,0.2,0c0.2,0.2,0.1,0.5,0.3,0.7v0c-0.5-0.1-1-0.2-1.5-0.3c-0.4-0.1-0.8-0.1-1.2-0.2
		c-0.1,0-0.3,0-0.4-0.1c-0.6-0.2-1.3-0.2-1.9-0.4c-0.5-0.1-0.9-0.1-1.4-0.2c-0.2,0-0.5,0-0.6-0.1h0v0c0.2-0.1,0.3-0.3,0.4-0.4
		c0.4-0.3,0.7-0.6,1.1-0.8c1-0.6,2-1,3.2-1.4c0.6-0.2,1.2-0.2,1.8-0.3c0.3-0.1,0.5,0,0.8,0c0.3-0.1,0.8,0,1.1,0c0.2,0,0.4,0,0.6,0
		c0.4,0.1,0.9,0.1,1.3,0.3c0.6,0.2,1,0.3,1.5,0.5c2.2,1,4,2.8,5,5c0.3,0.6,0.4,1.2,0.7,1.8c0.1,0.3,0.1,0.6,0.2,0.9
		c0.1,0.5,0.1,0.9,0.2,1.4c0,0.2,0,0.3,0,0.5C86.7,103.7,86.7,104.1,86.7,104.5z"/>
	<path class="st0" d="M51.6,60c-0.4-0.2-0.8-0.2-1.1,0L46,62.7l0.9,1.5l3.6-2.2c0.3-0.2,0.4-0.2,0.5-0.2c0.1,0,0.2,0.1,0.4,0.4
		l3.2,5.3l1.4-0.9l-3.5-5.8C52.3,60.4,51.9,60.1,51.6,60z"/>
	
		<rect x="49.1" y="65.1" transform="matrix(0.8524 -0.5228 0.5228 0.8524 -27.9296 36.0672)" class="st0" width="1.6" height="4.8"/>
	<path class="st0" d="M58.4,56.8c-0.4-0.2-0.8-0.2-1.1-0.1l-3.7,1.5l0.7,1.6l2.9-1.2c0.2-0.1,0.3-0.1,0.5,0c0.1,0.1,0.3,0.2,0.4,0.5
		l2.3,5.6l1.5-0.6l-2.6-6.3C59.1,57.3,58.8,57,58.4,56.8z"/>
	<path class="st0" d="M66.4,55.7l-0.2-0.8c-0.1-0.5-0.5-0.8-0.9-0.6l-4.5,1.2l0.4,1.7l3.2-0.8l1.7,6.6l1.6-0.4l-1.7-6.6L66.4,55.7z"
		/>
	<path class="st0" d="M74.3,53.4c-0.3-0.3-0.6-0.5-1-0.4l-5.1,0.6l1,8.5l1.6-0.2L70,55.1l2.6-0.3c0.4,0,0.6,0.1,0.7,0.6l0.7,6.1
		l1.6-0.2l-0.8-6.9C74.7,54.1,74.5,53.7,74.3,53.4z"/>
	<path class="st0" d="M85.6,53.3L82,53l0.1-1.3l-1.5-0.1l-0.3,3.1l3.6,0.3c0.2,0,0.3,0.1,0.3,0.2c0.1,0.1,0.1,0.2,0.1,0.5L84,58.2
		c0,0.5-0.2,0.9-0.4,1.2c-0.2,0.3-0.5,0.4-0.9,0.4l-0.5,0L82,61.6l0.4,0c0.1,0,0.2,0,0.3,0c0.7,0,1.4-0.3,1.9-0.9
		c0.6-0.6,1-1.4,1.1-2.4l0.4-4.3C86.1,53.4,85.7,53.3,85.6,53.3z"/>
	<path class="st0" d="M94.6,55.6c-0.1-0.3-0.3-0.4-0.6-0.5l-1.5-0.4l-0.4,1.7l0.5,0.1c0.2,0,0.2,0.1,0.2,0.1c0,0,0,0.1,0,0.4l-1,3.8
		c-0.1,0.6-0.4,0.6-0.7,0.5l-1.2-0.3l1.3-5.4c0.1-0.4,0.1-0.7,0-0.9c-0.1-0.3-0.4-0.5-0.7-0.6l-1.4-0.3l-0.4,1.7l0.4,0.1
		c0.1,0,0.2,0.1,0.3,0.2c0,0.1,0,0.2,0,0.3l-1.1,4.5l-1.1-0.3l-0.4,1.7l4.6,1.1c0.1,0,0.2,0,0.3,0c0.3,0,0.6-0.1,0.9-0.3
		c0.4-0.3,0.6-0.6,0.8-1.1l1.4-5.5C94.7,56.1,94.7,55.8,94.6,55.6z"/>
	<path class="st0" d="M98.7,57.3c-0.1-0.4-0.3-0.7-0.6-0.8L96.9,56l-0.6,1.6l0.4,0.2c0.2,0.1,0.3,0.2,0.3,0.2c0,0,0,0.1-0.1,0.5
		l-2.2,5.9l1.5,0.6l2.5-6.5C98.7,58,98.8,57.7,98.7,57.3z"/>
	<path class="st0" d="M105.8,62.1L105.8,62.1c0.2-0.4,0.3-0.9,0.3-1.2c0-0.5-0.3-0.8-0.7-1l-4.4-2.3l-0.7,1.4l-0.7,1.3l-0.9,1.6
		l1.5,0.8l0.6-1.3l0.8-1.5l2.3,1.2c0.2,0.1,0.2,0.2,0.2,0.2c0,0,0,0.1-0.1,0.4l-1.9,3.6c-0.1,0.2-0.2,0.3-0.3,0.3
		c-0.1,0-0.2,0-0.3,0l-3.8-2l-0.8,1.5l4.1,2.1c0.3,0.1,0.5,0.2,0.8,0.2c0.2,0,0.4,0,0.6-0.1c0.4-0.2,0.8-0.5,1.1-1L105.8,62.1z"/>
	
		<rect x="103.2" y="66.4" transform="matrix(0.6008 -0.7994 0.7994 0.6008 -11.5384 111.2531)" class="st0" width="4.8" height="1.6"/>
	<path class="st0" d="M112.8,64.9l-4.1-3.1l-1,1.4l3.4,2.6c0.3,0.2,0.3,0.3,0.3,0.4c0,0.1,0,0.2-0.2,0.5l-3.7,4.9l1.3,1l4.1-5.4
		c0.3-0.4,0.4-0.7,0.4-1.2C113.3,65.5,113.1,65.1,112.8,64.9z"/>
	<path class="st0" d="M90.4,155.2c-0.1-0.1-0.2-0.1-0.3,0l-2.8,0.6l1.1,5.3l3.2-0.7l-1-4.7C90.6,155.4,90.5,155.2,90.4,155.2z"/>
	<path class="st0" d="M77.7,71.1c-11.4,0-21.6,5.2-28.3,13.3c-0.7,0.8-1.3,1.7-1.9,2.5c-4.2,6-6.6,13.2-6.6,21.1
		c0,20.3,16.6,36.9,36.9,36.9c3.7,0,7.3-0.6,10.7-1.6c0.4-0.1,0.8-0.3,1.2-0.4c14.5-5,25-18.7,25-34.9C114.6,87.7,98,71.1,77.7,71.1
		z M66.2,75l2.5,6.4l-5.1,7.2l-8,2.7l-5.8-4.3C53.9,81.6,59.6,77.3,66.2,75z M77.7,142.9c-3.6,0-7.1-0.6-10.4-1.6l1.7-6.6l8.3-2.9
		l8.1,2.5l2.3,7.1C84.5,142.4,81.2,142.9,77.7,142.9z M106.5,127.6l-7.4-3.9l-12.6,9.9l-0.1-0.2l-9.1-2.9l-8.7,3l0-0.2l-13.5-9.7
		l-6.5,3.8c-3.5-5.3-5.7-11.5-5.9-18.3l7.9-1.1l4.4-15.4l0.2,0.1l9.1-3l5.3-7.5l0.1,0.2h15.5l5.2,7.3l9.1,3l0.4-0.3l4.5,15.5
		l8.2,1.1C112.4,116,110.2,122.3,106.5,127.6z M99.3,91.3l-8-2.7L86.6,82l3-6.8c6.3,2.3,11.7,6.4,15.8,11.6L99.3,91.3z"/>
</g>
</svg>
