<?xml version="1.0" encoding="utf-8"?>
<!-- Generator: Adobe Illustrator 24.2.3, SVG Export Plug-In . SVG Version: 6.00 Build 0)  -->
<svg version="1.1" id="Layer_1" xmlns="http://www.w3.org/2000/svg" xmlns:xlink="http://www.w3.org/1999/xlink" x="0px" y="0px"
	 viewBox="0 0 156.8 167.7" style="enable-background:new 0 0 156.8 167.7;" xml:space="preserve">
<style type="text/css">
	.st0{fill:#FFFFFF;}
	.st1{fill-rule:evenodd;clip-rule:evenodd;fill:#FFFFFF;}
	.st2{fill-rule:evenodd;clip-rule:evenodd;fill:#493C3B;}
	.st3{fill:#D6D6D6;}
	.st4{fill:#606060;}
</style>
<g>
	<path class="st0" d="M62.4,59.5c1.5,0.6,2.5,1.2,2.8,1.3l0.1,0c0,0,1.6,0,3.2,0.3c1.6,0.3,2.9,0.7,2.9,0.7l0.1,0
		c1.2-0.2,2.4-0.2,2.9-0.2h0c2.9,1.7,5.3,4.1,6.9,7v0c-0.1,1-0.2,1.8-0.2,2.1c0,0,0,0.1,0.1,0.2c0.2,0.4,0.9,1.8,1.3,3.7
		c0.5,2.2,0.4,3.8,0.4,3.8l0,0c0.3,0.4,0.6,0.8,0.8,1.1l0,0c-0.4,4.1-2.2,7.8-4.8,10.7h0c-0.8,0-1.6,0-1.8,0l0,0c0,0-0.7,1-2.6,2.1
		c-1.9,1.2-3.7,1.5-3.8,1.5l-0.1,0c-0.2,0.2-0.8,1-2.1,2l0,0c-1,0.2-2.1,0.3-3.2,0.3c-2.7,0-5.2-0.6-7.5-1.6l0,0
		c-0.5-1.1-0.8-1.9-0.9-2.2l0,0c0,0-1-0.5-2.9-2.1c-1.9-1.6-2.9-3.3-3-3.4l0-0.1c-0.3-0.1-1.3-0.6-2.5-1.5l0,0
		c-1.1-2.4-1.7-5-1.7-7.8c0-0.3,0-0.6,0-0.9l0,0c0.8-1.1,2-2.6,2.3-3l0-0.1c0,0,0.5-1.6,1.5-3.5c1-1.9,2-3.6,2-3.6l0-0.1
		c0-0.3,0-1.2,0-2.3v0C55.3,61.7,58.6,60,62.4,59.5L62.4,59.5z M71.2,72.1c0.1,0.5,0.9,4,1.2,8.1l0,0c0,0,1.6,1,3.2,1.7
		c1.6,0.7,2.7,1.1,2.7,1.1l0.1,0c2.2-0.9,4-4,4.4-4.7l0-0.1c0,0,0.1-1.6-0.4-3.8c-0.5-2.1-1.3-3.7-1.3-3.8L81,70.7
		c-2.1-1.9-5.8-2.3-6.3-2.4l0,0c0,0-0.3,0.5-1.4,1.7C72.3,71.2,71.2,72.1,71.2,72.1L71.2,72.1z M77,90.1c1-2.6,1.3-6.3,1.3-6.8h0
		c0,0-1.2-0.4-2.8-1.1c-1.6-0.7-3.2-1.7-3.2-1.7l0,0c-0.4,0.3-3.4,2.4-7.4,3.8v0c0,0,0.1,1.5-0.3,3.4c-0.5,2-0.9,2.9-0.9,2.9v0
		c0.3,0.4,2.9,2.9,6.7,3.4l0.2,0c0,0,1.9-0.4,3.7-1.5c1.9-1.2,2.6-2.1,2.6-2.1L77,90.1z M65.1,60.9c-0.5,0.2-1.9,0.8-2.9,1.7
		c-1.7,1.5-2.2,2.5-2.3,2.8l0,0.1c0,0,0.4,1.1,1.4,2.9c0.9,1.8,1.4,2.4,1.4,2.4l0,0c4.5,0.2,8,1.1,8.5,1.2l0,0c0,0,1-0.9,2-2.1
		c0.8-0.9,1.2-1.4,1.3-1.6c0-0.1,0.1-0.1,0.1-0.1c-1.2-3.8-2.8-5.8-3.1-6.3l-0.1,0c0,0-1.2-0.4-2.9-0.7c-1.6-0.3-3.2-0.3-3.2-0.3
		L65.1,60.9z M59.8,65.5c-0.4,0-2.3-0.1-3.4,0c-1.9,0.2-3.2,0.8-3.6,1l-0.1,0.1c0,0-1.1,1.7-2,3.6c-1,1.9-1.5,3.5-1.5,3.5l0,0.1
		c0.1,0.6,1,3.7,3.5,5.9l0,0c0,0,1.5-0.3,3.3-0.7l2.7-0.5h0c0.8-3.4,3.4-7.2,3.8-7.6l0,0c0,0-0.5-0.6-1.4-2.4
		C60.2,66.6,59.8,65.5,59.8,65.5L59.8,65.5z M52.7,79.8c-0.2,0.5-1.8,4.1-1.8,7.2l0,0.1c0,0,1.1,1.7,2.9,3.3s2.9,2.1,2.9,2.1l0.1,0
		c2.8-0.2,6.2-1.7,6.7-1.9l0-0.1c0,0,0.4-0.9,0.9-2.9c0.5-1.9,0.3-3.4,0.3-3.4l0,0c-0.3-0.2-1.3-0.9-3.3-2.8
		c-1.6-1.5-2.5-2.6-2.7-2.8l0,0l-2.7,0.5C54.3,79.4,52.8,79.8,52.7,79.8L52.7,79.8z M62.8,71.8c0,0,0.2,0.2,0.5,0.2
		c1.7,0.2,6.8,0.8,7.1,0.8c0.1,0.8,0.5,4,0.7,6.1c0,0.4,0.2,1,0.2,1s0.1-0.6,0.1-0.9c-0.2-2.4-0.7-6.4-0.7-6.4
		c-1.7-0.2-5.7-0.7-7.3-0.9C63,71.7,62.8,71.8,62.8,71.8z M61.3,59.7c0.7,0.3,1.4,0.7,1.8,0.9c-0.2,0.2-1.3,1.3-2,2.1
		c-0.4,0.4-0.7,0.9-0.7,0.9s0.3-0.2,0.7-0.6c0.7-0.7,1.6-1.7,2.3-2.4c0,0-0.9-0.5-1.8-0.9c0,0-0.1,0-0.2,0
		C61.4,59.6,61.3,59.7,61.3,59.7z"/>
	<path class="st0" d="M95.6,130.6c-3.9-0.4-5.8-1-7.3-1.6c-1.6-0.6-2.5-0.6-4.1-0.9c-1.6-0.4-3-0.9-4.2-0.9s-3.4,0.5-7.9,1.5
		c-4.4,0.9-6,0.4-8.8,0c-2.8-0.4-4.9-0.4-10-1.3c-5.1-0.9-6.7-2.7-7.8-3.9s-1.9-1.7-3.8-2.6c-1.3-0.6-2.2-1-2.7-1.1l0,0
		c0,0.3-0.3,0.6-1.1,0.8c-1.2,0.3-4.7,1.8-8.3,3.8c-3.9,2.1-6.8,4.1-8.1,4.8c-1.3,0.7-2,1.2-3.2,1.6c-1.1,0.4-2,0.6-1.1,1.7
		c0.9,1.1,1.8,1.9,3,2.8c1.2,0.9,1.7,1.1,2.3,1.1c0.6,0,1.2-0.1,2.6-1s2.1-1.2,3-0.9c1,0.3,1.5,0.7,1.1,1.2c-0.4,0.5-1,0.6-1.5,0.6
		s-1.1,0.8-1.3,1.1C26,137.4,26,138,27,139c1,0.9,1.9,1.5,3.2,1.7c1.3,0.1,2.5,0.1,3.2-0.9c0.7-1,1.5-1.5,2.3-2.5
		c0.8-1,1.3-1.9,1.8-1.9s0.9,0.1,1,0.8c0.2,0.6,0,1.3-0.9,1.8s-1.6,1.1-2.4,2.4s-1.3,1.3-0.7,2.6c0.3,0.6,0.3,1.5,1.1,1.8
		s1.8,0.1,2.5,0.1s1.3,0.4,1.9,0.9c0.7,0.5,1.3,0.8,2.1-0.2c0.8-1,1.7-1.4,2.7-2c1.1-0.6,1.5-1.3,2.1-1.5c0.6-0.2,1,0.2,1,0.9
		c0,0.7-0.1,1.4-0.6,2.2c-0.5,0.8-0.7,1.3,0.2,2.5c0.7,1,1.4,2,2.7,2.8l0,0c0.4-0.1,0.8-0.1,1.5-0.2c1.6-0.1,2.8-0.5,3.7-0.8
		c2.7-1,5.9-3.4,8.1-4.9c2.2-1.5,5.5-3.4,9-4.8c3.5-1.5,9.5-3.7,13.3-4.9s4.7-2,7.4-2.8c1.7-0.6,3.1-0.9,3.8-1.1l-0.1,0
		C96.7,130.7,96.1,130.7,95.6,130.6z"/>
	<path class="st0" d="M49.3,124.2c0.9,0.2,1.9,0.6,2.3,0c0.4-0.6,0.4-0.8-0.3-1.1c-0.7-0.2-1.1-0.4-2.3-0.7c-2-0.5-3-0.7-2.4,0
		C47.2,123.3,48.4,124,49.3,124.2z"/>
	<path class="st0" d="M130.6,108c-0.4,0-1.1,0.3-1.8,0.3c-0.7-0.1-1-0.1-1.4-1.3c-0.4-1.3-0.9-1.2-2.3-0.6c-1.4,0.7-2.5,0.9-2.9,0.3
		c-0.4-0.6-0.3-2.1,1.3-2.6c1.6-0.6,3.7-1.5,5-2.1c1.3-0.6,1.8-0.6,1.4-1.3c-0.3-0.7-0.6-1.1-0.3-2c0.2-0.9,0.9-1.5,0.6-2.4
		c-0.3-0.8-1.5-2.4-1.9-3.1c-0.6-1-1.3-0.9-2.9-0.3c-1.1,0.3-1.7,0.8-2.6,0.7c-0.8-0.1-1.1-1.5-0.4-2.4c0.7-0.9,1.1-1.1,2.9-1.5
		c1.8-0.4,2.2-0.6,2-1.5c-0.2-0.9-0.3-2.1-1.2-2.4c-1-0.3-2.9,0.1-4.8,0.6c-1.9,0.5-3.2,1.3-4.5,1.8c-1.3,0.4-3,0.7-3.8,0.1
		c-0.8-0.6-0.8-1.8-1.9-4.2c-1-2.4-2.9-5.5-4.9-8.3c-2.1-2.8-5.2-7.7-7.7-10.9c-2.5-3.1-5.6-6.7-7-8.7c-1.4-2-2-3-2.6-5
		c-0.6-2-0.8-3-1.4-3c-0.6,0-0.7,0.9-0.2,3.5c0.3,1.3,0.4,2.4,0.6,3.4c5.8,5.8,9.4,13.8,9.4,22.6c0,17.6-14.3,31.9-31.9,31.9
		c-2.3,0-4.6-0.2-6.8-0.7c0,0.2-0.2,0.4-0.5,0.5c-0.7,0.1-3,0.5-6.7,1.5c-3.7,1-9.9,2.8-12.4,3.6c-2.5,0.8-3.7,0.5-3.9,0.2
		c-0.2-0.3,0.4-0.7,2.9-1.4c2.5-0.7,6.7-2,10.9-3.2c2.3-0.7,3.4-1,5.8-1.7c0.4-0.1,0.7-0.2,1-0.2c-0.5-0.2-1-0.3-1.5-0.5
		c-1.7,0.5-4.2,1.3-7.3,2.2c-7,2.1-10.1,3.1-12,3.8c-1.8,0.8-2.4,1.4-2,2.2c0.4,0.8,1.4,1,2.6,1.4c1.2,0.4,2.6,1.4,3.1,1.8l0,0
		c1.1-0.3,1.6,0.1,3.3,0.7c1.8,0.7,2.5,0.8,4.2,1c1.7,0.2,3,0.1,5.8,0.9c2.8,0.8,3.1,1,4,1.8c0.9,0.8,1.7,1.1,3.3,1.2
		c1.6,0.1,3.6,0.3,7.4,0.4c3.8,0.1,4.7,0.3,5.1,0.6c0.4,0.3-1.9,0.5-6.1,0.5c-4.1,0-6.5-0.8-8.5-1.1c-2.1-0.4-3.5-0.9-4.6-0.9
		c-1,0,0.3,1.1,1.5,1.4c1.2,0.3,3,0.6,6,1.2c3,0.6,6.6,0.6,9.9,0.5c3.3-0.1,4.8-0.4,6.3-0.8c1.5-0.4,2.5-0.7,4.3-0.7
		s3.7,0.8,5.5,1.1c1.7,0.3,3.2,0.7,6.9,1.2c7.8,1.2,14.1,0.2,17.1-0.1c3-0.4,1.9-0.9-0.9-1.3c-2.8-0.4-4.7-0.2-10.2-1.2
		c-5.5-0.9-8.9-3.7-10.9-5.5c-1.3-1.1-0.2-1.9,1.3-2.5c1.5-0.5,3-0.7,7.7-3.2c5.4-2.9,9.6-6.6,12.9-12c2.4-3.9,2.5-7.6,2.6-9.4
		c0.1-1.7,0.6-2.3,1.3-2.2c2.2,0.4,1.7,2.4,0,9.2c-1.4,5.5-3.9,9.1-7.1,12.3c-3.2,3.3-9.5,5.7-10.9,6.7c-1.4,1-1.5,2.4-0.7,3.2
		c0.8,0.8,5,1.6,8.1,2.1c3.1,0.5,5.9,0.5,8.3,0.6c0.5,0,0.9,0.1,1.2,0.2l0,0c2,0,3.4-0.2,5.6-1c2.7-1.1,3.4-2,3.5-2.8s0-1.6,0.7-2.3
		c0.5-0.5,0.9-0.6,1.2-0.6v0c0-0.4,0.3-1,1.3-1c1-0.1,2-0.5,2-1.2c0-0.7-0.4-1.3-0.2-1.8c0.2-0.4,0.7-0.6,0.7-1.7
		c0.1-1.1,0.3-1.4,1.1-1.9c0.8-0.5,1.6-1,2.3-1.7C131.3,108.5,131,108,130.6,108z M50.4,119.6c-1.5,0-1.3-0.5-1-1.1
		c0.2-0.6,0.8-1.4,1.6-1.3c0.9,0.1,1.5,0.8,1.6,1.7C52.6,119.8,51.9,119.6,50.4,119.6z M66,115.7c-0.3,1.1-0.5,2.9-0.4,4.6
		c0.1,1.7-0.3,2.2-0.9,2.4c-0.6,0.1-0.9-0.8-1.1-2.2c-0.3-1.3-0.2-2.9,0-3.3c0.2-0.4,0.8-1.1,0.9-1.8c0.1-0.7,0.6-1.4,1.2-1.3
		C66.5,114.1,66.4,114.6,66,115.7z M68.6,116.5c-0.3,1.4-0.2,3.1-0.1,4.7c0.1,1.7,0.2,1.8-0.3,2.4c-0.6,0.5-0.8-0.2-1.1-1.5
		c-0.3-1.3-0.4-3.3-0.2-4.8c0.2-1.5,1.1-2.9,1.7-2.8C69.2,114.5,68.9,115.2,68.6,116.5z M71.3,116.6c-0.1,1.1-0.3,2.9-0.3,4.9
		c0,1.9-0.2,1.8-0.7,1.8s-0.8-1-0.9-1.9c0-0.9,0.1-3,0.4-4.8c0.3-1.8,1.1-2.1,1.4-2C71.6,114.6,71.4,115.5,71.3,116.6z M73.5,118.3
		c-0.1,1-0.2,3.5-0.2,4.7c0,1.1-1.3,0.5-1.4,0.1c0-0.4,0-1.9,0.4-4.1c0.3-2.2,0.9-2.9,1.2-2.9C73.9,116.1,73.6,117.3,73.5,118.3z
		 M75,123.1c-0.2,0.9-0.6,0-0.7-0.6c0-0.6-0.3-1.8-0.3-2.9c0-1.1,1.2-2.1,1.5-2c0.4,0.1-0.4,1.4-0.5,2.4
		C75,121.1,75.2,122.3,75,123.1z"/>
	<path class="st3" d="M118.6,83.5c0.1,0.2,0.2,0.4,0.3,0.6c-0.7,0.3-1.4,0.6-1.9,0.8c-0.5,0.2-0.9,0.4-1.3,0.5
		c-0.4,0.1-0.8,0.2-1.1,0.3c0-0.1,0-0.1-0.1-0.2c-0.2-0.7-0.5-1.5-1-2.6c-0.4-1-1-2-1.6-3.1c0.4,0,1,0,1.7-0.1
		c1.5-0.2,2.6-0.5,3.2,0.7C117.5,81.5,118,82.6,118.6,83.5z M119,72.3c-0.6-0.8-1.4-1.5-2.3-1.9c-0.9-0.3-0.9-0.9-0.9-1.6
		c0-0.8-0.2-2.2-1.1-2.3c-1-0.1-1.9,0.1-3.6,0.5c-1.7,0.5-2.3,0.5-2.9,1c-0.6,0.4-1.4,0.8-1.9,0.8c-0.4,0-1.3,0-1.7-0.7
		c-0.4-0.7,0.2-1.2,1.3-2c1.1-0.7,0.8-2.1-0.9-3.1c-1.7-1-3.4-0.9-4.8-0.7c-0.1,0-0.1,0-0.2,0c0.2,0.2,0.3,0.4,0.5,0.6
		c1.6,2,3.4,4.7,5,7c1,1.5,2,2.9,2.8,4c1,1.4,2,2.9,2.9,4.4c0.2-0.2,0.4-0.5,0.8-0.8c1-0.9,2.1-1,3.4-1.8c1.4-0.7,2.8-0.9,3.7-1.3
		C119.9,74.1,119.6,73.1,119,72.3z M52.4,105.2c-1.6,0.5-3.8,1.2-6.4,2c-7,2.1-10.2,3.1-12.2,3.9c-1.4,0.6-3,1.4-3.6,3.1
		c-0.4,1-0.3,2,0.1,3c0.6,1.2,1.5,1.8,2.5,2.3c-1.5,0.7-3.2,1.5-4.5,2.3c-2.4,1.3-4.5,2.6-6,3.5c-0.9,0.5-1.6,1-2,1.2
		c-0.6-0.3-0.5-1.4-0.6-2.3c-0.1-1,0.2-1.9,0.6-3.1c0.4-1.1,0.7-2.4,1.2-3.2s2.3-2.5,3.4-3.6c0.7-0.7,0.4-1.4,0.1-1.5
		c-0.3-0.1-1.1-0.1-1.9,0.4c-0.9,0.5-1.9,0.8-2.4,0.6c-0.5-0.2-0.8-1.1-0.8-1.8s0-1.8,0-1.8s-0.5-0.4-1.4-1
		c-0.9-0.7-0.3-1.3,0.6-2.1c0.9-0.8,1.5-1.4,3-3.1c1.5-1.7,3.8-3.2,4.8-4.1c1-0.8,0.9-1.2,0.5-1.5c-0.3-0.3-1.5-0.3-2.2-0.2
		c-0.8,0.2-1.3,0.4-1.3,0c0-0.4,0.1-1.3,0.3-1.9c0.2-0.5,0.2-0.8-0.3-1.2c-0.5-0.3-0.8-0.5-0.8-0.9c0-0.4,0.9-0.6,3.2-1.8
		c2.3-1.1,3.6-2.2,5.9-3.6c1.8-1.2,3.6-1.7,4.4-2l0,0C38.9,95,44.8,101.7,52.4,105.2z M125.3,121.6c-0.3,0.1-0.6,0.3-1,0.5
		c0-0.1,0.1-0.3,0.1-0.4c0-0.2,0-0.4,0-0.6c0.4-0.2,0.8-0.4,1.1-0.7c0.1-0.1,0.1-0.2,0.2-0.2c0.5-0.1,0.9-0.2,1.3-0.4
		C127,120.4,126.3,121.1,125.3,121.6z M139.9,129.8c-0.1,0.7-1.5,1.2-5.2,3.1c-3.7,1.9-6.4,3.3-11.3,5.9c-4.9,2.6-10.7,5.3-13.6,6.7
		c-2.9,1.4-4,2.2-6.8,4.4c-2.8,2.2-6.8,5.1-9.1,6.8c-2.3,1.7-5.4,4-7.4,5.5c-2,1.5-2.8,1.4-3.7,1.5c-1,0.1-1.8,0.1-1.9-0.5
		c-0.1-0.6,0.3-1.2,0.9-1.8c0.6-0.5,0.7-1.1,0.6-1.8s-1.2-0.6-3,0.5c-1.8,1.1-3.9,2.4-6.9,3.7c-2.9,1.4-4.2,1.8-4.7,1.8
		c-0.4,0-0.5-0.3-0.5-0.9c-0.1-0.6-0.6-1-1.2-0.7c-0.6,0.3-1.2,1-2.7,2c-1.5,1-2.4,1.3-3.5,1.4c-1.1,0.1-1.4-0.7-1.5-1.6
		c-0.1-0.9-0.8-1-1.7-1c-0.8,0-1.5,0.1-1.7-0.2c-0.2-0.3,0-1.1,0.5-1.5c0.5-0.4,1.2-0.7,2.2-1.3c1-0.7,1.4-1.1,2.3-1.7
		c0.9-0.6,1.4-1.6,1.3-2.1c0-0.5-0.6-0.6-2,0.3c-1.4,0.9-4.4,2.9-7.4,4.5c-3,1.6-3.9,1.6-4.9,1.4c-0.9-0.2-1.4-0.9-2.1-2
		c-0.6-1.1-0.5-1.7-0.8-1.8c-0.3-0.1-1,0-1.3-0.4c-0.3-0.4-0.2-1.1-0.2-1.1s-0.7,0-0.9-0.1c-0.2-0.1-0.3-0.8-0.2-3
		c0.1-2.2,1.2-2.7,2.6-3.3c0.9-0.4,2.1-0.9,3.1-1.3c0.4,0.4,0.8,0.8,1.3,1.1c0.5,0.3,1.1,0.5,1.7,0.5c0.2,0,0.3,0,0.5,0
		c0,0,0.1,0,0.1,0c0.2,0,0.5-0.1,1.1-0.1c1.9-0.1,3.3-0.5,4.5-1c2.7-1,5.4-2.9,7.7-4.4c0.4-0.3,0.7-0.5,1.1-0.7
		c2.3-1.6,5.5-3.3,8.5-4.5c3.4-1.4,9.3-3.6,13.1-4.9c2.2-0.7,3.5-1.3,4.6-1.8c0.9-0.4,1.6-0.7,2.7-1.1c1.7-0.5,2.9-0.8,3.6-1
		c1.1-0.2,1.9-1,2.1-2h0.5c4,0,7.2-0.4,9.2-0.7l0.5-0.1c1.2-0.2,3.8-0.5,4.2-2.8c1.4-0.1,2.9-0.4,4.7-1.2c0.5-0.2,1-0.4,1.5-0.7
		c0.4,0.4,1.2,0,2.6-0.8c1.6-0.9,3.4-2.3,5.7-3.7c2.3-1.5,3.3-1.7,4.8-1.7c1.8-0.1,3.1,1.6,3.8,2.6c0.7,1,1,1.2,1.6,1.4
		c0.6,0.2,1,0.4,1.1,1C140.2,125.4,140,129.1,139.9,129.8z"/>
	<g>
		<path class="st0" d="M62.5,102.3c-0.2,0-0.3,0-0.4,0.1c-0.1,0-0.1,0.1-0.1,0.2c0,0,0,0,0,0.1c0,0.1,0,0.2,0.1,0.2
			c0.1,0.1,0.1,0.1,0.3,0.1l0,0c0.2,0,0.4,0,0.5-0.1c0.1-0.1,0.2-0.1,0.2-0.2c0,0,0-0.1,0-0.1l0-0.1c0,0,0-0.1,0-0.1
			c-0.1,0-0.1,0-0.2,0L62.5,102.3z"/>
		<path class="st0" d="M56.6,100.9c-0.2,0-0.3-0.1-0.4,0c-0.1,0-0.1,0.1-0.2,0.2c0,0.1,0,0.2,0,0.3c0,0.1,0.1,0.1,0.2,0.2
			c0.2,0.1,0.4,0.1,0.6,0c0.1,0,0.2-0.1,0.3-0.2l0-0.1l0.1-0.1c0,0,0-0.1,0-0.1c-0.1,0-0.1,0-0.2,0L56.6,100.9z"/>
		<path class="st0" d="M80.6,97.3l-0.1-0.1c0,0,0-0.1-0.1-0.1c0,0-0.1,0.1-0.1,0.1l-0.3,0.3c-0.1,0.1-0.2,0.3-0.3,0.4
			c0,0,0,0.1,0,0.1c0,0.1,0,0.1,0.1,0.1c0.1,0.1,0.1,0.1,0.2,0.2c0.1,0,0.2,0,0.3-0.1c0.2-0.1,0.3-0.3,0.3-0.5c0-0.1,0-0.1,0-0.2
			C80.7,97.5,80.7,97.4,80.6,97.3C80.7,97.4,80.6,97.3,80.6,97.3z"/>
		<path class="st0" d="M70.1,101c-0.1-0.1-0.3-0.2-0.5-0.1c-0.2,0-0.3,0.1-0.4,0.3c-0.1,0.2-0.1,0.4-0.1,0.7
			c0.1,0.3,0.2,0.5,0.3,0.6c0.1,0.1,0.3,0.2,0.5,0.1c0.2,0,0.3-0.1,0.4-0.3c0.1-0.2,0.1-0.4,0.1-0.7C70.4,101.4,70.3,101.2,70.1,101
			z"/>
		<path class="st0" d="M77.5,98.1c-0.1-0.1-0.3,0-0.5,0.1c-0.2,0.1-0.3,0.2-0.3,0.4c0,0.2,0.1,0.4,0.3,0.8c0.1,0.2,0.3,0.4,0.4,0.4
			c0.2,0.1,0.3,0,0.5-0.1c0.2-0.1,0.3-0.2,0.3-0.4c0-0.2-0.1-0.4-0.2-0.7C77.8,98.4,77.6,98.2,77.5,98.1z"/>
		<path class="st0" d="M49.6,95.6C49.6,95.6,49.6,95.6,49.6,95.6c0-0.2-0.1-0.3-0.2-0.4C49.2,95,49.1,95,48.9,95
			c-0.1,0-0.2,0.1-0.4,0.2c0.1,0.1,0.8,0.7,0.9,0.8C49.5,95.9,49.6,95.7,49.6,95.6z"/>
		<path class="st0" d="M40.6,76C40.6,76,40.6,76,40.6,76c0-0.1,0-0.1,0-0.1c0,0,0,0-0.1,0c-0.1,0-0.1-0.1-0.1-0.1c0-0.1,0-0.2,0-0.2
			c0-0.1,0-0.1-0.1-0.1c0,0,0,0,0,0c0,0,0-0.1,0.1-0.1c0,0,0.2,0,0.4,0c0.2,0,0.2,0.1,0.2,0.3c0,0.1,0,0.1,0,0.2c0,0,0,0.1,0,0.1
			c0,0,0,0,0,0.1c0,0,0,0.1,0,0.1c0,0.1,0.1,0.1,0.2,0.1c0.1,0,0.4,0,0.6,0.1c0.2,0,0.2,0,0.1-0.1c-0.1-0.1-0.2-0.3-0.3-0.3
			c0,0,0,0,0,0c0,0-0.1,0-0.2-0.1c-0.1-0.1-0.1-0.2,0-0.2c0-0.1,0.1-0.1,0.3-0.1c0.1,0.1,0.1,0.2,0.1,0.2c0,0,0,0,0,0
			c0.1,0.1,0.9,0.7,0.9,0.7c0,0-1,0.1-1.2,0.1c0,0-0.2,0.5-0.3,0.6c0,0,0,0,0,0c0,0-0.2,0.1-0.2,0.1c0,0,0.2,0,0.3,0.1c0,0,0,0,0,0
			c0,0.2,0.4,1.9,0.5,2.1v0c0.3-0.1,0.7-0.4,1-1c0.5-1,0.2-2.8-1.1-3.3c-1.3-0.5-2.2,0.3-2.4,0.5l0,0c0.5,0.1,1,0.1,1.1,0.2
			C40.5,76,40.6,76,40.6,76z"/>
		<path class="st0" d="M40.8,78c0,0-0.7,1.2-0.9,1.5l0,0c0.4,0.4,0.7,0.7,0.8,0.8l0,0l0.5-0.6c0,0,0.1,0,0.2-0.1l0,0
			C41.4,79.4,40.8,78,40.8,78z M40.9,79.7h-0.3v-1h0.3V79.7z"/>
		<path class="st0" d="M45.5,90.6c-0.1-0.2-0.3-0.3-0.4-0.3c-0.2,0-0.4,0.1-0.8,0.3c-0.2,0.1-0.3,0.3-0.4,0.5
			c-0.1,0.2,0,0.3,0.1,0.5c0.1,0.2,0.2,0.2,0.4,0.3c0.2,0,0.4-0.1,0.7-0.3c0.3-0.2,0.4-0.3,0.5-0.5C45.7,91,45.6,90.8,45.5,90.6z"/>
		<path class="st0" d="M42.6,88.9c0.1,0.1,0.2,0.1,0.3,0.1l0.1,0l0.1-0.1c0,0,0.1,0,0.1-0.1c0,0-0.1-0.1-0.1-0.1L43,88.4
			c-0.1-0.2-0.2-0.3-0.3-0.3c-0.1,0-0.1,0-0.2,0c-0.1,0.1-0.2,0.1-0.2,0.2c0,0,0,0.1,0,0.1c0,0.1,0,0.1,0.1,0.2
			C42.3,88.7,42.5,88.9,42.6,88.9z"/>
		<path class="st0" d="M46.8,92.8c-0.2,0-0.4,0.1-0.6,0.3c-0.2,0.2-0.3,0.4-0.4,0.6c0,0.2,0,0.4,0.1,0.5l0,0
			c0.1,0.2,0.3,0.2,0.5,0.2c0.2,0,0.4-0.1,0.6-0.3c0.2-0.2,0.3-0.4,0.4-0.6c0-0.2,0-0.4-0.1-0.5C47.2,92.8,47,92.8,46.8,92.8z"/>
		<path class="st0" d="M73.1,100.2c-0.2-0.1-0.3-0.1-0.5-0.1c-0.2,0.1-0.3,0.2-0.4,0.4c0,0.1,0,0.2,0,0.3c0,0.1,0,0.3,0.1,0.4
			c0.1,0.3,0.2,0.5,0.4,0.6c0.2,0.1,0.3,0.1,0.5,0.1c0.2-0.1,0.3-0.2,0.4-0.4c0.1-0.2,0.1-0.4,0-0.7
			C73.4,100.5,73.3,100.3,73.1,100.2z"/>
		<path class="st0" d="M89.6,75.7c-1.5,0-2.6,1.2-2.6,2.6s1.2,2.6,2.6,2.6s2.6-1.2,2.6-2.6S91.1,75.7,89.6,75.7z"/>
		<path class="st0" d="M65.2,48.7c-16.1,0-29.1,13-29.1,29.1s13,29.1,29.1,29.1s29.1-13,29.1-29.1S81.3,48.7,65.2,48.7z M90,70.1
			l0.2,0.9l-0.1,0c-0.1,0-0.1,0.1-0.2,0.1c0,0,0.6,0.3,0.8,0.8c0.2,0.7-0.5,1.3-1.1,1.5l-0.5,0.1c-0.7,0.1-1.4,0-1.5-0.7l-0.1-0.5
			l0.6-0.1c0,0,0,0.1,0.1,0.3c0.1,0.4,0.5,0.3,1.1,0.2c0.5-0.1,1-0.3,0.9-0.7c-0.1-0.4-0.7-0.6-1.4-0.4L87.5,72l-0.2-0.8l1.4-0.3
			C89.6,70.6,90,70.1,90,70.1z M89.7,69.4L87,70.3l-0.3-0.8l2.7-0.9L89.7,69.4z M88.3,65.9l-2,1.6c0.1,0.1,0.1,0.1,0.2,0.2
			c0.2,0.2,0.6,0.3,0.9,0.1l1.5-0.7l0.4,0.8l-1.5,0.7c-0.7,0.3-1,0.2-1.7-0.5c-0.7-0.7-1.2-1.3-1.2-1.3l0.4-0.4c0,0,0.2,0.2,0.4,0.5
			l2.2-1.7L88.3,65.9z M86,62.2l1.5,2.3l-0.5,0.3l-0.2-0.3l-2.1,1l-0.5-0.7l2.1-1l-0.9-1.3L86,62.2z M85.5,61.6l-2.2,1.8l-0.5-0.7
			l2.2-1.8L85.5,61.6z M84.3,60.3l-3,2.7l-0.6-0.6l3-2.7L84.3,60.3z M79.4,56.1l1.3,0.9c0.4,0.3,0.5,0.8,0.1,1.4l-0.4,0.6
			c-0.4,0.5-0.9,0.8-1.6,0.3l-1.2-0.8l0.3-0.5c0,0,0.4,0.3,0.8,0.6c0.4,0.3,0.6,0.3,0.9,0c0.2-0.2,0.3-0.4,0.5-0.7
			c0.2-0.3,0.1-0.5-0.2-0.7c-0.4-0.3-0.9-0.6-0.9-0.6L79.4,56.1z M76.2,54.9l0.3-0.5l2.4,1.3l-0.3,0.5l-0.3-0.1l-1.4,1.9l-0.8-0.4
			l1.4-1.9L76.2,54.9z M74.8,53.7l0.8,0.3l-1.1,2.7l-0.8-0.3L74.8,53.7z M71.4,52.6l1.4,0.4c0.7,0.2,0.8,0.7,0.6,1.3l-0.5,1.7
			l-0.8-0.2l0.5-1.7c0.1-0.4,0-0.6-0.4-0.7l-1-0.3L71.4,52.6z M68.6,54.1c0.4-0.3,0.8-0.6,0.8-0.6c0-0.1,0-0.1,0-0.2
			c0.1-0.4,0-0.5-0.2-0.5c-0.3,0-0.5-0.1-0.7-0.1l0-0.6l1.2,0.2c0.6,0.1,0.7,0.3,0.6,1L70.3,54c-0.1,0.5,0.1,1.1,0.1,1.1h-0.9
			c0,0-0.1-0.5,0-0.9c0,0-0.3,0.2-0.5,0.4c-0.2,0.2-0.3,0.3-0.3,0.3l-0.7-0.1C68,54.7,68.2,54.5,68.6,54.1z M65,50.9l0.8,0l0,1h0.1
			l1.7,0.1l0,0.3c0,0.1,0,0.3-0.1,0.4c-0.3,0.5-0.7,1.3-1,2.1v0l-0.9,0l0,0c0.2-0.8,0.6-1.7,1-2.2l0,0l-1.6-0.1L65,50.9z M60.8,52.3
			c0.7-0.1,1,0.2,1.2,0.9l0.3,1.7l-0.8,0.2l-0.3-1.7c-0.1-0.4-0.3-0.5-0.7-0.4l-1.5,0.3l-0.1-0.6L60.8,52.3z M60.2,55.4l-0.8,0.2
			L59,53.7l0.8-0.2L60.2,55.4z M55.9,53.6c0.2-0.1,0.2-0.1,0.4-0.1c0.5-0.1,1.4,0,1.8,1.1c0.1,0.4,0.1,0.7,0,0.9
			c-0.2,0.4-0.4,0.5-1,0.8l-1.4,0.6l-0.2-0.5l0.8-0.3c0.8-0.3,1.2-0.7,0.9-1.2c-0.3-0.6-0.9-0.6-1.3-0.5l-0.3,0.1l0,0l0.2,0.4
			c0,0.1,0.1,0.1,0.2,0.1l0.4,0l-0.2,0.6l-0.6,0c-0.3,0-0.4-0.2-0.5-0.4l-0.4-0.9L55.9,53.6z M53.6,54.7l1.3,2.6l-0.8,0.4l-1.3-2.6
			L53.6,54.7z M50.1,56.8l1.9,1.7c0-0.1,0.1-0.1,0.1-0.2c0.2-0.3,0.1-0.6-0.1-0.9l-0.9-1.3l0.7-0.5l0.9,1.3c0.4,0.6,0.4,1-0.2,1.7
			c-0.5,0.8-1,1.4-1,1.4l-0.4-0.3c0,0,0.2-0.2,0.4-0.5l-2.1-1.9L50.1,56.8z M46.7,58.3l0.7,0.7l0,0l1.2-1.1l0.2,0.2
			c0.1,0.1,0.2,0.2,0.2,0.4c0.1,0.5,0.4,1.4,0.8,2.2l0,0l-0.6,0.6l0,0c-0.4-0.7-0.7-1.6-0.9-2.3l0,0L47.1,60l-1.1-1.1L46.7,58.3z
			 M44.3,62.5c0.4-0.6,0.9-0.6,1.5-0.2l1.5,1L46.8,64l-1.4-1c-0.4-0.3-0.6-0.2-0.8,0.2l-0.4,0.6l0,0l1.9,1.3l-0.5,0.7l-2.4-1.6
			L44.3,62.5z M43.5,80.2v-0.3h1v1.2h-0.4c0,0,0-0.5,0-0.9C43.8,80.2,43.5,80.2,43.5,80.2z M43.9,80.5c0,0.3,0,0.6,0,0.6h-0.3v-0.6
			H43.9z M42.4,65.2l1.8,0.9l-0.4,0.8L42,65.9L42.4,65.2z M41.2,68.3c0.1-0.2,0.1-0.2,0.2-0.4c0.2-0.5,1-1,2-0.6
			c0.4,0.2,0.6,0.4,0.7,0.6c0.2,0.4,0.1,0.6-0.1,1.2l-0.6,1.4l-0.5-0.2l0.3-0.8c0.3-0.8,0.3-1.3-0.3-1.5c-0.6-0.2-1.1,0.3-1.3,0.7
			L41.5,69l0,0l0.4,0.2c0.1,0,0.1,0,0.2,0l0.3-0.3l0.3,0.5l-0.4,0.5c-0.2,0.2-0.4,0.2-0.6,0.1l-0.9-0.4L41.2,68.3z M40.2,71.4
			c0.1-0.7,0.6-0.8,1.3-0.7l1.7,0.4L43,71.9l-1.7-0.4c-0.4-0.1-0.6,0.1-0.7,0.5l-0.3,1.5l-0.6-0.1L40.2,71.4z M42.7,73.2L42.5,74
			l-1.8-0.4l0.2-0.8L42.7,73.2z M37.8,81.1h-0.6v-0.3c0,0,0.1,0,0.2,0c0-0.2,0.1-0.3,0.1-0.5c0,0-0.3,0-0.6,0l0,0v-0.8h0.4v0.5h0.8
			L37.8,81.1z M38.1,75.8c0-0.1,0.1-0.2,0.2-0.2c0.1,0,0.2,0,0.2,0.1c0,0,0,0,0,0c0,0,0.2,0,0.4,0.1l0,0c0.1-0.1,0.6-0.7,1.6-0.9
			c1.2-0.2,2.4,0.4,2.7,1.8c0.4,1.5-0.5,2.7-1.9,3.2l0,0v0.7l-0.7,0.8L40.2,81l0.4-0.5l0,0c-0.3-0.2-2.1-1.6-2.3-1.8
			c-0.1-0.1-0.1-0.3,0-0.4c0.1-0.1,0.3-0.1,0.4,0c0.1,0.1,0.6,0.6,1.1,1.1l0,0c0.1-0.2,0.6-1.7,0.7-1.9c0,0,0,0,0,0
			c0-0.1-0.3-1-0.3-1.1c0,0-1.4-0.4-1.6-0.4c0,0,0,0,0,0c0,0-0.1,0.1-0.2,0.1C38.2,76,38.1,75.9,38.1,75.8z M42.7,80.2
			c0,0.1,0,0.2,0,0.2h-0.4v-0.6h1.1v1.2h-1.1v-0.3c0,0,0.5,0,0.7,0c0-0.2,0-0.3,0-0.5C42.8,80.2,42.8,80.2,42.7,80.2z M39.5,81.1
			h-1.2v-0.3c0,0,0.2,0,0.4,0l0,0c-0.1-0.1-0.2-0.4-0.2-0.5c-0.1,0-0.2,0-0.2,0v-0.3h0.5l0.3,0.8v0c0-0.1,0-0.3,0-0.4
			c0,0-0.1,0-0.1,0v-0.3h0.5C39.5,79.8,39.5,81.1,39.5,81.1z M40.8,86.4c0,0,1.5-0.5,1.6-0.5c-0.1-0.2-0.5-1.4-0.5-1.6
			c-0.2,0.1-1.6,0.5-1.6,0.5l-0.2-0.7l3.6-1.1l0.1,0l0.2,0.7c0,0-1.3,0.4-1.4,0.4c0.1,0.2,0.5,1.4,0.5,1.6c0.2-0.1,1.4-0.4,1.4-0.4
			l0.2,0.7L41,87L40.8,86.4z M41.7,88.7c-0.1-0.2-0.1-0.3-0.1-0.5c0-0.1,0-0.2,0-0.2c0.1-0.2,0.2-0.4,0.5-0.5
			c0.2-0.1,0.5-0.1,0.7-0.1c0.2,0.1,0.4,0.2,0.6,0.5l0.3,0.5l0.1,0.1c0,0,0,0,0.1,0c0,0,0.1,0,0.1,0l0,0c0.1,0,0.2-0.1,0.2-0.2
			c0-0.1,0-0.2-0.1-0.4c-0.1-0.1-0.2-0.2-0.3-0.3c-0.1,0-0.2,0-0.3,0l-0.1,0l-0.3-0.6l0.1,0c0.3-0.1,0.6-0.1,0.8,0
			c0.2,0.1,0.4,0.3,0.6,0.7c0.2,0.3,0.2,0.6,0.1,0.8c-0.1,0.2-0.2,0.4-0.5,0.6l-1.3,0.6c0,0,0,0,0,0c0,0,0,0,0,0l0,0L43,90l-0.4,0.2
			l-0.1,0l-0.2-0.2L42.3,90c-0.1-0.1-0.1-0.2-0.1-0.3c0-0.1,0-0.1,0-0.2c0,0,0-0.1,0.1-0.1C42.1,89.2,41.8,89,41.7,88.7z M44.4,92.5
			c-0.4,0-0.7-0.2-0.9-0.5c-0.1-0.2-0.2-0.4-0.2-0.6c0,0,0-0.1,0-0.1c-0.3,0.2-1,0.7-1,0.7L42,91.4l3.2-2.1l0.1-0.1l0.3,0.5
			c0,0-0.1,0.1-0.2,0.1c0.2,0.1,0.4,0.2,0.6,0.4c0.1,0.2,0.2,0.4,0.2,0.7c0,0.1,0,0.2,0,0.3c-0.1,0.3-0.3,0.6-0.7,0.8
			C45.1,92.4,44.7,92.5,44.4,92.5z M45.5,94.6c-0.3-0.3-0.4-0.6-0.3-1c0.1-0.4,0.2-0.7,0.6-1c0.3-0.3,0.7-0.4,1.1-0.4
			c0.4,0,0.7,0.2,1,0.5c0.3,0.3,0.4,0.7,0.3,1s-0.2,0.7-0.6,1c-0.3,0.3-0.7,0.4-1.1,0.4C46,95,45.7,94.9,45.5,94.6z M47.7,96.9
			c-0.3-0.3-0.4-0.6-0.4-0.9c0-0.3,0.2-0.7,0.5-1c0.3-0.3,0.7-0.6,1-0.6c0.4,0,0.7,0.1,1,0.3c0.3,0.3,0.4,0.6,0.4,0.9
			c0,0.4-0.2,0.7-0.5,1l-0.2,0.2c0,0-1.3-1.1-1.4-1.3C48,95.8,48,95.9,47.9,96c0,0,0,0,0,0c0,0.2,0.1,0.3,0.2,0.4
			c0.1,0.1,0.2,0.2,0.4,0.2c0.1,0,0.2,0,0.3-0.1l0.1-0.1l0.5,0.4l-0.1,0.1c-0.3,0.2-0.5,0.3-0.8,0.2C48.3,97.3,48,97.2,47.7,96.9z
			 M49.3,98.2l2.3-3l0.1-0.1l0.5,0.4l-2.3,3.1L49.3,98.2z M53.6,100.9c0,0,0.7-1.3,0.8-1.5c-0.2-0.1-1.3-0.7-1.5-0.8
			c-0.1,0.2-0.8,1.5-0.8,1.5l-0.6-0.3l1.8-3.3l0.1-0.1l0.6,0.3c0,0-0.6,1.2-0.7,1.3c0.2,0.1,1.3,0.7,1.5,0.8
			c0.1-0.2,0.7-1.3,0.7-1.3l0.6,0.3l-1.9,3.4L53.6,100.9z M58,100.5l-0.5,1.4c0,0,0,0,0,0c0,0,0,0,0,0l0,0l0.2,0l-0.2,0.4l0,0.1
			l-0.2,0l-0.1,0c-0.2-0.1-0.3-0.2-0.4-0.3c0,0,0-0.1,0-0.1c-0.3,0.1-0.6,0.1-0.9,0c-0.3-0.1-0.5-0.3-0.6-0.5
			c-0.1-0.2-0.1-0.4,0-0.7c0.1-0.2,0.2-0.4,0.5-0.5c0.2-0.1,0.5-0.1,0.7,0l0.6,0.1l0.1,0c0,0,0.1,0,0.1,0c0,0,0,0,0.1-0.1l0,0
			c0-0.1,0-0.2,0-0.3c-0.1-0.1-0.2-0.2-0.3-0.2c-0.1-0.1-0.3-0.1-0.4,0c-0.1,0-0.2,0.1-0.2,0.2l0,0.1l-0.6-0.2l0-0.1
			c0.1-0.3,0.3-0.5,0.6-0.6c0.2-0.1,0.5-0.1,0.9,0.1c0.3,0.1,0.6,0.3,0.7,0.5C58.1,100,58.1,100.2,58,100.5z M58.8,102.8l-0.6-0.2
			l0.7-2.7l0-0.1l0.6,0.2L58.8,102.8z M59,99.6l0.2-0.6l0-0.1l0.7,0.2l-0.2,0.7L59,99.6z M60.7,100.9c0,0.2-0.5,2.2-0.5,2.2
			l-0.7-0.1c0,0,0.4-2,0.5-2.2c-0.1,0-0.4-0.1-0.4-0.1l0.1-0.6c0,0,0.3,0.1,0.4,0.1c0-0.1,0.1-0.3,0.1-0.3c0-0.2,0.2-0.4,0.3-0.5
			s0.4-0.1,0.6-0.1l0.3,0.1l-0.1,0.6l-0.3-0.1c-0.1,0-0.1,0-0.1,0c0,0-0.1,0.1-0.1,0.2c0,0,0,0.1,0,0.2c0.1,0,0.4,0.1,0.4,0.1
			l-0.1,0.6C61.2,101,60.9,100.9,60.7,100.9z M63.9,103.6l-0.2,0h-0.1c-0.2,0-0.3-0.1-0.4-0.2c0,0,0-0.1-0.1-0.1
			c-0.3,0.2-0.6,0.3-0.9,0.2c-0.3,0-0.5-0.1-0.7-0.3c-0.2-0.2-0.2-0.4-0.2-0.7c0-0.3,0.1-0.5,0.3-0.6c0.2-0.1,0.4-0.2,0.7-0.2l0.6,0
			l0.1,0c0,0,0.1,0,0.1,0c0,0,0-0.1,0-0.1v0c0-0.1,0-0.2-0.1-0.3c-0.1-0.1-0.2-0.1-0.4-0.1c-0.2,0-0.3,0-0.4,0.1
			c-0.1,0.1-0.1,0.2-0.2,0.3l0,0.1l-0.6-0.1l0-0.1c0.1-0.3,0.2-0.6,0.4-0.7c0.2-0.1,0.5-0.2,0.9-0.2c0.3,0,0.6,0.1,0.8,0.3
			c0.1,0.2,0.2,0.3,0.2,0.6c0,0,0,0.1,0,0.1l-0.2,1.5v0c0,0,0,0,0,0s0,0,0,0h0l0.2,0L63.9,103.6L63.9,103.6z M45.5,77.7
			c0-10.9,8.8-19.7,19.7-19.7C76.1,58,85,66.8,85,77.7s-8.8,19.7-19.7,19.7C54.3,97.5,45.5,88.6,45.5,77.7z M66.1,101.3
			c0.2,0,1.8-0.1,1.8-0.1l0,0.7c0,0-1.6,0.1-1.8,0.1c0,0.2,0.1,1.7,0.1,1.7l-0.7,0l-0.2-3.9l2.6-0.2l0.1,0l0,0.7c0,0-1.8,0.1-2,0.1
			C66.1,100.6,66.1,101.2,66.1,101.3z M70.9,102.7c-0.2,0.3-0.5,0.5-0.9,0.6s-0.7,0-1-0.2c-0.3-0.2-0.5-0.6-0.6-1s0-0.8,0.2-1.1
			c0.2-0.3,0.5-0.5,0.9-0.6c0.4-0.1,0.7,0,1,0.2c0.3,0.2,0.5,0.6,0.6,1C71.2,102,71.1,102.3,70.9,102.7z M74.1,101.7
			c-0.1,0.3-0.4,0.6-0.8,0.7c-0.4,0.1-0.7,0.1-1.1-0.1c-0.3-0.2-0.6-0.5-0.7-0.9c-0.1-0.4-0.1-0.8,0-1.1c0.1-0.3,0.4-0.6,0.8-0.7
			c0.4-0.1,0.7-0.1,1.1,0.1c0.3,0.2,0.6,0.5,0.7,0.9C74.3,101,74.3,101.4,74.1,101.7z M76,101.3c-0.2,0.1-0.4,0.1-0.5,0.1
			c-0.1-0.1-0.2-0.2-0.3-0.4c0,0-0.6-1.3-0.7-1.5c-0.1,0-0.3,0.1-0.3,0.1l-0.2-0.5c0,0,0.2-0.1,0.3-0.1c-0.1-0.1-0.3-0.7-0.3-0.7
			l0.5-0.2l0.1,0c0,0,0.2,0.5,0.3,0.7c0.1,0,0.4-0.2,0.4-0.2l0.2,0.5c0,0-0.3,0.1-0.4,0.2c0.1,0.2,0.7,1.5,0.7,1.5c0,0,0,0,0,0
			c0,0,0.1,0,0.1,0l0.2-0.1l0.2,0.4l0,0.1L76,101.3z M78.8,99.4c-0.1,0.4-0.3,0.6-0.6,0.8c-0.2,0.1-0.5,0.2-0.7,0.1
			c0,0,0.1,0.2,0.1,0.2l-0.6,0.3l-1.9-3.4l0.3-0.2l0.2-0.1l0.1-0.1c0,0,0.4,0.7,0.6,1c0.1-0.2,0.2-0.4,0.4-0.5
			c0.3-0.2,0.7-0.2,1-0.1c0.3,0.1,0.6,0.4,0.8,0.7C78.7,98.7,78.8,99.1,78.8,99.4z M81.9,97.7l-0.1,0.1c-0.2,0.1-0.3,0.2-0.5,0.1
			c0,0-0.1,0-0.1-0.1c-0.1,0.3-0.2,0.6-0.5,0.8c-0.2,0.2-0.5,0.2-0.7,0.2c-0.2,0-0.4-0.1-0.6-0.3c-0.2-0.2-0.2-0.4-0.2-0.7
			c0-0.2,0.2-0.4,0.4-0.7l0.4-0.4l0.1-0.1c0,0,0-0.1,0-0.1s0-0.1,0-0.1l0,0c-0.1-0.1-0.1-0.1-0.2-0.1c-0.1,0-0.2,0.1-0.4,0.2
			c-0.1,0.1-0.2,0.2-0.2,0.3c0,0.1,0,0.2,0.1,0.3l0,0.1l-0.5,0.4l-0.1-0.1c-0.1-0.2-0.2-0.4-0.2-0.6c0-0.1,0-0.1,0-0.2
			c0.1-0.2,0.2-0.5,0.5-0.7c0.3-0.2,0.5-0.3,0.8-0.3c0.2,0,0.5,0.1,0.7,0.4l0.9,1.2c0,0,0,0,0,0c0,0,0,0,0,0l0,0l0.1-0.2l0.3,0.4
			l0.1,0.1C82,97.5,81.9,97.7,81.9,97.7z M82.5,97l-2.6-2.8l0.4-0.4l0.1-0.1l2.6,2.8L82.5,97z M83.6,96l-2.8-2.7l0.4-0.4l0.1-0.1
			l2.8,2.7L83.6,96z M86.4,92.8c-0.3,0.4-0.7,0.7-1.2,0.7c-0.5,0-1-0.1-1.5-0.5s-0.8-0.8-0.9-1.3c-0.1-0.5,0-1,0.3-1.4
			c0.3-0.4,0.6-0.6,0.9-0.7s0.7-0.1,1.1,0.1l0.1,0.1l-0.4,0.6l-0.1,0c-0.2-0.1-0.4-0.1-0.6,0c-0.2,0.1-0.4,0.2-0.5,0.4
			c-0.2,0.3-0.2,0.6-0.2,0.9c0.1,0.3,0.3,0.6,0.7,0.8c0.4,0.3,0.7,0.4,1,0.4s0.5-0.2,0.7-0.4c0.1-0.2,0.2-0.4,0.2-0.7
			c0-0.2-0.2-0.5-0.4-0.7L85.7,91l0.4-0.6l0.1,0.1c0.3,0.3,0.6,0.7,0.6,1.1C86.8,92,86.7,92.4,86.4,92.8z M87.7,90.6l-3.4-1.9
			l0.2-0.3l0,0l0.1-0.2l0.1-0.1L88,90L87.7,90.6z M89.2,87.6c0,0-0.2-0.1-0.2-0.1c0,0.1,0.1,0.2,0.1,0.4c0,0.1,0,0.3-0.1,0.4
			c-0.1,0.3-0.3,0.5-0.5,0.6c-0.2,0.1-0.5,0.1-0.8-0.1L85.9,88l0.3-0.6l1.7,0.7c0.2,0.1,0.3,0.1,0.4,0.1c0.1,0,0.2-0.1,0.2-0.3
			c0.1-0.2,0.1-0.3,0-0.5c-0.1-0.2-0.3-0.3-0.5-0.4l-1.4-0.6l0.2-0.5l0-0.1l2.6,1.1L89.2,87.6z M90.2,84.9c-0.1,0.2-0.2,0.4-0.4,0.6
			c0,0,0.2,0,0.2,0l-0.2,0.6L86.1,85l0.2-0.6c0,0,0.8,0.2,1.1,0.3c-0.1-0.1-0.1-0.3-0.1-0.4c0-0.1,0-0.2,0-0.3
			c0.1-0.4,0.3-0.6,0.6-0.8c0.3-0.1,0.7-0.1,1.1,0c0.5,0.1,0.8,0.3,1,0.6c0.1,0.2,0.2,0.4,0.2,0.7C90.3,84.6,90.2,84.8,90.2,84.9z
			 M89.6,81.6c-1.7,0-3.2-1.4-3.2-3.2c0-1.7,1.4-3.2,3.2-3.2c1.7,0,3.2,1.4,3.2,3.2C92.8,80.1,91.4,81.6,89.6,81.6z"/>
		<path class="st0" d="M88.9,83.9c-0.3-0.1-0.5-0.1-0.7,0c-0.2,0.1-0.3,0.2-0.3,0.4c-0.1,0.2,0,0.4,0.1,0.5c0.1,0.1,0.4,0.3,0.7,0.4
			c0.2,0.1,0.4,0.1,0.6,0c0.2-0.1,0.2-0.2,0.3-0.4c0.1-0.2,0-0.3-0.1-0.5C89.4,84.1,89.2,84,88.9,83.9z"/>
	</g>
	<path class="st4" d="M111.2,78.4c0.3,0.4,0.5,0.9,0.8,1.3c-0.4,0-0.7-0.1-0.8-0.3C110.9,79.2,110.9,78.8,111.2,78.4z"/>
	<path class="st4" d="M124.4,122.1c-0.4,2-2,3.2-3.7,4.1c0,0-0.1-0.1-0.1-0.2c-0.3-0.7,0.1-1.3,1.1-2.1
		C122.5,123.3,123.5,122.6,124.4,122.1z"/>
	<path class="st0" d="M58.1,108.3c-0.4-0.2-0.8-0.4-2.5-0.1c0.9,0.3,1.9,0.5,2.8,0.8C58.5,108.7,58.4,108.4,58.1,108.3z"/>
</g>
</svg>
