<?xml version="1.0" encoding="utf-8"?>
<!-- Generator: Adobe Illustrator 24.2.3, SVG Export Plug-In . SVG Version: 6.00 Build 0)  -->
<svg version="1.1" id="Layer_1" xmlns="http://www.w3.org/2000/svg" xmlns:xlink="http://www.w3.org/1999/xlink" x="0px" y="0px"
	 viewBox="0 0 156.8 167.7" style="enable-background:new 0 0 156.8 167.7;" xml:space="preserve">
<style type="text/css">
	.st0{fill:#FFFFFF;}
	.st1{fill-rule:evenodd;clip-rule:evenodd;fill:#FFFFFF;}
	.st2{fill-rule:evenodd;clip-rule:evenodd;fill:#493C3B;}
	.st3{fill:#D6D6D6;}
	.st4{fill:#606060;}
</style>
<g>
	<g>
		<polygon class="st1" points="50.4,115.1 54.5,120.1 54.5,124.8 51.6,127.1 51.8,121.1 50,119 44.6,123.4 42,120.3 44.1,118.5 
			45,119.6 		"/>
		<polygon class="st1" points="61.2,133.7 62,133.7 62,135.7 54.7,135.7 54.7,133.7 59.3,133.7 59.3,130.5 54.7,130.5 54.7,128.7 
			61.2,128.7 		"/>
		<rect x="63.2" y="128.7" class="st1" width="1.9" height="3"/>
		<polygon class="st1" points="67.3,115.8 66.1,119.5 59.3,122.1 58.2,119.5 59.6,119 57,112.2 59.6,111.2 62.2,118 63.9,117.3 
			64.3,115.9 62.1,110.1 64.7,109.1 		"/>
		<polygon class="st1" points="73,133.7 73.7,133.7 73.7,135.7 66.2,135.7 66.2,133.7 71,133.7 71,130.5 66.2,130.5 66.2,128.7 
			73,128.7 		"/>
		<polygon class="st1" points="79.9,133 81.8,135.7 79.4,135.7 77.5,132.9 76.6,133.7 76.6,135.7 74.6,135.7 74.6,132.7 76.3,131.3 
			74.5,128.7 76.9,128.7 78.8,131.5 79.6,130.8 79.6,128.7 81.6,128.7 81.6,131.5 		"/>
		<rect x="82.9" y="131" class="st1" width="3" height="1.1"/>
		<polygon class="st1" points="89.3,128.7 94,128.7 94,133.1 91.9,135.7 89.4,135.7 92.1,132.5 92.1,130.6 87.3,130.6 87.3,127.8 
			89.3,127.8 		"/>
		<polygon class="st1" points="96.4,122 86.4,119.7 87.1,116.8 94.2,118.5 95.3,114.1 92.2,113.4 91.7,115.7 88.9,115 89.4,112.7 
			88.2,112.5 88.8,109.8 98.7,112.1 		"/>
		<polygon class="st1" points="96.3,128.7 103.1,128.7 103.1,135.7 101.1,135.7 101.1,130.6 98.3,130.6 98.3,135.7 95.1,135.7 
			95.1,133.7 96.3,133.7 		"/>
		
			<rect x="99.2" y="120.3" transform="matrix(0.5482 -0.8364 0.8364 0.5482 -55.8759 139.9322)" class="st1" width="4.8" height="2.8"/>
		<polygon class="st1" points="104.7,114.4 113,119.8 107.4,128.3 104.9,126.7 108.9,120.6 103.1,116.8 		"/>
		<polygon id="polyline10_1_" class="st0" points="23.8,98.4 24.3,96.2 26.7,96.8 27.3,94.4 24.9,93.9 25.4,91.7 32.3,93.3 
			31.8,95.5 29,94.8 28.4,97.2 31.2,97.8 30.7,100 		"/>
		<path id="path12_1_" class="st0" d="M28.5,84.4l-1,2.2l5.3,5.4l0.9-2l-0.9-0.8l1-2.3l1.2,0.2l1-2.1L28.5,84.4z M31.7,88l-2-1.8
			l2.6,0.4L31.7,88z"/>
		<path id="path14_1_" class="st0" d="M35.9,80.4l0.7-1c0.5-0.7,0.7-1.4,0.6-2c-0.1-0.6-0.4-1.1-1-1.5c-0.6-0.4-1.1-0.5-1.7-0.4
			c-0.5,0.1-1,0.5-1.5,1.1l-2.1,3l5.9,4l1.2-1.8L35.9,80.4z M35,79.1l-0.3,0.4l-1.3-0.9l0.4-0.5c0.2-0.3,0.4-0.5,0.7-0.6
			c0.2,0,0.4,0,0.6,0.1c0.2,0.1,0.3,0.3,0.3,0.5C35.4,78.5,35.3,78.8,35,79.1z"/>
		<path id="path16_1_" class="st0" d="M45.1,71.3c-0.2-0.6-0.6-1.1-1.2-1.7c-0.8-0.8-1.7-1.2-2.6-1.2c-0.9,0-1.8,0.4-2.6,1.3
			c-0.8,0.8-1.2,1.7-1.2,2.6c0,0.9,0.4,1.8,1.3,2.6c0.6,0.6,1.2,0.9,1.8,1.1c0.6,0.1,1.2,0.1,1.8-0.1c0.5-0.2,1.1-0.6,1.7-1.2
			c0.6-0.6,0.9-1.1,1.1-1.7C45.3,72.5,45.2,71.9,45.1,71.3z M42.8,73.7c-0.3,0.3-0.7,0.5-1.1,0.5c-0.4,0-0.9-0.3-1.4-0.8
			c-0.5-0.5-0.8-1-0.8-1.4c0-0.4,0.1-0.8,0.4-1.1c0.3-0.3,0.7-0.5,1.1-0.5c0.4,0,0.9,0.3,1.3,0.7c0.6,0.6,0.9,1,0.9,1.4
			C43.3,73,43.2,73.3,42.8,73.7z"/>
		<polygon id="polyline18_1_" class="st0" points="43.9,65.1 48.7,61.7 49.6,63 46.6,65.1 47.2,66 50,64 50.8,65.2 48,67.2 
			48.8,68.3 51.9,66.1 52.9,67.5 48,70.9 		"/>
		<polygon id="polyline20_1_" class="st0" points="51.4,60.1 53.4,59.1 55.7,63.9 58.8,62.4 59.6,64 54.5,66.4 		"/>
		<polygon id="polyline22_1_" class="st0" points="62.7,55.3 69.2,53.8 69.6,55.5 67.4,56 68.6,61.2 66.5,61.7 65.3,56.5 63.1,57 		
			"/>
		<polygon id="polyline24_1_" class="st0" points="71.8,53.4 77.7,53 77.8,54.5 74.1,54.7 74.2,55.9 77.6,55.6 77.7,57.1 74.3,57.3 
			74.4,58.7 78.2,58.4 78.3,60 72.3,60.5 		"/>
		<polygon id="polyline26_1_" class="st0" points="80.7,53.1 82.9,53.3 82.6,58.6 86,58.9 85.9,60.6 80.3,60.2 		"/>
		<polygon id="polyline28_1_" class="st0" points="87.5,57.6 90.3,58.2 90,59.7 87.2,59.1 		"/>
		<path id="path30_1_" class="st0" d="M97.9,64.1l-0.2-7.6l-2.3-0.8l-4.9,5.8l2.1,0.7l0.7-1l2.4,0.8l-0.1,1.2L97.9,64.1z M94.4,60
			l1.6-2.2l-0.1,2.7L94.4,60z"/>
		<polygon id="polyline32_1_" class="st0" points="101.5,57.9 103.5,59 102.5,64.2 106.3,60.5 108.3,61.6 102.5,66.5 100.4,65.4 		
			"/>
		<polygon id="polyline34_1_" class="st0" points="110.3,63 112,64.4 107.7,70 106,68.7 		"/>
		<polygon id="polyline36_1_" class="st0" points="113.9,65.8 115.6,67.4 113.1,72.1 117.8,69.6 119.4,71.2 112.5,74.4 110.8,72.7 
					"/>
		<polygon id="polyline38_1_" class="st0" points="123.6,76.7 126.4,81.3 125.1,82.1 123.4,79.3 122.4,80 123.8,82.3 122.6,83.1 
			121.1,80.7 118.7,82.2 117.5,80.4 		"/>
		<polygon id="polyline40_1_" class="st0" points="122.5,84.6 123.3,86.5 121.5,87.3 120.6,85.4 		"/>
		<path id="path42_1_" class="st0" d="M126.7,92.6l0,2c-0.6,0-1,0-1.5-0.2c-0.4-0.2-0.8-0.4-1.1-0.7s-0.6-0.8-0.7-1.4
			c-0.2-0.7-0.3-1.4-0.3-1.9s0.3-1.1,0.7-1.6c0.4-0.5,1.1-0.9,1.9-1.2c1.1-0.4,2.1-0.3,2.9,0.1c0.8,0.4,1.4,1.1,1.7,2.2
			c0.3,0.9,0.3,1.6,0.1,2.2c-0.2,0.6-0.6,1.1-1.2,1.6l-1-1.7c0.2-0.1,0.3-0.2,0.4-0.4c0.1-0.2,0.2-0.4,0.2-0.6c0-0.2,0-0.4-0.1-0.6
			c-0.2-0.5-0.5-0.8-0.9-0.9c-0.3-0.1-0.8-0.1-1.4,0.1c-0.7,0.2-1.2,0.5-1.4,0.8c-0.2,0.3-0.2,0.7-0.1,1.1c0.1,0.4,0.3,0.7,0.6,0.8
			C125.9,92.6,126.2,92.6,126.7,92.6L126.7,92.6z"/>
		<polygon id="polyline44_1_" class="st0" points="126.6,96.5 127.1,98.5 125.2,99 124.7,97 		"/>
		<g>
			<path class="st1" d="M78.4,48.2c-33,0-59.8,26.8-59.8,59.8s26.8,59.8,59.8,59.8s59.8-26.8,59.8-59.8
				C138.2,75,111.4,48.2,78.4,48.2z M69.9,164.3H68l0,0v-5.5l-1.4,0.1l0-1.1c0.9-0.3,1.4-0.7,2.1-1.3h1.2V164.3z M75.6,164.3
				c-1.1,0-2.3-0.5-2.3-1.9v0l1.6,0c0.1,0.7,0.5,0.8,0.8,0.8c0.5,0,0.8-0.6,0.8-1.3c0-0.3,0-0.7,0-0.9c-0.2,0.2-0.6,0.4-1.3,0.4
				c-1,0.1-2.2-0.7-2.2-2.2c0-1.7,1.2-2.6,2.6-2.6c2.2,0,2.7,1.7,2.7,3.6C78.3,162,77.9,164.4,75.6,164.3z M85.2,164.3h-5.5l0,0
				l0.1-0.7c0.2-0.2,1.1-1.1,1.8-2.1c0.8-0.9,1.4-1.8,1.6-2.5c0.1-0.5,0-1.2-0.7-1.2c-0.6,0-0.6,0.5-0.7,1.1l-1.8-0.1
				c0-1.5,1-2.3,2.5-2.3c1.3,0,2.4,0.9,2.4,2.2c0,1.9-1.8,3.3-2.6,4h2.9V164.3z M92.2,157.3l-2.5,7h-2l2.6-6.1h-3.3l0-1.5h5.3
				L92.2,157.3L92.2,157.3z M78.4,153.2c-25,0-45.3-20.3-45.3-45.3s20.3-45.3,45.3-45.3S123.7,83,123.7,108S103.4,153.2,78.4,153.2z
				 M78.4,61.6c-24.8,0-45.1,19.5-46.3,44.1H19.8c1.2-31.3,27-56.4,58.6-56.4c31.6,0,57.4,25,58.6,56.4h-12.3
				C123.5,81.1,103.2,61.6,78.4,61.6z"/>
			<path class="st1" d="M75.6,157.7c-0.8,0-0.9,0.7-0.9,1.3c0,0.6,0.2,1.3,0.9,1.3c0.7,0,0.9-0.7,0.9-1.3S76.4,157.7,75.6,157.7z"/>
		</g>
		<polygon class="st0" points="54.5,120.1 54.5,124.8 51.6,127.1 51.8,121.1 50,119 44.6,123.4 42,120.3 44.1,118.5 45,119.6 
			50.4,115.1 		"/>
		<path id="path58_1_" class="st0" d="M101.7,118.9l-2.7,4.1l2.3,1.5l2.7-4L101.7,118.9z M104.7,114.4l-1.6,2.4l5.8,3.8l-4,6.1
			l2.5,1.6l5.5-8.5L104.7,114.4z"/>
		<polygon class="st0" points="98.7,112.1 96.4,122 86.4,119.7 87.1,116.8 94.2,118.5 95.3,114.1 92.2,113.4 91.7,115.7 88.9,115 
			89.4,112.7 88.2,112.5 88.8,109.8 		"/>
		<polygon class="st0" points="81.8,135.7 79.4,135.7 77.5,132.9 76.6,133.7 76.6,135.7 74.6,135.7 74.6,132.7 76.3,131.3 
			74.5,128.7 76.9,128.7 78.8,131.5 79.6,130.8 79.6,128.7 81.6,128.7 81.6,131.5 79.9,133 		"/>
		<polygon class="st0" points="73.7,133.7 73.7,135.7 66.2,135.7 66.2,133.7 71,133.7 71,130.5 66.2,130.5 66.2,128.7 73,128.7 
			73,133.7 		"/>
		<rect x="63.2" y="128.7" class="st0" width="1.9" height="3"/>
		<polygon class="st0" points="62,133.7 62,135.7 54.7,135.7 54.7,133.7 59.3,133.7 59.3,130.5 54.7,130.5 54.7,128.7 61.2,128.7 
			61.2,133.7 		"/>
		<polygon class="st0" points="103.1,128.7 103.1,135.7 101.1,135.7 101.1,130.6 98.3,130.6 98.3,135.7 95.1,135.7 95.1,133.7 
			96.3,133.7 96.3,128.7 		"/>
		<polygon class="st0" points="94,128.7 94,133.1 91.9,135.7 89.4,135.7 92.1,132.5 92.1,130.6 87.3,130.6 87.3,127.8 89.3,127.8 
			89.3,128.7 		"/>
		<rect x="82.9" y="131" class="st0" width="3" height="1.1"/>
		<path class="st1" d="M100,85.3c-2.5-16.6-24-21.7-36.2-8.7l-3.7-0.5c-5.7-2.3-4.2,5.2,0.4,1.6l13.5,3.9l2.3,9l-5.6,15.9l-9.2-9.2
			c-1.8-2-5.5,1.1-3,3.2l19.1,15l-3.3,3.9l3.7,3.4l5.5-6.1l0-6.1C94.6,106.5,101.6,99.1,100,85.3z M82.9,109.1l-4.3,5.2l-7-6.9
			l7.4-12.1l5.4,13.2L82.9,109.1z M85.6,107.7L82,90.3L79.8,90l1.8-1.9l2-4.7l10-0.9l-8-6.9c0.2-2-1.9-2.4-2.8-1.5
			c-1.1,0.9-0.3,3.2,1.5,2.5l3.2,3.8l-6.9-1.1l-1.1-1.7c0.5-0.8,0.2-4.2-0.2-4.2c-1.2-0.7-2.6-0.8-4-0.7c-0.5,0.4-0.7,0.9-0.7,1.5
			l0.7,0.1l0.3,2.9c0.5,0.3,1,0.5,1.4,0.4l0.5,1.4l-11.9-2.1c9.6-8.8,26.1-6.3,29.8,8.4C98,97.5,92.4,105.4,85.6,107.7z"/>
		<rect id="rect82_1_" x="76.9" y="101.2" class="st0" width="3" height="10.3"/>
		<polygon class="st0" points="67.3,115.8 66.1,119.5 59.3,122.1 58.2,119.5 59.6,119 57,112.2 59.6,111.2 62.2,118 63.9,117.3 
			64.3,115.9 62.1,110.1 64.7,109.1 		"/>
	</g>
	<g>
		<polygon class="st0" points="64.7,23.2 74.1,16.4 62.5,16.4 59,5.4 55.4,16.4 43.8,16.4 53.2,23.2 49.6,34.2 59,27.4 68.3,34.2 
			67.9,33.1 		"/>
		<polygon class="st0" points="103.7,23.2 113,16.4 101.5,16.4 97.9,5.4 94.3,16.4 82.7,16.4 92.1,23.2 88.5,34.2 97.9,27.4 
			107.2,34.2 106.9,33.1 		"/>
	</g>
</g>
</svg>
