<?xml version="1.0" encoding="utf-8"?>
<!-- Generator: Adobe Illustrator 24.2.3, SVG Export Plug-In . SVG Version: 6.00 Build 0)  -->
<svg version="1.1" id="Layer_1" xmlns="http://www.w3.org/2000/svg" xmlns:xlink="http://www.w3.org/1999/xlink" x="0px" y="0px"
	 viewBox="0 0 156.8 167.7" style="enable-background:new 0 0 156.8 167.7;" xml:space="preserve">
<style type="text/css">
	.st0{fill:#FFFFFF;}
	.st1{fill-rule:evenodd;clip-rule:evenodd;fill:#FFFFFF;}
	.st2{fill-rule:evenodd;clip-rule:evenodd;fill:#493C3B;}
	.st3{fill:#D6D6D6;}
	.st4{fill:#606060;}
</style>
<g>
	<g>
		<path class="st0" d="M29.7,87.5c-1.4-0.5-2.9,0.1-3.4,1.5s0.3,2.8,1.6,3.3c1.4,0.5,2.9-0.2,3.4-1.5S31.1,88,29.7,87.5"/>
		<path class="st0" d="M35.9,74.3c-0.7-0.6-1.2-0.2-1.7,0.4l-0.1,0.2l1.7,1.4l0.1-0.2C36.4,75.5,36.6,74.9,35.9,74.3"/>
		<polygon class="st0" points="72.3,56.5 70.8,54 70.1,56.8 		"/>
		<path class="st0" d="M44.2,64.5L44,64.7l1.5,1.9l0.2-0.2c0.6-0.5,1.2-1.2,0.6-2C45.7,63.6,44.8,64.1,44.2,64.5"/>
		<path class="st0" d="M38.5,75.7c-0.7-0.6-1.4,0-1.9,0.6l-0.3,0.4l1.8,1.4l0.4-0.5C39,77,39.3,76.3,38.5,75.7"/>
		<path class="st0" d="M132.8,107.9l-4.4,0.3l-0.1-1.1l4.2-0.2c0.9-0.1,1.3-0.5,1.2-1.4l-0.2-3.5l0.7,0l0.2,3.8
			C134.7,107.1,134.1,107.8,132.8,107.9 M128.1,102.4l3.4-0.2l0.4,1.1l-3.7,0.2L128.1,102.4z M126.9,95.9l0.7-0.1l0.5,2.4
			c0.3,1.4,1.2,2,2.6,1.7l0.3-0.1c0.9-0.2,1.5-0.5,1.8-1c0.3-0.4,0.3-0.9,0.2-1.5c-0.1-0.5-0.3-0.9-0.5-1.2
			c-0.3-0.3-0.8-0.4-1.5-0.3c-0.3,0.1-0.5,0.1-0.7,0.2l-0.6-0.8c0.2-0.2,0.6-0.3,1.1-0.4c0.7-0.1,1.3,0,1.8,0.4
			c0.5,0.4,0.9,1.1,1.1,2c0.2,0.9,0.1,1.6-0.2,2.2c-0.4,0.7-1.1,1.1-2.2,1.4l-0.2,0c-0.9,0.2-1.7,0-2.4-0.4
			c-0.6-0.5-1.1-1.2-1.3-2.2L126.9,95.9z M126.1,93.5l6-1.8l0.3,1l-6,1.8L126.1,93.5z M125.3,89.6c-0.4-0.4-0.8-0.8-1.2-1.3
			c-0.4-0.5-0.8-1-1.2-1.5l0.7-0.3c0.1,0.2,0.3,0.4,0.5,0.6c0.2,0.2,0.4,0.5,0.7,0.8l0.2,0.2l4.6-3.6l0.4,1.1l-4.4,3.3l0.1,0.1
			c0.4,0.4,0.7,0.7,1,0.8c0.4,0.2,0.7,0.3,1.1,0.3l0,0c0.4,0,0.8-0.1,1.5-0.4l2.1-0.8l0.4,1l-1.5,0.6c-1.1,0.5-2.1,0.6-2.9,0.4
			C126.6,90.7,125.9,90.3,125.3,89.6 M121.4,82.8l0.6-0.4c0.6,0.6,1.2,1,1.9,1.2c0.6,0.2,1.3,0.1,1.9-0.3l1.8-1l-2-3.6l2.6-1.4
			l0.5,0.9l-2,1.1l2,3.6l-1.9,1.1c-0.9,0.5-1.8,0.7-2.7,0.5C123.1,84.2,122.2,83.6,121.4,82.8 M119.3,79.4l-3.7-4.6l0.6-0.5l2.5,3.2
			l2.6-2.1c0.4-0.3,0.6-0.6,0.6-0.9c0-0.3-0.1-0.7-0.4-1l-1.6-2l0.6-0.5l1.7,2.1c0.2,0.3,0.4,0.6,0.5,0.9c0.1,0.3,0.2,0.5,0.1,0.8
			c0,0.2-0.1,0.5-0.3,0.7c-0.2,0.2-0.4,0.5-0.7,0.7l-2.7,2.2l0.5,0.6L119.3,79.4z M115.5,71.2c-0.1,0.8-0.2,1.9-0.3,3.2l-0.9-0.8
			l0.5-4.9l-0.1,0c-0.7-0.2-1.2-0.1-1.5,0.2l-1.8,1.9l-0.8-0.7l1.5-1.6c0.3-0.4,0.6-0.6,1-0.6c0.4-0.1,0.9,0,1.6,0.2l0.1,0l0.1-2.7
			l0.9,0.9c0,0.9-0.1,2.3-0.2,4.1l0,0.1l0.1,0c0.4,0.1,0.7,0.2,0.9,0.1c0.2,0,0.5-0.2,0.7-0.5l1.3-1.3l0.8,0.7l-1.1,1.2
			c-0.3,0.3-0.6,0.5-1,0.5c-0.4,0.1-0.9,0-1.6-0.2l-0.1,0L115.5,71.2z M108.8,68.7l2.4-3.2c0.6-0.8,0.5-1.6-0.3-2.2l-1.8-1.4
			l0.4-0.6l1.9,1.4c0.7,0.5,1,1,1.2,1.4c0.1,0.5,0,1.2-0.5,1.8l-2.4,3.3L108.8,68.7z M107.2,63.7l-2-1.2l0.4-0.6l2,1.2L107.2,63.7z
			 M103.1,62.4c-0.6,0.4-1.3,0.6-2.2,0.6h-0.1c-1.1,0-2.5-0.4-4.2-1.1l2.2-6.1l1,0.5l-2,5.3l0.1,0c1.2,0.4,2.1,0.6,2.9,0.7
			c0.7,0,1.3-0.1,1.8-0.5c0.4-0.3,0.8-0.8,1.2-1.6l0.8-1.8l1,0.4l-0.7,1.6C104.2,61.3,103.7,62,103.1,62.4 M96,57.1l-1,3.3l0.8,0.2
			l-0.2,0.7l-5.7-1.7l0.2-0.7l3.9,1.2l1-3.3c0.3-0.9,0-1.5-0.9-1.7l-2.4-0.7l0.2-0.7l2.6,0.8c0.4,0.1,0.7,0.3,0.9,0.4
			c0.2,0.2,0.4,0.3,0.5,0.5c0.1,0.2,0.2,0.5,0.2,0.7C96.2,56.4,96.1,56.7,96,57.1 M86.7,58.6c-0.5,0.1-1.1,0.3-1.7,0.4
			c-0.6,0.1-1.2,0.2-1.9,0.2l0.1-0.8c0.2,0,0.4-0.1,0.7-0.1c0.3-0.1,0.8-0.1,1.2-0.2l0.1,0l-0.7-5.8l1.1,0.2l0.5,5.4l0.1,0
			c0.5-0.1,0.9-0.3,1.2-0.4c0.4-0.2,0.7-0.5,0.8-0.8c0.2-0.3,0.3-0.8,0.4-1.5l0.4-2.2l1.1,0.2L90,54.9c-0.2,1.2-0.6,2.1-1.2,2.7
			C88.4,58,87.6,58.4,86.7,58.6 M101.6,57.1l0.9,0.4l-1.5,3.3l-1.1-0.1L101.6,57.1z M73.7,58.7l-0.9-1.5l-2.9,0.4l-0.5,1.7l-0.8,0.1
			l2-7.3l4,6.4L73.7,58.7z M67.1,60.2l-4.3-6.2l0.8-0.2l3,4.3l0.7-5.2l0.8-0.2L67.1,60.2z M61.1,61.7l-2.1-6.3l3.2-1.1l0.2,0.7
			l-2.5,0.8l0.6,1.8l2.4-0.8l0.2,0.7l-2.4,0.8l0.8,2.4l2.5-0.8l0.2,0.7L61.1,61.7z M59.5,62.3l-1.3-2.9l-2.7,1.2l1.3,2.9L56,63.9
			l-2.7-6.1l0.7-0.3l1.1,2.4l2.7-1.2l-1.1-2.4l0.7-0.3l2.7,6.1L59.5,62.3z M53.8,65.3c-0.9,0.5-2,0.2-2.6-0.6l0.6-0.5
			c0.4,0.6,1.1,0.8,1.7,0.5c0.6-0.3,0.7-1.1,0.4-1.7c-0.4-0.6-1-0.6-1.6-0.5l-0.5,0.1c-0.8,0.1-1.6,0-2-0.8
			c-0.5-0.9-0.1-1.9,0.8-2.4c0.6-0.4,1.3-0.3,1.9,0.1l-0.3,0.7c-0.4-0.2-0.8-0.3-1.2,0c-0.4,0.3-0.7,0.8-0.4,1.3
			c0.3,0.5,0.8,0.4,1.2,0.4l0.5-0.1c1-0.1,1.8,0,2.4,0.9C55.1,63.5,54.8,64.7,53.8,65.3 M49,65.4l-0.4-0.6l1.5-1l0.4,0.6L49,65.4z
			 M49.4,68l-3.2-1.1l-0.3,0.2l1.7,2.2L47,69.8l-4-5.3l0.8-0.6c0.5-0.3,0.9-0.7,1.5-0.8c0.6-0.1,1.2,0.2,1.6,0.7
			c0.6,0.8,0.6,1.8-0.1,2.4l3.4,1.1L49.4,68z M43.9,72.7l-4.5-4.9l2.5-2.3l0.5,0.6l-1.9,1.8l1.3,1.4l1.9-1.7l0.5,0.6l-1.9,1.7
			l1.7,1.9l1.9-1.8l0.5,0.6L43.9,72.7z M40.9,75.7l-4.9-4.5l2.3-2.5l0.6,0.5l-1.8,1.9l1.4,1.3l1.7-1.9l0.6,0.5l-1.7,1.9l1.8,1.7
			l1.8-1.9l0.6,0.5L40.9,75.7z M39.1,78l-0.9,1.2L33,75.1l0.5-0.6c0.7-0.9,1.7-1.6,2.9-0.7c0.4,0.3,0.7,0.8,0.6,1.3l0,0
			c0.6-0.5,1.5-0.5,2.1,0C40.1,75.9,39.8,77.1,39.1,78 M35.4,83.7l-5.7-3.4l0.4-0.7l5.1,3l1-1.7l0.6,0.4L35.4,83.7z M33.4,87.4
			l-5.9-3l1.5-3.1l0.7,0.3l-1.2,2.4l1.7,0.8l1.1-2.3L32,83l-1.1,2.3l2.2,1.1l1.2-2.4l0.7,0.3L33.4,87.4z M32.1,91.1
			c-0.6,1.7-2.6,2.6-4.4,1.9c-1.8-0.7-2.7-2.6-2.1-4.3c0.6-1.7,2.6-2.6,4.4-1.9C31.8,87.4,32.7,89.3,32.1,91.1 M30,97.6L23.5,96
			l0.2-0.9c0.5-1.9,1.3-2.3,2.5-2c1.4,0.3,1.6,1.5,1.3,2.6l-0.1,0.4l2.7,0.7L30,97.6z M29.7,98.7L28,99.2l-0.4,2.9l1.5,1l-0.1,0.8
			l-6.4-4l7.3-2L29.7,98.7z M29,104.9l-3.2-0.1l-0.1,3l3.2,0.1l0,0.8l-6.6-0.2l0-0.8l2.7,0.1l0.1-3l-2.7-0.1l0-0.8l6.6,0.2L29,104.9
			z M78.4,48.2c-33,0-59.8,26.8-59.8,59.8c0,1.5,0.1,2.9,0.2,4.4h1.7H31h1.4c-0.1-1.4-0.2-2.8-0.2-4.2c0-25.5,20.7-46.2,46.2-46.2
			s46.2,20.7,46.2,46.2c0,1.4-0.1,2.8-0.2,4.2h1.4h10.5h1.7c0.1-1.4,0.2-2.9,0.2-4.4C138.2,75,111.4,48.2,78.4,48.2"/>
		<path class="st0" d="M26.1,93.8c-1-0.3-1.4,0.6-1.5,1.4l-0.1,0.2l2.3,0.6l0.1-0.2C27,94.9,27.1,94,26.1,93.8"/>
		<polygon class="st0" points="26.9,101.7 27.2,99.4 24.4,100.2 		"/>
		<path class="st0" d="M53.3,132.6c2.2,3.6,5.4,7.8,6.7,9.4c2.4,0.1,9.6,0.5,14.3,0.5c4.4,0,10.2-0.8,11.9-1.1
			c0.8-1.8,3-6.5,5.1-10.4c1.8-3.3,4.1-6.7,5.1-8.2c-0.9-1.5-3.1-5-4.8-7.9H51.4c-1.6,3.2-2.9,6.1-3.4,7.2
			C48.8,124,51.1,128.8,53.3,132.6"/>
		<path class="st0" d="M31.3,120.5c1.3,0.2,4.3,0.6,7.8,0.8c3.2,0.2,6.4,0.1,7.8,0c0.5-1.1,1.7-3.6,3-6.4H28.7
			C29.7,117.3,30.7,119.3,31.3,120.5"/>
		<path class="st0" d="M97.6,122c1.5-0.2,5.8-0.6,10.4-0.8c2.7-0.1,7.1-0.1,8.9,0c0.7-1.3,1.9-3.7,3.2-6.3H93.2
			C94.9,117.6,96.7,120.6,97.6,122"/>
		<path class="st0" d="M95.1,158.9c2.2-2.9,3-5,3.3-5.7c-1.1-0.6-3.6-2.1-6-4.2c-2.6-2.2-5-5.1-5.9-6.3c-1.9,0.3-7.6,1.1-12,1.1
			c-4.6,0-11.5-0.3-14.1-0.5c-0.9,1.2-2.9,3.8-4.4,5.5c-1.7,1.9-3.1,3.3-3.9,4c1.2,1.3,3.9,4.3,5.6,6l0.5,0.4
			c2.3,2.1,5.8,4.8,9.5,7.5c3.5,0.7,7.2,1,11,1c3,0,6-0.2,8.9-0.7C89.2,165.4,92.9,161.8,95.1,158.9"/>
		<path class="st0" d="M32.2,139.1c-0.5-1.5-1.5-5.1-2-9.3c-0.4-3.7-0.1-6.7,0.2-8.3c-0.6-1.2-1.9-3.6-3.1-6.6h-8.2
			c1.1,8.7,4,16.8,8.4,24c1.1,0.1,2.9,0.2,3.5,0.2C31.4,139.1,31.9,139.1,32.2,139.1"/>
		<path class="st0" d="M121.5,114.9c-1.5,3.2-3.2,6.3-3.8,7.4c0.2,2,0.7,6.1,0.9,9.2c0.1,3.3-0.3,7.4-0.5,9.1
			c0.9,0.5,2.6,1.3,3.6,1.9c1.4,0.7,3.6,1.3,4.1,1.5c6.3-8.3,10.5-18.3,11.9-29.2L121.5,114.9L121.5,114.9z"/>
		<path class="st0" d="M117.6,141.9c-1.2,1.1-4.5,4.2-8.3,6.7c-3.6,2.3-7.9,4-9.6,4.7l0,0c0,0.1-0.7,2.6-3.5,6.4
			c-2,2.7-4.8,5.4-6.4,7c14.2-2.7,26.6-10.6,35.3-21.5c-0.9-0.2-2.6-0.8-3.9-1.4C120.1,143.2,118.4,142.3,117.6,141.9"/>
		<path class="st0" d="M56.7,159.8c-2.4-2.2-6.1-6.5-6.3-6.7l0.1-0.1c-1.8-1-6.3-3.4-9.8-6c-3.7-2.7-6.7-5.5-7.8-6.6l-0.1,0
			c0,0-0.9,0.1-1.8,0.1c-0.6,0-1.8-0.1-2.7-0.2c8.3,12.8,21.2,22.3,36.4,25.9c-3.3-2.4-5.3-3.9-7.6-5.9L56.7,159.8z"/>
		<polygon class="st0" points="54.1,98.6 54.1,99.8 56,99.8 57,95.4 54.5,95.4 54.5,93.7 53.3,93.7 53.3,96.6 55.2,96.6 54.9,98.6 
					"/>
		<polygon class="st0" points="61.4,95.4 59.6,95.4 59.6,96.6 60,96.6 60,97.9 58.8,95.4 57.2,95.4 57.2,96.6 57.9,96.6 58.7,98.6 
			57.2,98.6 57.2,99.8 61.4,99.8 		"/>
		<polygon class="st0" points="72.5,95.4 69,95.4 69,97.5 70.4,97.5 70.4,96.6 71.1,96.6 71.1,98.6 69,98.6 69,99.8 72.5,99.8 		"/>
		<rect x="73.2" y="97.5" class="st0" width="1.4" height="2.3"/>
		<polygon class="st0" points="76.4,99.8 76.4,95.4 73.2,95.4 73.2,96.6 75.1,96.6 75.1,99.8 		"/>
		<path class="st0" d="M69.9,93l-2.1-10.3l-1.3-0.2l1-1.1l1.2-2.7l5.9-0.5l-4.7-4c0.1-1.2-1.1-1.4-1.7-0.9c-0.6,0.5-0.2,1.9,0.9,1.5
			l1.9,2.2l-4.1-0.6l-0.6-1c0.3-0.5,0.1-2.5-0.1-2.5c-0.7-0.4-1.5-0.5-2.4-0.4c-0.3,0.2-0.4,0.5-0.4,0.9l0.4,0.1l0.2,1.7
			c0.3,0.2,0.6,0.3,0.9,0.2l0.3,0.8l-7-1.3c5.7-5.2,15.4-3.7,17.5,4.9C77.1,86.9,73.9,91.6,69.9,93 M68.2,93.8l-2.5,3.1l-4.1-4.1
			l4.4-7.2l3.2,7.8L68.2,93.8z M78.4,79.8C76.9,70,64.2,67,57,74.6l-2.2-0.3c-3.3-1.4-2.5,3.1,0.2,0.9l7.9,2.3l1.4,5.3L61,92.2
			l-5.4-5.4c-1.1-1.2-3.2,0.6-1.8,1.9l11.3,8.8l-1.9,2.3l2.2,2l3.2-3.6l0-3.6C75.1,92.2,79.3,87.9,78.4,79.8"/>
		<polygon class="st0" points="64.2,92.7 64.7,92.7 64.7,95.4 66.1,95.4 66.1,91.5 64.2,91.5 		"/>
		<polygon class="st0" points="98.6,77.4 96.5,79.4 96.5,112.4 97.5,112.4 97.5,79.4 99.6,77.4 99.6,72.2 98.6,71.6 		"/>
		<polygon class="st0" points="85.5,71.7 85.5,77.5 87.6,79.4 87.6,112.4 88.6,112.4 88.6,78.9 86.5,77 86.5,72.1 		"/>
		<path class="st0" d="M87,76.2L87,76.2l2.9,2.5l2.9-2.5h0V70c-1.9-0.7-3.8-1.2-5.7-1.7L87,76.2z"/>
		<path class="st0" d="M97,68.8c-0.5-0.2-1-0.4-1.5-0.6c-0.3-0.1-0.5-0.2-0.8-0.3c-0.2-0.1-0.3-0.1-0.5-0.2v0
			c-2.3-0.9-4.8-1.6-7.2-2.2v1.9c2.5,0.6,4.9,1.3,7.2,2.3v6.9L91,79.4v32.9h4.7l0-32.9l2.1-2.1v-8.2c0,0,0,0,0,0v0
			C97.5,69,97.3,69,97,68.8"/>
		<rect x="79.6" y="104.9" class="st0" width="2.3" height="7.4"/>
		<rect x="103.1" y="104.9" class="st0" width="2.3" height="7.4"/>
		<rect x="99.1" y="104.9" class="st0" width="2.3" height="7.4"/>
		<rect x="107.2" y="104.9" class="st0" width="2.3" height="7.4"/>
		<rect x="83.6" y="104.9" class="st0" width="2.3" height="7.4"/>
		<rect x="115.2" y="104.9" class="st0" width="2.3" height="7.4"/>
		<rect x="75.5" y="104.9" class="st0" width="2.3" height="7.4"/>
		<rect x="119.3" y="104.9" class="st0" width="2.3" height="7.4"/>
		<rect x="111.2" y="104.9" class="st0" width="2.3" height="7.4"/>
		<rect x="47.3" y="104.9" class="st0" width="2.3" height="7.4"/>
		<rect x="39.2" y="104.9" class="st0" width="2.3" height="7.4"/>
		<rect x="43.3" y="104.9" class="st0" width="2.3" height="7.4"/>
		<rect x="51.3" y="104.9" class="st0" width="2.3" height="7.4"/>
		<rect x="35.2" y="104.9" class="st0" width="2.3" height="7.4"/>
		<rect x="63.4" y="104.9" class="st0" width="2.3" height="7.4"/>
		<rect x="55.4" y="104.9" class="st0" width="2.3" height="7.4"/>
		<rect x="67.5" y="104.9" class="st0" width="2.3" height="7.4"/>
		<rect x="71.5" y="104.9" class="st0" width="2.3" height="7.4"/>
		<rect x="59.4" y="104.9" class="st0" width="2.3" height="7.4"/>
	</g>
	<polygon class="st0" points="84.2,23.2 93.6,16.4 82,16.4 78.4,5.4 74.8,16.4 63.3,16.4 72.6,23.2 69.1,34.2 78.4,27.4 87.8,34.2 
		87.4,33.1 	"/>
</g>
</svg>
