<?xml version="1.0" encoding="utf-8"?>
<!-- Generator: Adobe Illustrator 24.2.3, SVG Export Plug-In . SVG Version: 6.00 Build 0)  -->
<svg version="1.1" id="Layer_1" xmlns="http://www.w3.org/2000/svg" xmlns:xlink="http://www.w3.org/1999/xlink" x="0px" y="0px"
	 viewBox="0 0 156.8 167.7" style="enable-background:new 0 0 156.8 167.7;" xml:space="preserve">
<style type="text/css">
	.st0{fill:#FFFFFF;}
	.st1{fill-rule:evenodd;clip-rule:evenodd;fill:#FFFFFF;}
	.st2{fill-rule:evenodd;clip-rule:evenodd;fill:#493C3B;}
	.st3{fill:#D6D6D6;}
	.st4{fill:#606060;}
</style>
<g>
	<g>
		<path class="st0" d="M78.4,167.7c-8.1,0-15.9-1.6-23.3-4.7c-7.1-3-13.5-7.3-19-12.8c-5.5-5.5-9.8-11.9-12.8-19
			c-3.1-7.4-4.7-15.2-4.7-23.3s1.6-15.9,4.7-23.3c3-7.1,7.3-13.5,12.8-19c5.5-5.5,11.9-9.8,19-12.8c7.4-3.1,15.2-4.7,23.3-4.7
			s15.9,1.6,23.3,4.7c7.1,3,13.5,7.3,19,12.8c5.5,5.5,9.8,11.9,12.8,19c3.1,7.4,4.7,15.2,4.7,23.3s-1.6,15.9-4.7,23.3
			c-3,7.1-7.3,13.5-12.8,19c-5.5,5.5-11.9,9.8-19,12.8C94.3,166.1,86.5,167.7,78.4,167.7z M78.4,50.9c-7.7,0-15.2,1.5-22.2,4.5
			c-6.8,2.9-12.9,7-18.2,12.2c-5.2,5.3-9.3,11.4-12.2,18.2c-3,7-4.5,14.5-4.5,22.2s1.5,15.2,4.5,22.2c2.9,6.8,7,12.9,12.2,18.2
			c5.2,5.2,11.4,9.4,18.2,12.2c7,3,14.5,4.5,22.2,4.5s15.2-1.5,22.2-4.5c6.8-2.9,12.9-7,18.2-12.2c5.2-5.2,9.4-11.4,12.2-18.2
			c3-7,4.5-14.5,4.5-22.2S134,92.8,131,85.8c-2.9-6.8-7-12.9-12.2-18.2c-5.2-5.2-11.4-9.4-18.2-12.2C93.6,52.4,86.1,50.9,78.4,50.9z
			"/>
	</g>
	<g>
		<path class="st0" d="M52.1,133.7c4.4,0,5.2-3.7,5.2-7V124c0-1.7-0.8-2-1.6-2h-3.9h-0.1v-1.5c0-1.3-0.5-1.6-0.5-1.6h-3.7
			c0,0,0.3,0.3,0.3,1.2v4.7v0.1c2.4,0,3.5,0,5.6,0h0.1v3c0,2.4-1.3,3-2.4,3c-0.9,0-1.2-0.4-1.2-0.4v2.9
			C49.7,133.3,50,133.7,52.1,133.7z"/>
		<path class="st0" d="M77.9,100.9l-9.5,15.7c4.8,4.8,9.1,8.9,9.1,8.9l6-7c0,0,0.6-0.1,1.6-0.5L77.9,100.9z M96.9,108.7
			c3.9-7.9,3.2-17.1,2.6-20.2c-2.4-10.9-11.9-18.1-22.8-17.9c-9.6,0.2-15.8,6.6-15.8,6.6c4.6,0.9,15.3,2.9,15.3,2.9
			C76,78.9,75.6,78,75.6,78s-0.9,0-1.3-0.2c-0.4-0.2-0.7-0.9-0.8-2.2s-0.1-1.7-0.1-1.7c-0.3-0.1-0.6-0.1-0.9-0.2
			c-0.2,0-0.3-0.3-0.2-0.4c0.1-0.3,0.3-0.6,0.4-0.9c0.2-0.3,0.5-0.6,0.8-0.6c0.6,0,1.7,0,3.1,0.2c2.1,0.3,2.6,1.5,2.6,3.4
			s-0.4,2.4-0.4,2.4c0.4,1,1.6,2.9,1.6,2.9c2,0.1,8.6,0.9,8.6,0.9L85.2,77c-1.5,0.2-2.6-0.4-2.7-1.8c-0.1-1.4,1.3-2.5,2.7-2.1
			c1.4,0.3,1.6,2.5,1.6,2.5l9.9,8.7l-12.6,1.2c0,0-1.9,3.9-2.5,5.3c-0.7,1.4-2.5,3.5-2.5,3.5s2.1,0.2,2.7,0.3c0,0,4.3,20.6,4.8,22.7
			C86.7,117.4,93.8,115.1,96.9,108.7 M74.5,94.7C73.9,91.5,71.4,83,71.4,83c-7.2-2-17.3-5-17.3-5c-1.6,1.6-3.9,1.6-4.8,0.7
			c-1-0.9-0.8-2.6,0.7-2.9c1.4-0.3,3.2,0.2,3.2,0.2c1.6,0.2,5.1,0.8,5.1,0.8s7.5-9.2,21-9.5c13.5-0.4,26.5,9.3,26.5,25
			c0,16.6-10.3,24.8-22,28.6v8l-5.5,6.3l-4.7-4.9l2.5-2.9c0,0-23.2-18.4-25.2-20.2s2.1-5.9,4.2-3.9c1,1,6.9,6.8,12.4,12.2L74.5,94.7
			"/>
		<path class="st0" d="M87.4,129.1c-1.5-0.8-1.2-2.1-0.8-2.9c0.4-0.8,1.8-1.2,1.8-1.2c-2,0.2-2.3,0.6-2.3,0.6v-2.8
			c0,0,0.6-0.7,5.3-0.8c2,0,2.7,0,3.6,0.5c1.2,0.8,1.8,2.3,1.8,4.2c0,3.4,0,6.9-5.8,7c-4.4,0-4.9-1.1-4.9-1.1v-2.8
			c0,0,0.6,1.2,4.1,1.1c2.9,0,2.8-1.7,2.8-4.1c0-1.8-0.6-2-1.7-2c-0.8,0-1.6,0.3-1.4,1.3c0.3,1.3,1.9,0.5,1.9,0.5v2.4
			C91.8,129,89.6,130.2,87.4,129.1z"/>
		<path class="st0" d="M92.6,142.3c-1.2-0.7-1-1.9-0.7-2.5c0.4-0.7,1.5-1.1,1.5-1.1c-1.6,0.2-1.9,0.5-1.9,0.5v-2.4
			c0,0,0.5-0.7,4.4-0.7c1.7,0,2.3,0,3,0.5c1,0.7,1.5,2.1,1.5,3.7c0,3,0,6.1-4.9,6.2c-3.7,0-4.1-1-4.1-1V143c0,0,0.5,1.1,3.4,1
			c2.4,0,2.3-1.5,2.3-3.6c0-1.6-0.5-1.8-1.5-1.8c-0.6,0-1.3,0.3-1.1,1.2c0.2,1.1,1.6,0.4,1.6,0.4v2
			C96.3,142.2,94.5,143.4,92.6,142.3z"/>
		<path class="st0" d="M102,132.1v-3.6c0-1,0.7-1.6,0.7-1.6h-2.3c-1.1,0-2.2,0.5-2.2,2.2v4.6h2.4C101.8,133.7,102,133.2,102,132.1z
			 M107.1,133.7h-2.3V127c0-2-1.2-2.1-2.2-2.1h-1.7c-1.8,0-2.7,1.3-2.7,1.3V123c0,0,0.5-0.9,2.9-0.9h3.9c2.6,0,3.6,1.3,3.6,3.4v6.7
			C108.6,132.7,108.3,133.7,107.1,133.7"/>
		<path class="st0" d="M58.2,122.1c0.4,0.9,0.9,2.2,1.4,4.1s0.8,3.6,0.9,4.7v0.1c-2-0.1-2.5-1.1-2.5-1.1v3c0,0,0.6,0.9,4.7,0.9
			c5,0,6.5-2.6,6.5-6.6V124c0-1.5-0.9-2-0.9-2h-3.9c0,0,0.9,0.6,0.9,1.7v3.7c0,2.9-0.9,3.4-3.1,3.5c0,0,0.9-0.9,1.2-1.4
			c0.5-0.7,0.6-1.6-0.1-4.3c-0.6-2.5-1.3-3.2-1.3-3.2L58.2,122.1L58.2,122.1z"/>
		<path class="st0" d="M78.8,121.5h-3v-9.7c0-1.5-0.8-1.9-0.8-1.9h3.6c0,0,1.2,0.3,1.2,1.9v7.4C79.8,121.2,78.8,121.5,78.8,121.5z"
			/>
		<path class="st0" d="M104.8,146.5c4.8,0,4.9-3.2,4.9-6.2c0-1.7-0.5-3.1-1.5-3.7c-0.8-0.4-1.3-0.5-3-0.5c-3.1,0-3.7,0.7-3.7,0.7
			v2.7c0,0,0.8-0.9,2.6-0.9c1.9,0,2.4,0.6,2.4,1.8c0,2,0.1,3.5-2.3,3.6c-1.9,0.1-2.7-1-2.7-1v2.6
			C101.4,145.6,102.1,146.5,104.8,146.5z"/>
		<path class="st0" d="M89.5,146.5H87h-0.1v-6.1c0-1.2-0.6-1.9-2.4-1.8c-1.2,0-2.2,1-2.2,1v-2.7c0,0,1.1-0.8,3.3-0.8
			c1.7,0,2.3,0,3,0.5c1,0.7,1.5,2.1,1.5,3.7v4.7C90.2,146.1,89.5,146.5,89.5,146.5z"/>
		<path class="st0" d="M63.7,143.8H65c0.8,0,1-0.4,1-0.4v1.6c0,1.1-0.7,1.5-0.7,1.5h-7.6v-2c0-0.5,0.2-0.7,1-0.7h2.4
			c0.7,0,1.2-0.7,1.2-3.4c0-1.2-0.6-1.9-2.4-1.8c-1.2,0-2.2,1-2.2,1v-2.7c0,0,1.1-0.8,3.3-0.8c1.7,0,2.3,0,3,0.5
			c1,0.7,1.5,2.1,1.5,3.7s-0.4,2.1-1,2.7C64,143.5,63.7,143.8,63.7,143.8z"/>
		<path class="st0" d="M50.3,144v-3.2l3.7,5.7h2.5c0,0,0.4-0.7-0.4-2l-1.6-2.6c0,0,1.3-0.9,1.7-1.6s0.5-0.9,0.5-2.1
			c0-1.9-0.8-2.2-0.8-2.2h-3.1c0,0,0.7,0.6,0.7,1.5v2.6l-1.8-2.7c-0.7-1.1-1.3-1.4-2.6-1.4c-1.2,0-1.9,0.6-1.9,0.6v2.1
			c0,0,0.4-0.3,1.1-0.3c0.7,0,1.3,1.1,1.3,1.1s-0.7,0.4-1.5,1.2c-0.8,0.8-0.8,1.3-0.8,2.4c0,1.2,0.4,3.2,2.1,3.2
			c1.7,0,1.9-0.1,1.9-2.4L50.3,144z"/>
		<path class="st0" d="M73.5,140.9c0-2.1-0.3-2.3-1-2.3c-0.6,0-1.5,0-1.5,0s-0.4,0.1-0.4,0.6v3.4c0,0.8,0.1,1.4,1.1,1.4
			C72.8,144,73.5,143.7,73.5,140.9z M67.2,142.2c0-2.6,2.5-3.4,2.5-3.4c-1.6,0.2-2.4,0.5-2.4,0.5v-2.4c0,0,1-0.7,4.9-0.7
			c2.5,0,4.5,0.8,4.5,4.2c0,3,0,6.1-4.9,6.2C68.1,146.5,67.2,144.7,67.2,142.2"/>
		<path class="st0" d="M59,71.5c1.3-1,0.6-2.3-0.2-3.2l-0.7-0.8c-0.4-0.5-0.7-0.4-0.9-0.2l-1.1,0.9l0,0l-0.4-0.4
			c-0.3-0.4-0.5-0.3-0.5-0.3l-1,0.9c0,0,0.2,0,0.4,0.3l1.1,1.3l0,0c0.7-0.6,1-0.8,1.6-1.3l0,0l0.7,0.8c0.6,0.7,0.4,1.2,0,1.4
			c-0.3,0.2-0.4,0.2-0.4,0.2l0.7,0.8C58.2,71.9,58.4,71.9,59,71.5z"/>
		<path class="st0" d="M92.7,61.9c0,0.4,0,0.9-0.2,1.6c-0.1,0.7-0.3,1.3-0.4,1.7l0,0c-0.6-0.3-0.7-0.8-0.7-0.8l-0.5,1
			c0,0,0.1,0.4,1.4,1c1.7,0.8,2.6,0.1,3.2-1.2l0.5-1.1c0.2-0.5,0-0.8,0-0.8l-1.3-0.6c0,0,0.2,0.3,0.1,0.7l-0.6,1.2
			c-0.5,1-0.8,1-1.6,0.7c0,0,0.4-0.2,0.6-0.3c0.3-0.2,0.4-0.5,0.6-1.4c0.2-0.9,0.1-1.3,0.1-1.3L92.7,61.9L92.7,61.9z"/>
		<path class="st0" d="M74.1,64.5c2-0.3,1.8-1.7,1.6-2.9c-0.1-0.7-0.4-1.2-0.9-1.5c-0.4-0.1-0.6-0.1-1.3,0c-1.3,0.2-1.5,0.5-1.5,0.5
			l0.2,1.1c0,0,0.3-0.4,1-0.5c0.8-0.1,1,0.1,1.1,0.6c0.1,0.8,0.3,1.5-0.7,1.6c-0.8,0.1-1.2-0.2-1.2-0.2l0.2,1.1
			C72.6,64.3,72.9,64.7,74.1,64.5z"/>
		<path class="st0" d="M66.1,67l-0.9,0.4l0,0l-1.1-2.3c-0.2-0.4-0.6-0.6-1.2-0.2c-0.4,0.2-0.6,0.8-0.6,0.8l-0.5-1
			c0,0,0.3-0.5,1.1-0.9c0.6-0.3,0.9-0.4,1.2-0.4c0.5,0.1,0.9,0.5,1.3,1.1l0.8,1.8C66.3,66.7,66.1,67,66.1,67z"/>
		<path class="st0" d="M77.9,63.4v-1.3c0-0.4,0.2-0.6,0.2-0.6h-0.9c-0.4,0-0.8,0.2-0.8,0.8l0.1,1.7h0.9C77.9,64,77.9,63.8,77.9,63.4
			z M79.8,63.9h-0.9v-2.5c0-0.7-0.5-0.8-0.8-0.7h-0.7c-0.7,0-1,0.5-1,0.5V60c0,0,0.2-0.3,1.1-0.4l1.5-0.1c1,0,1.4,0.4,1.4,1.2
			l0.1,2.5C80.4,63.5,80.3,63.9,79.8,63.9"/>
		<path class="st0" d="M83,65.7L83,65.7l1.1,0.1c0,0,0.3-0.1,0.4-0.6l0.6-4.6c0.1-0.5,0-0.8-0.3-0.8l-1.2-0.1c0,0,0.2,0.2,0.1,1
			L83,65.7z"/>
		<path class="st0" d="M100,67.3l-1.6,2.1c-0.3,0.3-0.5,0.4-0.8,0.1L96.9,69l1.5-1.9h1.4L99.6,67c-0.5-0.4-1.1-0.2-1.1-0.2l0.7-0.9
			c0,0,0.3-0.2,1.1,0.4l1.5,1.2c0.8,0.6,0.8,1.2,0.3,1.8l-1.1,1.5c-0.4,0.5-1,0.8-1.8,0.2c-0.6-0.5-0.7-0.8-0.7-0.8l0.6-0.7
			c0.3,0.4,0.6,0.5,0.9,0.2l0.6-0.8c0.5-0.6,0.1-0.9-0.2-1.1L100,67.3L100,67.3z"/>
		<path class="st0" d="M96.9,65l-1.7,3l0,0l0.9,0.5c0,0,0.3,0,0.6-0.4l1.5-2.5c0.3-0.4,0.3-0.7,0-0.9l-1-0.6
			C97.2,64.1,97.3,64.4,96.9,65z"/>
		<path class="st0" d="M86,61l-0.6,3.4l0,0l1,0.2c0,0,0.3-0.1,0.4-0.6l0.6-2.9c0.1-0.5,0-0.8-0.3-0.8L85.9,60
			C85.9,60,86.1,60.3,86,61z"/>
		<path class="st0" d="M65.8,63.4l1.3,3.2l0,0l1-0.4c0,0,0.2-0.3,0-0.7L67,62.7c-0.2-0.4-0.4-0.7-0.7-0.5l-1.1,0.4
			C65.2,62.6,65.5,62.7,65.8,63.4z"/>
		<path class="st0" d="M70.9,63.2l0.4,1.3c0.1,0.4,0.1,0.6-0.4,0.7l-0.8,0.3l-0.5-1.6c-0.3-1,0.3-1.9,0.3-1.9l-1.3,0.4
			c-0.6,0.2-0.8,0.7-0.8,0.7L67.5,62c0,0,0.1-0.4,0.9-0.6l1.8-0.6c0.8-0.2,1.1,0,1.1,0l0.4,1.1c0,0-0.4-0.4-1-0.2
			C70.6,61.8,70.6,62.2,70.9,63.2z"/>
		<path class="st0" d="M90.5,63.7L90.1,65c-0.1,0.4-0.3,0.5-0.7,0.4l-0.8-0.3l0.5-1.6c0.3-1,1.3-1.3,1.3-1.3l-1.3-0.4
			c-0.8-0.2-1.2,0.2-1.2,0.2l0.3-1.1c0,0,0.3-0.3,1.1,0l1.8,0.5C91.9,61.7,92,62,92,62l-0.3,1.1c0,0-0.2-0.5-0.7-0.7
			C90.9,62.4,90.8,62.7,90.5,63.7z"/>
		<path class="st0" d="M60.3,69.3l0.5,0.7l0.7-0.4c0.3-0.2,0.3-0.4,0.1-0.8l-0.2-0.3l0.2-0.3l0.6,0.9l0.7-0.5
			c0.4-0.2,0.3-0.6,0.1-0.9l-1.3-2.1c-0.4-0.6-1-0.8-1.8-0.3c-1,0.6-1.1,1.1-1.1,1.1l0.6,1c0,0,0-0.6,0.6-0.9c0.4-0.3,0.6,0,0.8,0.4
			l0.4,0.6l-0.8,1C60.1,68.9,60.1,69.1,60.3,69.3z"/>
	</g>
</g>
</svg>
