<?xml version="1.0" encoding="utf-8"?>
<!-- Generator: Adobe Illustrator 24.2.3, SVG Export Plug-In . SVG Version: 6.00 Build 0)  -->
<svg version="1.1" id="Layer_1" xmlns="http://www.w3.org/2000/svg" xmlns:xlink="http://www.w3.org/1999/xlink" x="0px" y="0px"
	 viewBox="0 0 156.8 167.7" style="enable-background:new 0 0 156.8 167.7;" xml:space="preserve">
<style type="text/css">
	.st0{fill:#FFFFFF;}
	.st1{fill-rule:evenodd;clip-rule:evenodd;fill:#FFFFFF;}
	.st2{fill-rule:evenodd;clip-rule:evenodd;fill:#493C3B;}
	.st3{fill:#D6D6D6;}
	.st4{fill:#606060;}
</style>
<g>
	<path class="st1" d="M78,124.5l-0.3,1.3l0.6,0.1v-1.4L78,124.5z"/>
	<path class="st1" d="M57.9,57.4c-3.5,0.8-7,1.6-10.4,2.6c-3.4,1-6.7,2.1-9.9,3.4c-1,3.3-1.8,6.3-2.4,9.2c-0.6,2.8-0.9,5.5-1.2,8.4
		l44.3-17.1V55c-3.2,0-6.6,0.2-9.9,0.6C64.9,56,61.3,56.6,57.9,57.4z M40.5,66.8c-1.9,2.7-2.9,6.4-3.7,10.4
		c0.4-4.6,1.1-8.8,2.1-12.8c2.7-1.1,5.7-2.1,9.1-3C45.4,63.2,42.3,64.3,40.5,66.8z M62.9,68.2l-3-2l-3,2l1-3.5L55,62.6l3.7-0.2
		l1.2-3.4l1.2,3.4l3.7,0.2l-2.9,2.1L62.9,68.2z"/>
	<rect x="94.4" y="146" transform="matrix(0.7733 -0.634 0.634 0.7733 -72.0046 93.5282)" class="st0" width="0.7" height="2.9"/>
	
		<rect x="101.5" y="139.3" transform="matrix(0.7003 -0.7139 0.7139 0.7003 -69.9274 114.8923)" class="st0" width="0.7" height="2.9"/>
	<path class="st0" d="M92.2,147.7l0.9,1.2c0,0,0.1,0.1,0.1,0.1c0.1,0.1,0.1,0.1,0.2,0.2c-0.1,0-0.2,0-0.2,0s-0.1,0-0.2,0l-2.7-0.1
		l-0.4,0.3l1.7,2.3l0.5-0.4l-0.9-1.2c0,0-0.1-0.1-0.1-0.1c-0.1-0.1-0.1-0.1-0.2-0.2c0.1,0,0.1,0,0.2,0c0.1,0,0.1,0,0.2,0l2.8,0.1
		l0.4-0.3l-1.7-2.3L92.2,147.7z"/>
	<polygon class="st0" points="99.5,140.3 98.6,141.1 98.3,143.6 97.2,142.5 96.6,143.1 99.1,145.6 99.7,145 98.6,143.9 101.2,143.5 
		102.2,142.6 99,143.1 	"/>
	<path class="st0" d="M90.2,151.9l-0.8-1.3c-0.1-0.1-0.1-0.2-0.2-0.3c-0.1-0.1-0.1-0.1-0.2-0.1c-0.1,0-0.2,0-0.3,0
		c-0.1,0-0.2,0.1-0.3,0.2l-1.9,1.2c-0.1,0.1-0.2,0.1-0.3,0.2c-0.1,0.1-0.1,0.1-0.1,0.2c0,0.1,0,0.2,0,0.2c0,0.1,0.1,0.2,0.1,0.3
		l0.8,1.3c0.1,0.1,0.1,0.2,0.2,0.3c0.1,0.1,0.1,0.1,0.2,0.1c0.1,0,0.2,0,0.3,0c0.1,0,0.2-0.1,0.3-0.2l1.9-1.2
		c0.1-0.1,0.2-0.1,0.3-0.2c0.1-0.1,0.1-0.1,0.1-0.2c0-0.1,0-0.2,0-0.2C90.4,152.1,90.3,152,90.2,151.9z M87.8,153.7l-1-1.5l1.9-1.3
		l1,1.5L87.8,153.7z"/>
	<path class="st0" d="M118.6,87.8c0,0.1,0.1,0.2,0.1,0.3c0.1,0.1,0.1,0.1,0.3,0.1c0.1,0,0.2,0,0.4,0l1.9-0.1c0.2,0,0.3,0,0.4-0.1
		c0.1,0,0.2-0.1,0.3-0.2c0.1-0.1,0.1-0.2,0.1-0.3c0-0.1,0-0.3,0-0.4l-0.1-2.1c0-0.2,0-0.3-0.1-0.4s-0.1-0.2-0.1-0.3
		c-0.1-0.1-0.1-0.1-0.3-0.1c-0.1,0-0.2,0-0.4,0l-0.4,0l-0.1,0.8l0.8,0l0.1,2.2l-2.3,0.1l-0.1-2.2l0.7,0l-0.2-0.8l-0.3,0
		c-0.2,0-0.3,0-0.4,0.1c-0.1,0-0.2,0.1-0.3,0.2c-0.1,0.1-0.1,0.2-0.1,0.3s0,0.3,0,0.4l0.1,2.1C118.5,87.6,118.5,87.7,118.6,87.8z"/>
	<path class="st0" d="M120.8,82.8c0,0.1,0,0.1,0,0.1c0,0,0,0.1,0,0.1c0,0,0,0,0.1,0s0.1,0,0.1,0l0.6,0c0.1,0,0.1,0,0.2,0
		c0,0,0.1-0.1,0.1-0.1l-0.1-0.6c0-0.1,0-0.1,0-0.1c0,0,0-0.1,0-0.1c0,0,0,0-0.1,0c0,0-0.1,0-0.1,0l-0.6,0c-0.1,0-0.1,0-0.2,0
		c0,0-0.1,0.1-0.1,0.1l0,0.1L120.8,82.8z"/>
	<path class="st0" d="M122,89.7c0,0-0.1,0-0.1,0h-0.6c-0.1,0-0.1,0-0.2,0c0,0-0.1,0.1-0.1,0.1v0.1v0.5c0,0.1,0,0.1,0,0.1
		c0,0,0,0.1,0,0.1c0,0,0,0,0.1,0c0,0,0.1,0,0.1,0h0.6c0.1,0,0.1,0,0.2,0s0.1-0.1,0.1-0.1v-0.6c0-0.1,0-0.1,0-0.1
		C122.1,89.7,122.1,89.7,122,89.7C122,89.7,122,89.7,122,89.7z"/>
	<rect x="80.9" y="154.3" transform="matrix(0.8821 -0.471 0.471 0.8821 -63.9374 56.6992)" class="st0" width="0.9" height="3.6"/>
	<path class="st0" d="M85.5,154.5c0.2-0.1,0.3-0.2,0.4-0.4c0.1-0.1,0-0.3-0.1-0.5l-0.3-0.6c-0.1-0.2-0.2-0.3-0.4-0.3
		c-0.1,0-0.3,0-0.5,0.1l-2.2,1.3l1.5,2.5l0.6-0.3l-0.6-0.9l0.6-0.3l1.6,0.3l0.9-0.5l-1.8-0.2L85.5,154.5z M85,154.2l-1.4,0.8
		l-0.4-0.7l1.4-0.8c0.1-0.1,0.2-0.1,0.2-0.1c0.1,0,0.1,0,0.2,0.1l0.2,0.3c0.1,0.1,0.1,0.1,0,0.2C85.1,154.1,85.1,154.2,85,154.2z"/>
	<path class="st0" d="M107.2,131.8l1.4,3l0.4-0.6l-0.3-0.6l1.1-1.6l0.7,0.1l0.4-0.6l-3.3-0.2L107.2,131.8z M109.2,132l-0.7,1.1
		l-0.6-1.2L109.2,132z"/>
	<path class="st0" d="M120.2,107.2c-0.1,0-0.2-0.1-0.3-0.1l-1.5-0.3c-0.1,0-0.2,0-0.3,0c-0.1,0-0.2,0-0.2,0.1
		c-0.1,0-0.1,0.1-0.2,0.2c0,0.1-0.1,0.2-0.1,0.3l-0.5,2.2c0,0.1,0,0.3,0,0.3s0,0.2,0.1,0.2c0,0.1,0.1,0.1,0.2,0.2
		c0.1,0,0.2,0.1,0.3,0.1l1.5,0.3c0.1,0,0.2,0,0.3,0c0.1,0,0.2,0,0.2-0.1c0.1,0,0.1-0.1,0.2-0.2c0-0.1,0.1-0.2,0.1-0.3l0.5-2.2
		c0-0.1,0-0.3,0-0.3c0-0.1,0-0.2-0.1-0.2C120.3,107.3,120.3,107.2,120.2,107.2z M119.3,110.1l-1.8-0.4l0.5-2.3l1.8,0.4L119.3,110.1z
		"/>
	<path class="st0" d="M116.5,111.7l1.2,1.8l-2.1,0.8l-0.2,0.5l2.7,0.8l0.2-0.5l-1.7-0.5c-0.1,0-0.2-0.1-0.3-0.1c0.1,0,0.1,0,0.2,0
		c0.1,0,0.1,0,0.2-0.1l1.7-0.7l0-0.1l-1-1.5c0,0-0.1-0.1-0.1-0.1s-0.1-0.1-0.1-0.1c0.1,0,0.1,0.1,0.2,0.1c0,0,0.1,0,0.1,0l1.7,0.5
		l0.2-0.6l-2.7-0.8L116.5,111.7z"/>
	<path class="st0" d="M118.4,102.7l1.5,0.3c0,0,0.1,0,0.2,0c0.1,0,0.2,0,0.3,0c-0.1,0-0.1,0.1-0.2,0.1c-0.1,0-0.1,0.1-0.2,0.1
		l-2,1.8l-0.1,0.5l2.8,0.5l0.1-0.6l-1.5-0.3c0,0-0.1,0-0.2,0c-0.1,0-0.2,0-0.3,0c0.1,0,0.1-0.1,0.1-0.1c0,0,0.1-0.1,0.1-0.1l2.1-1.9
		l0.1-0.5l-2.8-0.5L118.4,102.7z"/>
	<polygon class="st0" points="120.7,93.2 120.8,91.7 120.1,91.7 120.1,93.2 119.2,93.2 119.2,90.4 118.6,90.4 118.5,94 122.1,94 
		122.1,93.2 	"/>
	<polygon class="st0" points="114.9,116.6 115.9,117 115.1,119 114.1,118.6 113.8,119.3 116.5,120.3 116.8,119.6 115.6,119.2 
		116.4,117.2 117.5,117.6 117.8,116.9 115.1,115.9 	"/>
	<path class="st0" d="M118.8,99.7l2.6,2l0.1-0.7l-0.6-0.4l0.2-1.9l0.7-0.3l0.1-0.8l-3,1.4L118.8,99.7z M120.6,98.9l-0.2,1.3
		l-1.1-0.8L120.6,98.9z"/>
	<path class="st0" d="M104.8,137.8c0.2-0.2,0.2-0.3,0.2-0.5s-0.1-0.3-0.2-0.4l-0.5-0.4c-0.1-0.1-0.3-0.2-0.4-0.2s-0.3,0.1-0.4,0.3
		l-1.7,2l2.2,1.9l0.5-0.5l-0.8-0.7l0.4-0.5l1.6-0.2l0.7-0.8l-1.7,0.3L104.8,137.8z M104.4,137.6c0,0.1-0.1,0.1-0.1,0.2l-1,1.2
		l-0.6-0.5l1-1.2c0.1-0.1,0.1-0.1,0.2-0.2c0.1,0,0.1,0,0.2,0.1l0.3,0.2C104.4,137.4,104.4,137.5,104.4,137.6z"/>
	<polygon class="st0" points="106.4,132.9 105.9,133.6 106.1,135.1 104.6,135.2 104.1,135.9 106.3,135.7 107.3,136.5 107.7,135.9 
		106.7,135.1 	"/>
	<path class="st0" d="M115.6,121.5c-0.1-0.1-0.2-0.1-0.3-0.2l-0.4-0.2c-0.1-0.1-0.3-0.1-0.4-0.1c-0.1,0-0.2,0-0.3,0
		c-0.1,0-0.2,0.1-0.2,0.2c-0.1,0.1-0.1,0.2-0.2,0.4l-1,2l-0.7-0.3l1-2.1l0.4,0.2l0.2-0.7l-0.1,0c-0.1-0.1-0.3-0.1-0.4-0.1
		c-0.1,0-0.2,0-0.3,0c-0.1,0-0.2,0.1-0.2,0.2c-0.1,0.1-0.1,0.2-0.2,0.3l-0.9,1.8c-0.1,0.1-0.1,0.3-0.1,0.4s0,0.2,0,0.3
		c0,0.1,0.1,0.2,0.2,0.2s0.2,0.1,0.3,0.2l0.3,0.2c0.1,0.1,0.3,0.1,0.4,0.1c0.1,0,0.2,0,0.3,0c0.1,0,0.2-0.1,0.2-0.2
		c0.1-0.1,0.1-0.2,0.2-0.4l0.9-2l0.7,0.3l-1.1,2.2l-0.4-0.2l-0.2,0.7l0.1,0c0.1,0.1,0.3,0.1,0.4,0.1s0.2,0,0.3,0
		c0.1,0,0.2-0.1,0.2-0.2c0.1-0.1,0.1-0.2,0.2-0.4l0.9-2c0.1-0.1,0.1-0.3,0.1-0.4c0-0.1,0-0.2,0-0.3
		C115.7,121.7,115.7,121.6,115.6,121.5z"/>
	<polygon class="st0" points="110.6,127.2 110.1,126.9 108.4,129.9 108.8,130.2 109.5,129 111.5,130.2 111.9,129.6 109.9,128.4 	"/>
	<g>
		<path class="st0" d="M103.5,117.2c-0.6-0.7-1.4-1.5-1.9-2.1c-1.5-1.6-2.7-2.9-4.2-4.6c-0.3-0.4-1.3-1.5-1.9-2.2
			c-0.7,0.2-1.5,0.4-2.2,0.5c1,1.4,3,4.4,4.8,7c1.3,1.8,2.5,3.5,3.5,4.2c0.6,0.4,1.8,0.6,2.4,0.2c1.1-0.6,0.8-1.3,0.4-2
			C104.3,118,103.9,117.6,103.5,117.2z"/>
		<path class="st0" d="M94.7,86.6c1.4-1.4,2.9-2.5,4.2-3.6c1-0.8,0.8-1,0.6-1.5c-0.1-0.2-0.5-0.3-0.8-0.3c-0.8,0-1.4,0.3-2.4,1
			c-1.7,1.3-2.8,2.8-3.7,4.1c0.1,0,0.2,0,0.3,0C93.5,86.3,94.1,86.4,94.7,86.6z"/>
		<path class="st0" d="M90.4,111.8c-0.3-1-0.6-2-0.8-3c-0.8-0.2-1.6-0.4-2.4-0.7c0,1.6,0.5,5.8,1.1,7.2c0.2,0.6,0.3,1,1,1.5
			c0.7,0.5,1.9,0.7,2.5,0.2c0.3-0.3,0.3-0.7-0.1-1.5C91.3,114.6,90.8,112.8,90.4,111.8z"/>
		<path class="st0" d="M102.7,94.6c3.5,0.4,5.8,1,8.8,1.6c0.3,0.1,1.1,0.3,1.6,0.5c0.9,0.3,1.1,0.2,1.4-0.3c0.4-0.7-0.2-2.3-1.1-3
			c-0.9-0.7-1.8-0.8-4.9-1.1c-2.6-0.3-4.6-0.2-7-0.3C102.1,92.9,102.4,93.7,102.7,94.6z"/>
		<path class="st0" d="M113.5,101.9c-0.9-0.4-1.7-0.8-2.6-1.2c-3-1.3-6-2.2-7.8-2.6c0,0.8-0.1,1.7-0.3,2.4c1.4,0.7,2.9,1.4,4.2,2
			c0.8,0.3,3.4,1.8,5,2.7c1,0.6,1.6,1,2.1,1c0.6,0,1.2-0.4,1.2-1.8C115.3,103.7,114.9,102.6,113.5,101.9z"/>
		<path class="st0" d="M111.5,113.1c-1.7-1.3-4-3.2-5.3-4.2c-0.5-0.4-3.8-3.1-5.4-4.3c0,0,0,0.1-0.1,0.1c-0.6,0.7-1.2,1.4-1.9,1.9
			c0.9,1,3.2,3.4,5.5,5.6c1.5,1.5,3.4,3.2,4.5,4.2c0.5,0.5,0.9,0.6,1.3,0.6c0.5,0,1.1-0.2,1.5-0.5c0.8-0.6,1-1.1,1-1.8
			C112.8,114,112.1,113.6,111.5,113.1z"/>
		<path class="st0" d="M100.2,90.1c1.6-0.5,3.9-1,5.4-1.4c0.3-0.1,0.8-0.1,1.1-0.2c0.5-0.1,0.8-0.2,1-0.5c0.4-0.6,0-1-0.3-1.4
			c-0.4-0.4-1-0.5-1.6-0.5c-1.3,0-2.9,0.6-4.3,1c-0.4,0.1-2,0.7-3.2,1.2C99,88.9,99.6,89.5,100.2,90.1z"/>
		<path class="st0" d="M98.3,103.1c-0.2,0.1-0.4,0.1-0.9,0.1c-0.7-0.1-1.8-0.2-2.3-0.4c-0.5-0.2-0.5-0.3-0.6-0.9
			c0-0.3-0.1-0.7-0.1-1.1c-0.1-0.5-0.2-1.3-0.2-1.7c-0.1-1.1-0.1-1.2,0.6-1.9c0.3-0.3,0.7-0.9,1.3-1.5c0.5-0.6,0.9-0.4,1.9-0.2
			c0.8,0.2,1.4,0.3,1.8,0.5c0.1,0,0.3,0.1,0.4,0.1c0-0.2,0-0.4-0.1-0.6h0c-0.9-0.1-2.3-0.5-2.7-0.6c-0.5-0.1-0.6-0.1-0.9-0.5
			c-0.5-0.6-1.3-1.9-1.7-2.5c-0.4-0.5-0.6-0.9-0.4-1.5c0.1-0.2,0.5-1.5,0.6-2c0.1-0.3,0.3-0.4,0.5-0.5c-0.8-0.6-1.7-1.1-2.6-1.4
			c-0.3,0-0.7-0.1-1-0.1c-1.1,0-2.1,0.1-3.1,0.4c0,0,0,0,0,0c0-0.3,0-0.7,0-0.9c0-0.4-0.1-0.6-0.4-0.8c-0.3-0.2-0.6,0-0.6,0.7
			c0,0.2,0.1,0.8,0.1,1.2c0,0,0,0,0.1,0c-1.4,0.5-2.6,1.2-3.7,2.2c-0.1,0.1-0.1,0.1-0.2,0.2c0,0,0,0,0.1-0.1
			c-0.1-0.2-0.2-0.4-0.3-0.6c-0.3-0.4-0.6-0.8-0.9-0.4c-0.4,0.4-0.2,0.8,0.1,1.1c0.1,0.2,0.3,0.4,0.5,0.5c0,0,0,0,0.1-0.1
			c-1,1-1.7,2.2-2.3,3.6c0,0,0-0.1,0-0.1c-0.4,0-0.9,0-1.2,0.1c-0.3,0.1-0.6,0.4-0.7,0.8c0,0.5,0.2,0.6,0.5,0.6
			c0.2,0,0.6-0.1,0.9-0.1c0,0,0,0,0,0c-0.3,1-0.4,2-0.4,3c0,0.2,0,0.5,0,0.7c0,0,0-0.1,0-0.1c-0.6,0.2-1.7,0.6-1.9,0.7
			c-0.7,0.5-0.5,1.2-0.2,1.5c0.4,0.4,0.8,0,1.3-0.3c0.2-0.1,0.7-0.3,1-0.5c0-0.1,0-0.2,0-0.3c0.2,0.9,0.4,1.8,0.8,2.6
			c-0.1-0.1-0.1-0.2-0.1-0.4c-0.5,0.7-1.1,1.9-1.5,3.2c-0.4,1.4-0.2,2.5,0.6,3c0.4,0.3,0.8,0.2,1-0.1c0.3-0.4,0.4-1.1,0.5-1.8
			c0.1-0.4,0.4-1.5,0.6-2.1c-0.1-0.1-0.1-0.2-0.2-0.2c0.4,0.6,0.8,1.1,1.3,1.6c0,0-0.1-0.1-0.1-0.1c-0.2,0.4-0.6,1.5-0.7,2.4
			c-0.1,0.6-0.2,1.5-0.2,2.2c0,0.7,0.1,1.3,0.5,1.9c0.4,0.6,0.9,0.9,1.4,0.9c0.3,0,0.6-0.1,0.8-0.5c0.2-0.4,0.1-1,0.1-1.6
			c0-0.4-0.1-0.8-0.1-0.9c0-0.3,0-1.8,0.2-2.7c-0.2-0.1-0.4-0.3-0.6-0.4c0.6,0.5,1.2,0.9,1.9,1.2c0.5,0.1,0.9,0.1,1.4,0.1
			c-1.3-0.5-2.1-1-2.3-1.2c-0.2-0.2-0.3-0.3-0.3-0.5c-0.1-0.2-0.2-0.5-0.2-0.7c-0.1-0.3,0.1-0.3,0.3-0.5c0.3-0.2,0.8-0.5,1.1-0.7
			c0.6-0.4,1-0.1,1.5,0.1c0.7,0.3,1.9,0.8,2.7,1c0.5,0.1,0.6,0.1,0.8,0.5c0.2,0.4,0.5,0.8,0.8,1.2c0.1,0.1,0.1,0.2,0.1,0.3
			c1-0.3,1.9-0.7,2.7-1.3C96.5,105.3,97.6,104.3,98.3,103.1z M87.2,88.7c0.4-1,0.6-1.3,1.5-1.6c0.8-0.2,2.2-0.5,3-0.4
			c0.9,0,1.6,0.2,2.3,0.6c0.6,0.3,0.6,0.6,0.4,1.2c-0.1,0.5-0.3,1.2-0.5,1.7c-0.2,0.5-0.4,0.5-0.7,0.6c-0.3,0.1-2,0.8-2.5,1
			C90.1,92,90,92,89.1,91.4c-0.4-0.3-1.3-0.8-1.8-1.2C86.8,89.9,86.9,89.5,87.2,88.7z M81.1,93.8c0,0.1,0,0.1-0.1,0.2
			C81,93.9,81,93.8,81.1,93.8z M80.5,98.7c0,0.1,0,0.3,0,0.4C80.5,99,80.5,98.8,80.5,98.7z M81.6,93.8c0.1-0.1,0.3-0.8,0.5-1.1
			c0.2-0.4,0.5-0.5,0.8-0.1c0.1,0.1,0.3,0.2,0.3,0.3c0.3,0.3,0.2,0.3,0,1c-0.2,0.9-0.2,2.1-0.2,3.1c0,0.9,0.1,1.1-0.1,1.6
			c-0.2,0.5-0.6,1.2-0.8,1.9c-0.4,1.1-0.7,0.4-0.8,0C80.5,98.4,80.7,95.9,81.6,93.8z M81.7,103c-0.1-0.2-0.2-0.4-0.3-0.6
			C81.5,102.5,81.6,102.8,81.7,103z M81.8,103.1c0.1,0.2,0.2,0.3,0.3,0.5C82,103.4,81.9,103.3,81.8,103.1z M83.7,105.6
			c0.1,0.1,0.2,0.2,0.3,0.3C83.9,105.8,83.8,105.7,83.7,105.6z M84.2,106.1c0.1,0.1,0.3,0.2,0.4,0.3
			C84.5,106.3,84.3,106.2,84.2,106.1z M84.9,106c0,0-0.2,0-0.3-0.2c-0.7-0.6-1.5-1.4-2-2.2c-0.3-0.5-0.6-1-0.7-1.4
			c-0.1-0.3-0.2-0.7-0.1-0.7c0.1,0,0.2,0,0.3,0.2c0.3,0.7,0.7,1.5,1.2,2.1c0.4,0.4,0.9,1.1,1.4,1.6C84.8,105.5,85,105.9,84.9,106z
			 M85.7,98.9c-0.4-0.3-1.1-0.6-1.6-0.9c-0.5-0.4-0.6-1-0.6-1.8c0-0.6,0.1-1.3,0.2-2.1c0.1-0.8,0.2-1.2,0.7-1.7
			c0.4-0.5,0.9-1.1,1.2-1.4c0.6-0.5,0.9-0.6,1.3-0.4c0.8,0.4,1.7,1,2.1,1.3c0.7,0.5,0.8,0.9,0.8,1.7c0,0.4-0.1,1.6-0.1,2.3
			c0,0.6-0.1,0.6-0.5,1c-0.4,0.4-1.5,1.5-2.2,2.1C86.6,99.4,86.2,99.2,85.7,98.9z M93.9,103.2c-0.5,0.6-1.2,1.2-1.8,1.5
			c-0.8,0.4-1.6,0.3-2.4-0.1c-0.6-0.2-1.5-0.6-1.9-0.8c-0.6-0.3-0.6-0.7-0.7-1.3c-0.1-0.3-0.2-1.1-0.3-1.9c-0.1-0.5,0-0.6,0.6-1.3
			c0.7-0.8,1.6-1.6,2.1-2c0.2-0.2,0.4-0.3,0.7-0.3c0.2,0,0.5,0.1,0.8,0.1c0.5,0.1,1.8,0.7,2.3,0.9c0.5,0.2,0.4,0.5,0.6,1.2
			c0.2,0.9,0.4,2.3,0.4,3.1C94.3,102.6,94.3,102.8,93.9,103.2z"/>
	</g>
	
		<rect x="39.4" y="95.7" transform="matrix(0.9355 -0.3534 0.3534 0.9355 -31.8301 20.4345)" class="st1" width="1.3" height="3.3"/>
	<polygon class="st1" points="38,93.9 42.6,92.2 44.6,97.4 43.4,97.9 41.8,93.6 38.4,94.9 	"/>
	<polygon class="st1" points="43.8,91.7 46,90.9 48,96.2 45.7,97 45.3,96 46.4,95.6 45.2,92.4 44.1,92.7 	"/>
	<polygon class="st1" points="46.9,90.5 49.1,89.7 51,95 49.8,95.5 48.2,91.2 47.3,91.5 	"/>
	<path class="st1" d="M50.1,89.3l3.5-1.3c0.9-0.3,1.9,0,2.2,1l1.4,3.7l-2.5,0.9l-0.4-1l1.2-0.5l-0.9-2.3c-0.2-0.6-0.5-0.9-1-0.7
		l-1.1,0.4l0.8,4.6l-1.2,0.5L51.4,90l-0.9,0.3L50.1,89.3z"/>
	<path class="st1" d="M56.3,87l1.2-0.4l1.2,2.3c0.8-0.3,0.7-0.5,0.6-1.2L58.8,86l1.2-0.4l0.4,1.7c0.2,0.9-0.1,1.7-1.4,2.2l0.6,1.1
		l1-0.4c1.4-0.5,1.5-1.7,1.1-3.4l-0.4-1.7l1.2-0.4l0.5,2c0.4,1.5,0.4,3.7-1.7,4.5L58.9,92L56.3,87z"/>
	<path class="st1" d="M73.3,86.6l-2-5.3l-5.5,2.1l0.4,1l1-0.4l1.1,2.8c0.1,0.3,0.1,0.5-0.2,0.6l-0.6,0.2l0.4,1l0.8-0.3
		c1-0.4,1.3-1,1-1.8l-1.1-3l2.1-0.8l1.6,4.2L73.3,86.6z"/>
	<polygon class="st1" points="74.2,83.5 75.4,83 74.4,80.2 72.2,81 72.6,82 73.5,81.7 	"/>
	<polygon class="st1" points="77.2,82.3 78.4,81.9 77.4,79 75.2,79.8 75.6,80.9 76.5,80.5 	"/>
	<path class="st1" d="M78.2,78.7l2-0.8c1.2-0.5,2.1,0,2.4,0.9l1.4,3.7L82.9,83l-1.3-3.5c-0.2-0.6-0.6-0.6-1.1-0.4l-1.8,0.7
		L78.2,78.7z"/>
	<rect x="85" y="78.6" transform="matrix(0.9355 -0.3534 0.3534 0.9355 -23.1162 35.5085)" class="st1" width="1.3" height="5"/>
	<polygon class="st1" points="83.3,76.8 88.5,74.8 88.7,80.8 87.5,81.2 87.3,76.4 83.7,77.8 	"/>
	<polygon class="st1" points="93.8,76.2 95,75.8 94,72.9 91.8,73.7 92.2,74.8 93.1,74.4 	"/>
	<polygon class="st1" points="95.1,72.5 97.3,71.7 99.3,76.9 97,77.8 96.6,76.8 97.7,76.4 96.5,73.1 95.5,73.5 	"/>
	<polygon class="st1" points="98.2,71.3 100.4,70.5 102.3,75.8 101.1,76.2 99.5,72 98.6,72.3 	"/>
	<path class="st1" d="M101.2,70.2l2-0.8c1.2-0.5,2.1,0,2.4,0.9l1.4,3.7l-1.2,0.5l-1.3-3.5c-0.2-0.6-0.6-0.6-1.1-0.4l-1.8,0.7
		L101.2,70.2z"/>
	<polygon class="st1" points="107.9,70.9 109.2,70.4 108.1,67.6 106,68.4 106.3,69.4 107.2,69.1 	"/>
	<path class="st1" d="M109.1,67.2l2.7,3.8l-1,0.4l0.4,1l2.3-0.9c0.6-0.2,1-0.6,1.2-1c0.3-0.7,0.2-1.7,0-2.4l-0.8-2.7l-1.2,0.5
		l0.8,2.8c0.3,1,0.4,1.6-0.4,1.9l-2.6-3.9L109.1,67.2z"/>
	<polygon class="st1" points="43.9,79.1 44.9,81.7 47.8,80.7 47.7,85.8 49,85.3 49.1,78.9 45.8,80.2 45.2,78.7 	"/>
	<path class="st1" d="M49.8,78.7l2.5-0.9l2.5,5.4l-1.2,0.4l-0.7-1.4c0,0.8,0.1,1.8-1.3,2.2l-0.4-1.2c1-0.3,1.4-1.7,1.1-2.4l-0.8-1.6
		l-1.3,0.5L49.8,78.7z"/>
	<path class="st1" d="M53.5,77.3l2.1-0.8c1.4-0.5,2.2,0.1,2.6,1l1.4,3.8l-1.3,0.5l-1.4-3.6c-0.2-0.5-0.5-0.8-1-0.6l-2,0.8L53.5,77.3
		z"/>
	<polygon class="st1" points="58.4,75.4 60.6,74.6 62.7,80.1 61.4,80.6 59.7,76.1 58.8,76.5 	"/>
	<polygon class="st1" points="61.6,74.2 66.1,72.5 66.5,73.6 65.8,73.9 67.4,78.3 66.2,78.8 64.5,74.4 62,75.3 	"/>
	<path class="st1" d="M66.9,72.2l1.8-0.7c3.1-1.2,5.3,4.3,2.1,5.5l-1.8,0.7l-0.4-1.1l1.5-0.6c1-0.4,1.1-1.6,0.6-2.5
		c-0.4-0.7-1.1-1.2-1.9-0.9l-1.5,0.6L66.9,72.2z"/>
	<polygon class="st1" points="74.2,69.5 76.4,68.6 79.1,75.8 77.9,76.3 75.5,70.2 74.6,70.5 	"/>
	<polygon class="st1" points="77.4,68.3 79.6,67.4 81.7,72.9 80.4,73.4 78.7,69 77.8,69.3 	"/>
	<polygon class="st1" points="80.6,67.1 85.1,65.3 85.5,66.4 84.8,66.7 86.4,71.1 85.1,71.6 83.5,67.2 81,68.1 	"/>
	<polygon class="st1" points="91.6,62.9 93.8,62.1 95.9,67.6 94.6,68 92.9,63.6 92,64 	"/>
	<path class="st1" d="M87.7,69.4l1-0.4l-2.8-4l1.3-0.5l2.8,4l0.2-0.1c0.4-0.1,0.6-0.4,0.2-1.8l-0.8-3l1.3-0.5l0.9,3
		c0.3,1.1,0.4,2.7-1.2,3.3l-2.5,0.9L87.7,69.4z"/>
	<path class="st1" d="M94.9,61.7l3.5-1.3c1.1-0.4,2.2,0,2.5,1l1.4,3.8l-2.6,1L99.4,65l1.3-0.5l-1-2.6c-0.2-0.5-0.5-0.7-1-0.5
		l-1.1,0.4l0.8,4.8L97,67.1l-0.8-4.8l-1,0.4L94.9,61.7z"/>
	<polygon class="st0" points="59.2,140.6 59,140.9 59.6,141.2 	"/>
	<g>
		<path class="st2" d="M78.3,144.1v0.1l0,0C78.3,144.2,78.3,144.2,78.3,144.1z"/>
		<path class="st1" d="M78,124.5l-0.3,1.3l0.6,0.1v-1.4L78,124.5z"/>
		<path class="st1" d="M88,144.7c-0.3-0.7-0.5-1.2-1.1-1.7c-0.6-0.5-1.4-0.9-2.3-1.3c-0.7-5.1-1.4-12.7-2.1-18.4
			c-0.5-3.9-1-6.6-1.8-7.2l-0.1-0.5l-0.5-0.1c0.2-0.9,0.3-1.6,0.6-2c0.3-0.4,0.6-0.6,1.1-0.6c0.1-1.5-0.2-2.1-0.5-2.5
			c-0.4-0.5-0.9-0.9-1.3-1.6l-0.8,0.7c-0.4-0.2-0.7-0.5-0.9-1c-0.1-0.2-0.1-0.5-0.2-0.8l0.2,0l0.6,0v-0.6l-0.5-0.1l-0.1-0.5l0,0
			v-6.1c-0.3-0.3-0.5-0.9,0-1.4v-12L34.6,104c0,0,0,0,0,0c0.2,1.3,0.4,2.6,0.7,3.9c0.3,1.3,0.6,2.5,0.9,3.8c0.5,1.8,1,3.6,1.7,5.4
			c0.6,1.8,1.3,3.5,2,5.2c1,2.4,2.2,4.7,3.5,7c1.3,2.3,2.7,4.5,4.3,6.6c0.9,1.2,1.8,2.4,2.8,3.6c1,1.2,2,2.4,3,3.5
			c0.7,0.8,1.5,1.6,2.3,2.3c0.8,0.8,1.6,1.5,2.4,2.2c0.9,0.8,1.8,1.5,2.7,2.3c0.9,0.8,1.9,1.5,2.8,2.2c1.1,0.8,2.3,1.6,3.4,2.4
			c1.2,0.8,2.4,1.6,3.6,2.3c1.2,0.8,2.5,1.5,3.8,2.1c1.2,0.7,2.5,1.3,3.9,2v-12.6l10.2,0.1l0-3.4L88,144.7z M87.2,143.9l-0.1,0.9
			l-1.1-0.1l-1.2-1.8C86.3,142.8,86.6,143.6,87.2,143.9z M84.8,144.8l-1.4-0.1c-0.2-0.3-0.3-0.8-0.3-1.5l1,0
			C84.6,143.6,84.8,144.2,84.8,144.8z M80,132.1c0.4,2,1,4.6,1.5,5.6c0.1-0.2,0.2-0.5,0.2-0.8c0-1.2-0.6-2.7-0.6-4.2
			c0-0.6,0.1-1.1,0.4-1.3l1,0c0.9,2.9,1.5,6.8,1.9,10.8c-1.1,0.1-1.1,0-1.9,0.8l-1.2-0.2c-0.5-1.5-0.9-3-1.5-4.5
			c-0.4-1.2-0.8-2.3-1.3-3.4c-0.1-0.3-0.3-0.7-0.4-1l0.4-0.7l-0.4-0.4l-0.8,0c-0.3-0.1-0.6-0.4-0.7-0.7c-0.3-0.6-0.2-1.5-0.1-2.6
			l0.7,0l0.5,0.5c0.3-0.4,0.1-0.9,0.2-1.3c0.2-0.2,0.4-0.3,0.6-0.5c0.6-0.5,1.1-0.7,1.6-0.7c0.6,0,1,0.3,1.6,0.8
			c0.4,0.3,0.9,0.7,1.4,1.1l-0.1,1.2l-1.6-0.1l-0.5,0.8c-0.6,0-1-0.2-1.4-0.1C79.4,131.9,79.5,132,80,132.1z M82.5,144.8l-1.6-0.1
			c-0.1-0.2-0.1-0.5,0-0.9l1.4,0.2L82.5,144.8z M77.4,142.8c-0.5-0.3-1.3-0.3-2.2-0.3c-0.2-0.4-0.6-0.8-1-1c-0.5-0.3-1.2-0.4-2-0.6
			c0.7-1.2,2.8-2.1,3.3-3.4l0.5-0.1l1.4-2h0.5c0.2,0.3,0.3,0.6,0.5,0.9c0.5,1.1,0.9,2.1,1.2,3.2c0.5,1.7,0.6,3.3,0.5,5.2l-1.7-0.1
			l-0.7,0l0.7-0.4v-0.1C78.1,143.6,77.9,143.1,77.4,142.8z M63.4,134.1l4-7.5c3.5-0.1,6.1,0.1,7.2,0.8c1,0,1.7-0.4,2.5-0.4
			c0.4,0,0.8,0.1,1.1,0.3c-0.2,0.6-0.6,1-1.1,1.4c-0.4,0.3-0.8,0.4-1.4,0.6c-0.3,0.5-0.4,1-0.4,1.5c0,1.2,0.8,2.1,1.8,3
			c0,1.2-1,2.6-1.8,3.5c-0.6,0.7-1.4,1.3-2.2,1.6c0.5-1.9,0.9-3.8,1.1-5.6h-0.5l-0.3,0.7c-0.7-0.8-2.1-1.5-3.7-1.5
			c-1.2,0-2.6,0.3-4.2,0.8c0.4,0.3,2,0.2,3.5,0.2c0.7,0,1.6,0,2.3,0.1c0.4,0.1,0.8,0.1,1.1,0.2c0.3,0.1,0.5,0.2,0.5,0.4
			c0.4,1.3,0.4,2.4,0.1,3.4c-0.2,0.7-0.5,1.3-0.6,1.7c-0.7,1.5-1.6,2.8-2.4,3.9c-1.5-0.1-3-0.2-4.3-0.3c-1.4-0.1-2.4-0.3-3-1.2
			c-0.5-0.8-0.7-2.1-0.7-3.4C63.3,136,64,134.4,63.4,134.1z M75.5,113.1c0.6,0.2,1.1,0.5,1.4,1.1c0.3,0.6,0.4,1.4,0.4,2.4l-0.8,0
			c-0.3,0.8,0.3,5.2,0.4,7.8c-0.7-0.2-1.3-0.1-1.9,0.1l-0.2,1.7l1.1,0.2l0.5-0.6l-0.4-0.3l-0.4,0.3l-0.1-0.7l1.1,0.1l-0.1,1.4
			l-0.6,0.4l-1.5-0.2c-0.3-0.7-0.4-1.6-0.4-2.6c0-2.5,0.6-5.6,1-7.8l1.2-0.3C76,114.9,75.9,113.8,75.5,113.1z M71.5,141.8
			c1.6,0,2.4,0.2,3.2,0.8l-0.7,0.5l-3,0L71.5,141.8z M64.3,142.9c1.5,0,4.4,0.5,5.6,0.7c1.9-0.1,3.6-0.3,4.9-0.3
			c1.4,0,2.2,0.2,2.8,0.4l-0.2,0.3l-1.6,0.7L61,144.5C60.8,143.2,62,143,64.3,142.9z M82.8,128.4l-0.2,0.2l-0.3-0.4L82.8,128.4z
			 M80.2,116c0.5,0.6,0.9,1.4,1.1,2.4l-0.5,0.2c0.7,2.6,1.2,5.2,1.4,7.5l-1,0.1l-0.2,0.7l0.2,0.3h0.8l0.1-0.6l0.3,0.3l-0.1,0.9
			l-1.5-0.5c-0.2-0.5-0.3-1.3-0.5-2.4c-0.2-2-0.6-4.6-0.8-6.6l1.3,0.1l-0.9-0.6l-0.2-1.7L80.2,116z M78.3,109.4
			c0.3,0.3,0.7,0.5,1.4,0.8l0.3-0.4c0.2,0.2,0.6,0.5,0.9,0.7c0.5,0.4,0.6,0.7,0.5,2.2h-0.8c0-0.3-0.1-0.5-0.3-0.5
			c-0.4,0-0.9,1.9-1.5,5.1l-0.5,0.2c0.7,0.5,1.1,3.7,1.3,7.2l-1.4-0.1v1.4l0.8,0.1c0-0.2-0.5-0.5-0.7-0.8c0.5-0.1,0.9,0,1,0.2v1
			l-0.9,0.5l-0.3-0.1l-0.8-0.4l-0.4-8.7l1-0.7c-0.1-0.9-0.3-1.6-0.3-2.6l0.6,0.7l0.3,0.4l0.2-0.3c-0.1-0.4-0.2-0.6-0.5-0.9
			c-0.2-0.2-0.5-0.4-0.8-0.7c-1.2-1-2.7-1.7-4.2-1.7c-0.4,0-0.9,0-1.3,0.1c0.2,0.3,0.3,0.3,0.7,0.4c0.3,0,0.5,0,0.6,0.4
			c0,0.1,0,0.2,0.1,0.2l0.3-0.6l0.7,0c0.4,0.5,0.6,1,0.8,1.6c0.2,0.6,0.2,1.2,0.3,1.9c-0.6-0.1-0.9-0.3-1.1-0.5
			c-0.5-0.6-0.4-2-0.7-2.3l0,1.4c-0.1,0.3-0.3,0.4-1,0.4l-0.3-1.8c-0.3,0.7-0.5,1.5-0.7,2.3l0.5,0.1c0.1,0.8,0,1.9,0.2,2.3l0.7-2.1
			h0.9c0.1,2.8,0,5-0.2,8c-0.6,0-1,0.1-1.4,0.2c-0.5,0.2-0.5,0.2-0.5,0.8c0,0.4-0.1,0.8,0.1,1.3l0.8-0.1l0.3-1.3l-0.5,0l-0.1,0.6
			l0-0.7l0.9-0.2l0.1,1.7l-0.3,0.3l-2-0.1c0.4-2.9,1.3-7.6,1-8.5l-1.4,6.8l-1.6-0.2l-0.3,1.6l1.1,0.3l-0.1-1.1l-0.7,0.1v-0.4
			l1.1,0.2v1.3c-1.1,0.1-1.5,0-1.8-0.3c0.3-1.7,0.6-3.4,0.9-5.1c0.3-1.6,1-4.6,0.8-4.6l-2,7.7c0.1-2.8,0.3-5.4,0.9-7.7
			c1.5,0,1.6-0.7,2.3-0.9v-0.1l-0.5-0.2c-0.1-1,0-1.9,0.1-3c-0.4,0.4-0.7,1.5-0.8,3.3h-1.6c0.1-1.9,0.4-3.6,1.6-5
			c0.8-1,1.9-1.8,2.8-2.8c0.4-0.4,0.8-0.8,1.2-1.3h1.3c-0.2,0.4-0.8,1.1-1.2,1.7l-1.4,1.9l0.5,0.1c0.6-0.9,1.1-1.9,1.8-2.4
			c0.7-0.5,1.5-0.5,2.5-0.5c0.1,0.8,0.1,1.4,0.4,1.9C78,109.1,78.1,109.3,78.3,109.4z M88.2,147.7l-5.8,0.3l-4-0.1l-17.9-0.4
			l0.1-2.2l17.8,0.2l9.9,0.1L88.2,147.7z"/>
		<path class="st1" d="M69.4,138.6l0-1.9c-1.5,0.1-2.6,0.4-3.2,1.2c-0.6,0.7-0.7,1.7-0.6,3l-0.5-0.2c0-1.4,0.2-2.5,0.9-3.3
			c0.7-0.9,2-1.3,3.9-1.4C70.1,137.1,69.8,138.1,69.4,138.6z"/>
	</g>
	<path class="st1" d="M129.2,79.5C129.2,79.5,129.2,79.5,129.2,79.5c-0.7-7.2-1.9-12.9-4-19.8c-0.3-1-1.1-1.9-2.1-2.3
		c-6.8-2.7-14-4.8-22.1-6.6c-6-1.3-12.3-2.2-18-2.5c-1.6-0.1-3.1-0.1-4.5-0.1c-7,0-14.8,0.9-22.5,2.6c-8.1,1.8-15.4,3.9-22.1,6.6
		c-1,0.4-1.8,1.2-2.1,2.3c-2.1,6.9-3.3,12.6-4,19.8c-0.8,8-0.6,16.6,0.6,24.9c0.4,2.7,1,5.5,1.8,8.5c1.1,4.2,2.5,8.1,4.1,11.7
		c2.6,5.8,5.4,10.8,8.6,15.1c1.8,2.4,4,5.3,6.4,7.8c1,1,1.8,1.9,2.7,2.7l0,0c0.1,0.1,0.1,0.1,0.2,0.2c0.3,0.3,0.6,0.6,0.9,0.8
		c0,0,0,0,0.1,0.1c0.5,0.5,1,0.9,1.4,1.3c1.1,1,2.1,1.8,3.1,2.6l0.1,0c0.3,0.2,0.5,0.4,0.8,0.6c0.1,0.1,0.4,0.3,0.4,0.3
		c0.6,0.5,1.2,0.9,1.8,1.3c2.6,1.9,5.2,3.6,7.7,5.2c2.5,1.5,5.1,2.9,8.6,4.6c0.5,0.3,1.1,0.4,1.6,0.4s1.1-0.1,1.6-0.4
		c3.5-1.7,6.1-3.1,8.6-4.6c2.5-1.5,5.1-3.2,7.7-5.2c2.3-1.7,4.4-3.4,6.1-4.9c2-1.7,3.8-3.6,5.2-5.1c2.5-2.6,4.6-5.4,6.4-7.8
		c3.2-4.4,6.1-9.3,8.6-15.1c1.6-3.6,3-7.5,4.1-11.7c0.8-3,1.4-5.8,1.8-8.5C129.7,96,130,87.4,129.2,79.5z M125,103.8
		c-0.4,2.8-1,5.5-1.7,8.1c-1,3.9-2.3,7.6-3.9,11.2c-2.2,5-4.8,9.9-8.2,14.4c-1.9,2.5-3.9,5.1-6.1,7.5c-1.6,1.6-3.2,3.3-5,4.8
		c-1.8,1.6-3.8,3.2-5.8,4.8c-2.3,1.7-4.8,3.4-7.5,5c-2.6,1.6-5.3,3-8.3,4.5c-3.1-1.5-5.7-2.9-8.3-4.5c-2.6-1.6-5.1-3.3-7.5-5
		c-0.6-0.4-1.1-0.8-1.7-1.3c-0.1-0.1-0.3-0.2-0.4-0.3c-0.2-0.2-0.5-0.4-0.7-0.6c0,0,0,0-0.1,0c-1-0.8-2-1.7-3-2.6
		c-0.5-0.4-1-0.9-1.5-1.3c-0.3-0.2-0.5-0.5-0.8-0.7l0,0c-0.1-0.1-0.1-0.1-0.2-0.1c-0.9-0.9-1.7-1.7-2.6-2.6c-2.2-2.3-4.3-5-6.1-7.5
		c-3.4-4.5-6-9.4-8.2-14.4c-1.6-3.6-2.9-7.3-3.9-11.2c-0.7-2.6-1.3-5.3-1.7-8.1c-1.1-7.4-1.4-15.8-0.6-24c0.6-6.3,1.6-11.9,3.9-19.1
		c7-2.7,14.2-4.8,21.6-6.4c6.9-1.5,14.6-2.5,21.7-2.5c1.4,0,2.8,0,4.3,0.1c5.8,0.3,11.9,1.2,17.4,2.4c7.4,1.6,14.6,3.7,21.6,6.4
		c2.2,7.1,3.2,12.7,3.9,19.1c0,0,0,0,0,0C126.4,88,126,96.4,125,103.8z"/>
</g>
</svg>
