<?xml version="1.0" encoding="utf-8"?>
<!-- Generator: Adobe Illustrator 24.2.3, SVG Export Plug-In . SVG Version: 6.00 Build 0)  -->
<svg version="1.1" id="Layer_1" xmlns="http://www.w3.org/2000/svg" xmlns:xlink="http://www.w3.org/1999/xlink" x="0px" y="0px"
	 viewBox="0 0 156.8 167.7" style="enable-background:new 0 0 156.8 167.7;" xml:space="preserve">
<style type="text/css">
	.st0{fill:#FFFFFF;}
	.st1{fill-rule:evenodd;clip-rule:evenodd;fill:#FFFFFF;}
	.st2{fill-rule:evenodd;clip-rule:evenodd;fill:#493C3B;}
	.st3{fill:#D6D6D6;}
	.st4{fill:#606060;}
</style>
<g>
	<g>
		<polygon class="st0" points="66.1,0 65.6,7.2 58.6,9 65.3,11.7 64.8,19 69.5,13.4 76.2,16.1 72.4,10 77,4.4 70,6.2 		"/>
		<polygon class="st0" points="29.6,19.4 35.9,23.1 41.3,18.2 39.8,25.3 46,28.9 38.8,29.7 37.3,36.8 34.4,30.2 27.1,30.9 
			32.5,26.1 		"/>
		<polygon class="st0" points="107.5,0 103.7,6.2 96.6,4.4 101.3,10 97.5,16.1 104.2,13.4 108.9,19 108.4,11.7 115.1,9 108,7.2 		
			"/>
		<polygon class="st0" points="144.1,19.4 137.8,23.1 132.4,18.2 133.9,25.3 127.6,28.9 134.9,29.7 136.4,36.8 139.3,30.2 
			146.5,30.9 141.1,26.1 		"/>
	</g>
	<g>
		<path class="st0" d="M86.7,159.1c-9.4,0-18.3-2.3-26.1-6.4l-5.7,9l-12.6-19.8H16.1l13.1-20.6l-13.1-20.6h14
			c0.9-30.4,25.9-54.8,56.6-54.8c31.3,0,56.6,25.3,56.6,56.6C143.4,133.7,118,159.1,86.7,159.1 M141.9,79.2c-3-7.1-7.3-13.5-12.8-19
			c-5.5-5.5-11.9-9.8-19-12.8c-7.4-3.1-15.2-4.7-23.3-4.7c-15.7,0-30.5,6-41.7,16.9C34.6,69.7,28.3,83.1,27.1,97.5H10.3l15.1,23.8
			l-15.1,23.8h30.3l14.4,22.6l6.9-10.9c7.8,3.6,16.3,5.4,24.9,5.4c8.1,0,15.9-1.6,23.3-4.7c7.1-3,13.5-7.3,19-12.8
			c5.5-5.5,9.8-11.9,12.8-19c3.1-7.4,4.7-15.2,4.7-23.3S145,86.6,141.9,79.2"/>
		<path class="st0" d="M79.6,92.6l14.7-1.7l6.2-9.8l-6.2-7.7c-2.1-0.4-4.2-0.7-6.4-0.7c-3.9,0-7.6,0.7-11,2.1l-5.1,8.5L79.6,92.6z"
			/>
		<path class="st0" d="M64.9,126.6v8.3H81l-8.7-13.6l8.7-13.6H62.4l-3.4,5.2c-0.2,0.3-0.6,0.3-0.8,0.1l-4.3-5.3h-5.3l4.1,7.4
			c0,0,0.4,0.6,0.4,1.2v19.5l4.3-5.6v-14.6h10.5c0,0,1.3,0.9,1.3,2.4v8.6L64.9,126.6L64.9,126.6z M59.4,133.4l-2.6,3.5
			c0,0-0.3,0.5-1.1,0.5h-8l7.2,11.4l8-12.6v-18.3h-3.5C59.4,117.9,59.4,133.4,59.4,133.4z M33.8,115.5h2.6l-1.3,2l1.1,1.8l0.5,0.8
			l3-4.7v-7.8H28.8L33.8,115.5z M43.9,121.2c0-1.3-1.1-2.4-2.4-2.4c-1.3,0-2.4,1.1-2.4,2.4c0,1.3,1.1,2.4,2.4,2.4
			C42.9,123.7,43.9,122.6,43.9,121.2 M49.4,113.5l-3.2-5.8l-5,7.8h4.6v11H34.2l-5.4,8.5h22.3v-8.5h-1.7
			C49.4,126.5,49.4,113.5,49.4,113.5z M58.6,110.4l3.4-5.2l-7.2-11.3l-7.6,11.9h7.6L58.6,110.4z M54.9,86.9l10.8,17.1h22.1
			l-11.1,17.4l11.1,17.4H65.7l-10.8,17.1l-10.8-17.1H22L33,121.3L22,103.9h22.1L54.9,86.9z"/>
		<path class="st0" d="M95.4,91.7l5.4,13.2l12.6,2.6l4-7.7c-0.6-6.1-3-11.7-6.7-16.2l-9.3-1.8L95.4,91.7z"/>
		<path class="st0" d="M101.5,130.7l-1.7,6c9.7-3.4,17.4-10.8,21.4-20.2l-6.3,1.6C111.8,123.6,107.1,127.9,101.5,130.7"/>
		<path class="st0" d="M118.9,99.5l5.1,2.9c-0.1-10.3-4.4-19.7-11.5-26.2l-0.6,6.6C115.8,87.4,118.3,93.1,118.9,99.5"/>
		<path class="st0" d="M59.8,88.5c0.4-0.8,0.9-1.7,1.4-2.5l-2.1-5.7c-0.8,1.1-1.6,2.2-2.3,3.4l0.9,1.4L59.8,88.5z"/>
		<path class="st0" d="M87.8,71.3c2.3,0,4.5,0.2,6.6,0.7l5-3.7c-3.6-1.2-7.6-1.9-11.6-1.9c-6.8,0-13.2,1.9-18.6,5.1l7.1,2
			C79.8,72,83.7,71.3,87.8,71.3"/>
		<path class="st0" d="M100.6,106.2l-10.6,9.7l1.4,11.7l9.4,1.8c3-1.5,5.7-3.4,8.1-5.8c1.9-1.9,3.5-4,4.8-6.3l-0.5-8.6L100.6,106.2z
			"/>
		<path class="st0" d="M62.4,86.7c-0.6,1-1.2,2.1-1.7,3.2l6.8,10.8h9.6l1.4-7.1l-8-9.4L62.4,86.7z"/>
		<polygon class="st0" points="88.5,116 85.3,113.9 80.6,121.3 86.2,130.1 90,127.8 		"/>
		<polygon class="st0" points="48.7,65.6 53.3,69.2 53.3,69.2 50,64.4 51.9,62.6 59.2,69.2 57.7,70.5 52.7,65.6 52.6,65.6 54,67.6 
			56.5,71.6 55.4,72.6 51.6,69.8 49.9,68.4 49.8,68.3 49.8,68.3 54.3,73.6 52.7,75 46.8,67.3 		"/>
		<path class="st0" d="M59,61.9l-1-1.1l0,0l0.7,1.3l1.2,2.3l1.1-0.8L59,61.9z M57.3,58.2l7.6,6.5l-1.7,1.2L62,64.8L60.4,66l0.7,1.5
			l-1.5,1.1l-3.9-9.2L57.3,58.2z"/>
		<path class="st0" d="M66.3,55c-0.3,0-0.5,0.1-0.7,0.1c-1.6,0.6-1.8,2.2-1.3,3.7c0.5,1.4,1.8,2.8,3.3,2.3c0.2-0.1,0.4-0.2,0.6-0.4
			l0.6,1.7c-0.2,0.2-0.5,0.3-0.8,0.5c-2.6,0.9-4.9-0.9-5.7-3.4c-0.8-2.3-0.1-5.1,2.4-6c0.3-0.1,0.6-0.2,1-0.2L66.3,55z"/>
		<path class="st0" d="M72.4,52.5c-0.3,0-0.5,0-0.7,0.1c-1.6,0.5-1.9,2.2-1.5,3.6c0.4,1.4,1.6,2.9,3.2,2.4c0.2-0.1,0.5-0.2,0.7-0.3
			l0.5,1.7c-0.2,0.2-0.5,0.3-0.8,0.4c-2.7,0.8-4.8-1.2-5.6-3.6c-0.7-2.3,0.1-5.1,2.7-5.9c0.3-0.1,0.6-0.1,1-0.1L72.4,52.5z"/>
		<path class="st0" d="M78.7,53.5L78.2,52h0l0,1.5l-0.1,2.6l1.3-0.2L78.7,53.5z M79,49.4l3.6,9.3l-2,0.3L80,57.5L78,57.7l-0.1,1.7
			L76,59.6l0.9-10L79,49.4z"/>
		<path class="st0" d="M86.1,54.4v2.6c0.8,0,1.2-0.5,1.2-1.3C87.3,55,86.8,54.4,86.1,54.4 M86.1,50.6v2.4c0.7,0,1.1-0.5,1.1-1.2
			C87.2,51,86.8,50.5,86.1,50.6 M84.1,58.7v-9.7H86c0.7,0,1.4,0,2,0.5c0.6,0.5,1,1.4,1,2.2c0,0.9-0.3,1.5-1,2
			c0.8,0.4,1.2,1.4,1.2,2.3c0,1.9-1.4,2.7-3.2,2.7H84.1z"/>
		
			<rect x="87.5" y="53" transform="matrix(7.140341e-02 -0.9974 0.9974 7.140341e-02 31.9648 142.2543)" class="st0" width="9.7" height="1.9"/>
		<polygon class="st0" points="107.5,53.4 106.9,55.1 105.5,54.6 102.9,62.1 101,61.4 103.7,53.9 102.3,53.4 102.9,51.7 		"/>
		<polygon class="st0" points="112.3,55.8 111.5,57.4 109.7,56.5 108.8,58.4 110.3,59.2 109.5,60.8 108,60 107,62 108.8,62.9 
			107.9,64.5 104.5,62.8 108.8,54.1 		"/>
		<polygon class="st0" points="115.3,57.5 111.2,64.3 113,65.4 112,66.9 108.7,64.9 113.7,56.6 		"/>
		
			<rect x="115" y="63.2" transform="matrix(0.5967 -0.8024 0.8024 0.5967 -5.2479 119.1349)" class="st0" width="1.7" height="3.2"/>
		<path class="st0" d="M120.7,66.9l0.8-1.2l0,0l-1.1,1l-2,1.7l1,0.9L120.7,66.9z M124,64.5l-4.8,8.8l-1.5-1.4l0.8-1.5l-1.5-1.3
			l-1.4,1l-1.4-1.3l8.2-5.7L124,64.5z"/>
		<path class="st0" d="M127.7,68.8l-3,3.7c-0.3,0.5-0.7,0.9-1.1,1.3l0,0c0.5-0.3,1-0.6,1.5-0.8l4.4-1.9l1.2,1.6l-9.4,3.7l-1-1.3
			l6.1-8.1L127.7,68.8z"/>
		
			<rect x="123" y="76.4" transform="matrix(0.8444 -0.5357 0.5357 0.8444 -21.5712 80.5215)" class="st0" width="9.7" height="1.9"/>
		<path class="st0" d="M133.9,78.5l-3.7,3.1c-0.4,0.4-0.9,0.7-1.4,1l0,0c0.6-0.2,1.1-0.4,1.7-0.5l4.7-0.9l0.9,1.8l-10,1.8l-0.7-1.4
			l7.6-6.7L133.9,78.5z"/>
		<polygon class="st0" points="140,96.4 139.7,94.4 131.9,93 137.5,92.2 137.5,93.4 139.6,93.4 139.1,90.1 129.4,91.5 129.7,93.4 
			129.7,93.4 129.9,95 132.9,95.4 132.9,95.4 130.1,95.9 130.4,97.8 133.8,97.3 133.8,95.5 		"/>
		<path class="st0" d="M132.4,104.2l-1.7,0.1l-0.2-5.1c0,0,6-0.3,7.4-0.4c1.3-0.1,2.3,1,2.3,1l0.2,4l-1.7,0.1l-0.1-3.4l-6.1,0.3
			L132.4,104.2z"/>
		<polygon class="st0" points="129.5,110.7 130.3,105.8 138.1,107 138.2,106.3 140.1,106.6 139.3,112.2 137.4,111.9 137.8,108.9 
			131.9,108 131.4,111 		"/>
		<polygon class="st0" points="129,113.4 129.4,111.7 133.5,112.6 133.1,114.3 		"/>
		<polygon class="st0" points="124.8,123.2 127,118.2 136,122.1 135.2,123.9 128,120.7 127.3,122.2 134.6,125.3 133.6,127.7 
			131.8,127 132.1,126.3 		"/>
		<path class="st0" d="M123.9,124.6l-2,3.1l-0.8-0.5l-1,1.6l2.6,1.7l2-3c4.8,3.1,6.1,4.9,5.8,5.3l1-1.6
			C131.8,130.6,130.2,128.4,123.9,124.6"/>
		
			<rect x="121" y="133.2" transform="matrix(0.7107 -0.7035 0.7035 0.7107 -58.7569 125.3382)" class="st0" width="3.9" height="1.7"/>
		<path class="st0" d="M121.1,142.6l1.6-1.1l-3.2-2.1c-0.1-0.1-0.2-0.2-0.1-0.6l0.4-1.4c0.1-0.4-0.4-0.9-0.4-0.9l-2.2-3.1l-1.6,1.1
			l2.2,3.1c0.1,0.2,0.1,0.5,0.1,0.7l-4-2.6l-1.6,1.1l3.2,2.1l0.1,0.1c0.1,0.1,0.2,0.2,0.1,0.6l-0.4,1.4c-0.1,0.4,0.4,0.9,0.4,0.9
			l2.2,3.1l1.6-1.1l-2.2-3.1c-0.1-0.2-0.1-0.5-0.1-0.7L121.1,142.6z"/>
		<polygon class="st0" points="106,140.5 110.2,137.8 114.4,144.6 115,144.2 116,145.8 111.1,148.8 110.1,147.2 112.7,145.6 
			109.6,140.5 107,142.1 		"/>
		
			<rect x="104.2" y="141.1" transform="matrix(0.8573 -0.5148 0.5148 0.8573 -58.7318 74.5177)" class="st0" width="1.7" height="4.2"/>
		<polygon class="st0" points="97.4,145.1 101.7,142.6 105.7,149.5 106.3,149.1 107.3,150.8 102.4,153.6 101.4,152 104.1,150.4 
			101,145.2 98.4,146.8 		"/>
	</g>
</g>
</svg>
