<?xml version="1.0" encoding="utf-8"?>
<!-- Generator: Adobe Illustrator 24.2.3, SVG Export Plug-In . SVG Version: 6.00 Build 0)  -->
<svg version="1.1" id="Layer_1" xmlns="http://www.w3.org/2000/svg" xmlns:xlink="http://www.w3.org/1999/xlink" x="0px" y="0px"
	 viewBox="0 0 156.8 167.7" style="enable-background:new 0 0 156.8 167.7;" xml:space="preserve">
<style type="text/css">
	.st0{fill:#FFFFFF;}
	.st1{fill-rule:evenodd;clip-rule:evenodd;fill:#FFFFFF;}
	.st2{fill-rule:evenodd;clip-rule:evenodd;fill:#493C3B;}
	.st3{fill:#D6D6D6;}
	.st4{fill:#606060;}
</style>
<g>
	<polygon class="st0" points="111.4,81.4 117.9,75 117.6,75 106.4,56.3 95.2,75 106.8,75 	"/>
	<polygon class="st0" points="138.7,77.3 118.9,77.3 111.9,84.2 110.6,84.2 105.4,77.3 98.2,77.3 106.4,88.8 106.3,108.6 
		110.4,104.6 110.4,88.8 122.6,88.7 125.9,93.1 125.9,100.1 120.1,100.1 120.1,109.9 138.6,109.9 128.9,93.7 	"/>
	<polygon class="st0" points="103.8,99.9 102.4,99.9 102.4,87.9 95.1,77.3 89.3,77.3 87.5,87.8 92.5,87.8 96.7,94 96.7,99.9 
		80.2,99.9 74.2,109.9 103.8,109.9 	"/>
	<polygon class="st0" points="112.8,105.7 106.1,112.3 95.2,112.4 106.4,131 117.6,112.4 117.7,112.4 117.7,91.1 112.8,91.1 	"/>
	<polygon class="st0" points="85,87.8 86.8,77.3 74.1,77.3 82,90.4 	"/>
	<path class="st0" d="M84.2,93.9c0,1.4,1.2,2.6,2.7,2.6s2.7-1.2,2.7-2.6c0-1.4-1.2-2.6-2.7-2.6S84.2,92.5,84.2,93.9z"/>
	<path class="st0" d="M101.8,133.6c-6.1,5.9-14.4,9.5-23.6,9.6v-2.6l11.5-7.9l9.4-1.5l-0.2-1.2l-8.7,1.4l-4.9-11.4l0.3-3l-1.2-0.1
		l-0.3,3l-19.6,1.7l-4.2-7.6l11.4-14.9h3.3V98h-3.6l-7-9.5l6.3-7.2l-0.9-0.8L63,88.3l-12.1,6.1L48,90.7c4.2-7,10.8-12.3,18.6-15
		l-0.7-2C51.4,78.6,41,92.3,41,108.5c0,20.3,16.4,36.7,36.7,36.7c9.9,0,18.8-3.9,25.4-10.2L101.8,133.6z M43.1,108.6
		c0-6.1,1.6-11.8,4.3-16.8l2.9,3.8l-1.9,14.1l-4.7,5.4C43.3,113,43.1,110.8,43.1,108.6z M44,116.6l4.9-5.6l10.1,3.2l4.6,8.3
		l-1.3,10.4H53C48.7,128.5,45.5,122.9,44,116.6z M77,143.3c-8.8-0.2-16.7-3.6-22.8-9.2h8l14.7,6.3L77,143.3L77,143.3z"/>
	<g>
		<polygon class="st0" points="62,56.3 61.9,59.7 64,59.1 		"/>
		<polygon class="st0" points="47.1,67.8 44.2,65.9 45.5,69.1 		"/>
		<path class="st0" d="M29.7,85.4c-0.4-0.2-0.6-0.1-0.9,0.1c-0.2,0.2-0.4,0.5-0.5,0.8L27.6,88l1.7,0.7l0.8-1.9
			c0.1-0.3,0.2-0.6,0.2-0.9C30.2,85.8,30,85.6,29.7,85.4z"/>
		<polygon class="st0" points="26.1,123.8 29.5,124 29,121.9 		"/>
		<path class="st0" d="M33.6,87.5c0-0.4-0.3-0.7-0.7-0.9c-0.4-0.2-0.7-0.1-1,0.1c-0.2,0.2-0.3,0.4-0.5,0.7l-0.8,1.9l2,0.9l0.8-1.9
			C33.5,88,33.6,87.7,33.6,87.5z"/>
		<polygon class="st0" points="28.6,97.5 29.1,95.4 25.7,95.7 		"/>
		<path class="st0" d="M121.4,118.5c-4.7,19.7-22.5,34.4-43.7,34.4c-24.8,0-44.9-20.1-44.9-44.9S53,63.1,77.8,63.1
			c5.2,0,9.7,0.6,14.3,2.3l7.4-12.8c-7.1-3.4-14.3-4.4-21.6-4.4c-33,0-59.8,26.8-59.8,59.8s26.8,59.8,59.8,59.8
			c29.4,0,53.8-21.2,58.8-49.2L121.4,118.5z M88.7,59.8l1.7,0.4L90,61.8l-1.7-0.4L88.7,59.8z M80.4,56.1c0.2-1.5,0.7-2.5,1.5-3.2
			c0.7-0.6,1.6-0.9,2.6-0.8c1.4,0.2,2.3,0.7,2.8,1.7c0.3,0.5,0.4,1.1,0.4,1.6l-1.7-0.2c-0.1-0.4-0.2-0.7-0.3-1
			c-0.3-0.4-0.7-0.6-1.3-0.7c-0.6-0.1-1.1,0.1-1.5,0.6c-0.4,0.5-0.7,1.2-0.8,2.1s0,1.7,0.3,2.2s0.8,0.8,1.3,0.8
			c0.6,0.1,1.1-0.1,1.4-0.5c0.2-0.2,0.4-0.5,0.5-0.9l1.7,0.2c-0.2,0.9-0.7,1.6-1.4,2.1c-0.7,0.5-1.5,0.7-2.4,0.6
			c-1.2-0.1-2-0.6-2.6-1.5C80.5,58.5,80.2,57.4,80.4,56.1z M77,58.5l1.7,0l0,1.7l-1.7,0L77,58.5z M76.5,51.8l0.1,1.5l-4.2,0.4
			l0.2,1.9l3.6-0.3l0.1,1.5L72.8,57l0.3,3.5l-1.7,0.2l-0.8-8.3L76.5,51.8z M60.5,54.7l1.9-0.6l5.2,7.1l-1.8,0.5l-1-1.5l-2.9,0.9
			l0,1.8l-1.7,0.5L60.5,54.7z M56.6,56.1l0.6,1.3l-3.8,1.8l0.8,1.7l3.3-1.6l0.6,1.3L55,62.3l1.5,3.2l-1.5,0.8l-3.6-7.5L56.6,56.1z
			 M49.2,60l4.3,7.1L52.1,68l-4.3-7.1L49.2,60z M43.8,63.8l7.5,4.7l-1.5,1.2l-1.5-1L46,70.6l0.6,1.7l-1.4,1.2L42.3,65L43.8,63.8z
			 M35,72.5l2.4,2.1l2.1-2.4L37.1,70l1.1-1.3l6.2,5.5l-1.1,1.3l-2.8-2.5l-2.1,2.4l2.8,2.5l-1.1,1.3l-6.2-5.5L35,72.5z M30.4,79.2
			l7.1,4.2l-0.9,1.5l-7.1-4.2L30.4,79.2z M27.2,85.3c0.4-0.9,1-1.5,1.6-1.6c0.4-0.1,0.9,0,1.3,0.2c0.5,0.2,0.8,0.5,1,0.8
			c0.1,0.2,0.2,0.5,0.2,0.8c0.3-0.3,0.7-0.5,1-0.6c0.4-0.1,0.8,0,1.2,0.2c0.5,0.2,0.8,0.5,1.1,0.9c0.2,0.2,0.3,0.5,0.4,0.8
			c0.1,0.3,0.1,0.7,0,1s-0.2,0.7-0.4,1.1l-1.5,3.5L25.6,89L27.2,85.3z M24.1,94.2l8.7-0.9l-0.4,1.8l-1.8,0.1l-0.7,3l1.5,1L31,101
			l-7.3-4.9L24.1,94.2z M22.2,104.8c0.1-1.4,0.6-2.4,1.6-2.9c0.5-0.3,1.1-0.5,1.6-0.5l-0.1,1.7c-0.4,0.1-0.7,0.2-0.9,0.4
			c-0.4,0.3-0.6,0.7-0.6,1.3c0,0.6,0.2,1.1,0.7,1.5c0.5,0.4,1.2,0.6,2.1,0.7c0.9,0.1,1.6-0.1,2.1-0.4c0.5-0.3,0.8-0.8,0.8-1.4
			c0-0.6-0.1-1.1-0.5-1.4c-0.2-0.2-0.5-0.4-0.9-0.5l0.1-1.7c0.9,0.2,1.6,0.7,2.1,1.3c0.5,0.7,0.7,1.5,0.7,2.4
			c-0.1,1.2-0.5,2.1-1.3,2.7c-0.8,0.6-1.9,0.9-3.2,0.8c-1.4-0.1-2.5-0.6-3.2-1.4C22.4,106.8,22.2,105.9,22.2,104.8z M22.4,114.7
			c-0.1-1.4,0.2-2.4,1.1-3.2c0.5-0.4,1-0.7,1.5-0.7l0.2,1.7c-0.4,0.2-0.7,0.3-0.9,0.5c-0.3,0.3-0.5,0.8-0.4,1.4
			c0.1,0.6,0.4,1.1,0.9,1.4c0.5,0.3,1.3,0.4,2.2,0.3c0.9-0.1,1.6-0.3,2-0.8s0.6-0.9,0.6-1.5c-0.1-0.6-0.3-1-0.7-1.3
			c-0.2-0.2-0.6-0.3-1-0.3l-0.2-1.7c0.9,0.1,1.7,0.4,2.3,0.9c0.6,0.6,1,1.3,1.1,2.3c0.1,1.2-0.2,2.2-0.9,2.9c-0.7,0.8-1.7,1.2-3,1.3
			c-1.4,0.1-2.6-0.1-3.4-0.8C22.9,116.5,22.5,115.7,22.4,114.7z M24,123.4l7.2-5.1l0.5,1.8l-1.5,1l0.8,3l1.8,0.1l0.5,1.8l-8.7-0.6
			L24,123.4z M29.6,137.8l-1.1-2.3l5.2-4.2l-6.5,1.5l-1.1-2.3l7.4-3.6l0.7,1.5l-5,2.4c-0.1,0.1-0.4,0.2-0.6,0.3
			c-0.3,0.1-0.5,0.2-0.6,0.3l6.9-1.6l0.7,1.5l-5.6,4.4c0.1-0.1,0.3-0.2,0.6-0.3s0.5-0.2,0.6-0.3l5-2.4l0.7,1.5L29.6,137.8z
			 M46.1,153.1c-0.4,0.6-1.1,0.7-1.8,0.2c-0.7-0.5-0.9-1.1-0.4-1.7s1.1-0.7,1.8-0.2C46.3,151.9,46.5,152.5,46.1,153.1z M54.5,154.9
			c-1.2,2.2-2.4,3-4.6,1.8l-2.3-1.3l1-1.7l2,1.1c0.8,0.5,1.3,0,1.8-1s0.7-1.6-0.1-2.1l-1.9-1.1l1-1.8l2.3,1.3
			C55.7,151.2,55.7,152.7,54.5,154.9z M57.9,159.3c-0.3,0.7-0.9,0.9-1.7,0.6c-0.8-0.3-1.1-0.9-0.8-1.6s0.9-0.9,1.7-0.6
			C57.8,158,58.2,158.6,57.9,159.3z M68.9,159.5c-0.6,2.7-1.6,3.7-3.4,3.3c-0.6-0.1-1.1-0.4-1.5-0.7l0.4-1.6c0,0.1,0.6,0.3,1,0.3
			c0.4-0.1,0.8,0,1.2-1.6c0.3-1.1,0.3-2-0.6-2.2c-0.8-0.2-1.5,0.4-2,1.7c-0.4,1-0.8,1.9-1.2,3.3l-2.3-0.5c0.5-2.1,1.2-3.3,1.4-4.2
			c0.2-0.9-0.2-1.4,0.1-3.3l2.3,0.5c0,1-0.1,1.9-0.1,1.9l0.2,0c0.5-0.9,1.2-1.8,2.8-1.4C68.9,155.5,69.5,156.7,68.9,159.5z
			 M76.1,164l-0.2-4.4l2.4-0.1l0.2,4.4L76.1,164z M80.7,163.7l-0.2-4.7c0-0.6-0.4-0.9-1-0.9l-3.7,0.2l-0.1-2l4.3-0.2
			c1.9-0.1,2.7,0.4,2.8,2.4l0.3,5.1L80.7,163.7z M89.8,162.6l-3.2,0.7c0,0-0.3-0.8-0.5-1.9l3.3-0.8c1.1-0.3,1.2-0.9,0.9-2.1
			c-0.2-0.9-0.4-1.8-1.6-1.5c-1.2,0.3-1.2,0.9-0.6,2.7l-2.3,0.5c0,0-0.2-0.6-0.2-0.9c-0.5-2.2-0.2-3.6,2.6-4.2
			c3.6-0.8,4.2,1.2,4.6,3C92.9,159.6,93.3,161.7,89.8,162.6z M94.9,157.9l-1.2-3.2c0,0-0.2-0.5-0.4-0.9l2.2-0.9c0,0,0.3,0.6,0.4,0.9
			l1.2,3.2L94.9,157.9z M104.7,157.1l-2-4.3c-0.3-0.6-0.7-0.7-1.2-0.4l-1.3,0.6l2.4,5.1l-2.2,1l-3.2-6.9l4-1.9
			c1.7-0.8,2.7-0.6,3.5,1.1l2.1,4.6L104.7,157.1z M111.3,148.9l-2.2-2.7c0,0-0.4-0.4-0.7-0.7l1.8-1.5c0,0,0.5,0.5,0.7,0.7l2.2,2.7
			L111.3,148.9z M117.1,148l-1.5-1.3l1.5-1.7c0.6-0.7,0.5-1-0.6-2c-0.8-0.7-1.3-1.3-2-0.6l-1.6,1.8l-1.5-1.3l1.9-2.1
			c1-1.1,2.2-2,3.9-0.4c0.4,0.4,0.8,0.8,1.1,1.1c0.6,0.9,0.5,1.5,0.4,1.7l0.1,0c0.1-0.2,0.4-0.6,0.4-0.6l0.4-0.4l1.5,1.3L117.1,148z
			 M124.3,139.1l-1.5,2.2l-1.7-1.1l1.2-1.9c0.5-0.8,0.1-1.3-0.9-1.9c-1-0.6-1.6-0.9-2.1,0l-1.2,1.9l-1.7-1.1l1.4-2.2
			c1.3-2.1,2.8-1.9,4.9-0.6C124.9,135.8,125.6,137.1,124.3,139.1z M129.1,130l-1.5-0.6c0.1,0,0.4-0.6,0.4-0.9c0-0.4,0.1-0.8-1.4-1.4
			c-1.1-0.4-2-0.6-2.3,0.3c-0.3,0.8,0.2,1.5,1.4,2.2c0.9,0.5,1.8,1,3.1,1.6l-0.8,2.2c-2-0.8-3.1-1.7-3.9-2c-0.8-0.3-1.4,0-3.2-0.5
			l0.9-2.2c1,0.2,1.9,0.4,1.9,0.4l0.1-0.2c-0.9-0.6-1.6-1.4-1-3c0.7-1.8,1.9-2.1,4.6-1.1c2.6,1,3.4,2.1,2.8,3.8
			C129.7,129.2,129.4,129.7,129.1,130z"/>
	</g>
	<polygon class="st0" points="65.3,23.2 74.7,16.4 63.1,16.4 59.5,5.4 55.9,16.4 44.4,16.4 53.7,23.2 50.2,34.2 59.5,27.4 
		68.9,34.2 68.5,33.1 	"/>
	<polygon class="st0" points="104.2,23.2 113.6,16.4 102,16.4 98.4,5.4 94.9,16.4 83.3,16.4 92.7,23.2 89.1,34.2 98.4,27.4 
		107.8,34.2 107.4,33.1 	"/>
</g>
</svg>
