<?xml version="1.0" encoding="utf-8"?>
<!-- Generator: Adobe Illustrator 24.2.3, SVG Export Plug-In . SVG Version: 6.00 Build 0)  -->
<svg version="1.1" id="Layer_1" xmlns="http://www.w3.org/2000/svg" xmlns:xlink="http://www.w3.org/1999/xlink" x="0px" y="0px"
	 viewBox="0 0 156.8 167.7" style="enable-background:new 0 0 156.8 167.7;" xml:space="preserve">
<style type="text/css">
	.st0{fill:#FFFFFF;}
	.st1{fill-rule:evenodd;clip-rule:evenodd;fill:#FFFFFF;}
	.st2{fill-rule:evenodd;clip-rule:evenodd;fill:#493C3B;}
	.st3{fill:#D6D6D6;}
	.st4{fill:#606060;}
</style>
<g>
	<polygon class="st0" points="110,89.6 106.9,92.7 93.3,89.9 95.9,91.6 94.4,94 90.9,89.8 83.8,94.7 115.4,94.7 	"/>
	<polygon class="st0" points="66.7,88.7 51.8,88.7 61.1,84.3 	"/>
	<polygon class="st0" points="88.3,88.7 74.8,88.7 80.8,84 	"/>
	<polygon class="st0" points="84.6,92.5 70.9,90.4 79.6,83.2 62.7,83.2 70.6,89.2 64.6,94.7 80.1,94.7 	"/>
	<path class="st0" d="M103,83.2h-2.2l2.5-2.5l-3.9,0.4l0.4-4.1l-2.8,3L94.2,76l0.4,4.8l-2.6-0.2l1.2,2.6H81.9l9.4,5.6H109L103,83.2z
		 M97.8,85.4l-1,2.2L95.9,85l-3.8,0.8l3.1-2.8l-1.2-1.2l1.6,0.2l0.2-1.7l1.2,1.6l1.1-1.3l0.2,2.2l2-0.8L99,84l2.7,2.4L97.8,85.4z"/>
	<polygon class="st0" points="41.5,94.7 57.4,94.7 65.2,90.9 54.1,92.7 48.4,89.5 60.2,83.2 53.8,83.2 41.4,94.7 	"/>
	<polygon class="st0" points="78.4,126.5 115.2,96 103.2,96 106,99.3 86.2,118.7 85.4,118 97.6,101.2 101.4,102.9 98.9,96 
		88.6,101.6 80.3,123.4 79.4,124.6 86.6,101.1 82.8,96 76.9,96 82.3,105.8 78.6,125.5 78.6,105.7 75.4,96 59.6,96 76.6,105.7 
		77.9,124.2 67.7,102.4 59.7,97.4 66.7,110.8 65.7,111.5 57.1,96 54.1,103.2 49.3,96 41.6,96 	"/>
	<path class="st0" d="M78.4,48.2c-33,0-59.7,26.7-59.7,59.7c0,25.5,16,47.2,38.4,55.8l7-16.3c-16.1-5.9-27.7-21.3-27.7-39.5
		c0-23.2,18.8-42,42-42c23.2,0,42,18.8,42,42c0,18.2-11.5,33.6-27.7,39.5l7,16.3c22.5-8.6,38.4-30.3,38.4-55.8
		C138.1,74.9,111.4,48.2,78.4,48.2z M22.1,116.1l6.4-1.6l0.6,2.6l-6.4,1.6L22.1,116.1z M23.9,123.6c0,0,6.8-1.6,8.8-2.1
		c-0.5-2-1.8-7.5-1.8-7.5l2.6-0.6l2.2,8.9c0.2,0.7-0.3,1.4-0.9,1.5l-10.2,2.5L23.9,123.6z M54.3,149l1.3-2.4l3.9,2
		c0.3,0.2,0.4,0.5,0.3,0.9l-5.2,9.9l-4.4-2.3l1.3-2.4c0,0,1,0.5,2,1.1c1.1-2.1,2.1-3.9,3-5.6C55.3,149.6,54.3,149,54.3,149z
		 M43.5,140.3l1.7-2l7.1,6.1c0.5,0.5,0.6,1.3,0.1,1.8l-6.9,7.9l-2-1.8c0,0,3.8-4.4,6-6.8c-1.5-1.3-2.4-2.1-3.9-3.4
		c-2.1,2.4-6,6.8-6,6.8l-2.9-2.5l1.8-2l0.8,0.7l0,0l3.2-3.6l1.6-0.6C43.9,140.8,43.6,140.5,43.5,140.3L43.5,140.3z M42.9,135.5
		c0.2,0.3,0.1,0.7-0.2,0.9l-9.1,6.4l-2.9-4.1l2.2-1.5c0,0,0.7,1,1.3,1.9c1.9-1.3,3.7-2.5,5.2-3.6c-0.7-0.9-1.3-1.9-1.3-1.9l2.2-1.5
		L42.9,135.5z M36.9,125.1l1.8,3.7c0.1,0.3,0,0.7-0.3,0.8l-4.6,2.2l-1.2-2.4c0,0,1.4-0.7,2.8-1.3c-0.4-0.9-0.9-1.9-0.9-1.9
		L36.9,125.1z M37.4,89.7l-1.2,3l-2.5-1l1.1-2.6c0.3-0.7-0.2-1-0.6-1.2c-1.1-0.5-3.5-1.4-5-2.1c-0.9,2.1-2.3,5.6-2.3,5.6l-4.5-1.8
		l1-2.5l1.9,0.8l0,0l2-4.9c0.1-0.3,0.5-0.5,0.8-0.3c0,0,6.1,2.5,7.6,3.1C37.4,86.2,38,88,37.4,89.7z M42,81.5l-2-1.2l1.3,2.1
		l-1.7,2.4l-1.3-2.1c-0.2-0.4-0.2-0.6,0-0.9l1.3-1.8l0,0c-1.8-1-4.1-2.3-5.5-3.2c-0.4,0.5-0.9,1.2-0.9,1.2L31,76.6l1.9-2.6
		c0.2-0.3,0.6-0.4,0.9-0.2l3.7,2.1l0.3,0.2l5.8,3.3L42,81.5z M48.6,74.3c0,0-5.3-5.6-6.2-6.6c-0.9,0.8-4.4,4.1-4.4,4.1l-1.9-2
		l4.9-4.7c0.8-0.7,2-0.7,2.7,0.1l6.8,7.2L48.6,74.3z M53.8,70.2c0,0-3.1-5-4.8-7.7c-0.7,0.4-1.5,0.9-1.5,0.9L46,61.2l3.2-2
		c0.3-0.2,0.7-0.1,0.9,0.2l5.9,9.4L53.8,70.2z M62.4,65.9L59,57.6l0,0l-4.9,2l-1-2.5l7.1-2.9c0.7-0.3,1.4,0.1,1.7,0.7l0.5,1.3
		l-0.9,0.4l0,0l3.4,8.4L62.4,65.9z M74,63.1l-6.7,1l-0.4-2.7c0,0,3.1-0.5,4.9-0.8c0.6-0.1,1-0.5,0.8-1.3c-0.2-1.4-0.6-3.8-0.8-5.2
		c-2.3,0.4-5.9,0.9-5.9,0.9l-0.4-2.7l8-1.2c0.3-0.1,0.7,0.2,0.7,0.5l1.4,9.1C75.7,62,75,63,74,63.1z M89,53.6
		c-0.2,1.2-0.7,1.7-1,3.2l-1.4,9.1L84,65.4l1.4-9.1c0.1-0.8,0.3-1.5,0.5-2c-0.5-0.1-1.2-0.2-1.2-0.2l0.4-2.7l3.5,0.5
		c0.3,0.1,0.6,0.3,0.5,0.6C89.1,52.9,89,53.6,89,53.6z M97,54.9l-3.3,10.6l-2.6-0.8c0,0,1.7-5.6,2.7-8.7c-0.8-0.2-1.6-0.5-1.6-0.5
		L93,53l3.6,1.1C96.9,54.2,97.1,54.6,97,54.9z M99.7,68.4l4.2-8l0,0l-4.6-2.4l1.2-2.4l6.8,3.6c0.6,0.3,0.9,1.1,0.5,1.7l-0.7,1.3
		l-0.9-0.5l0,0l-4.2,8L99.7,68.4z M110.3,76.3c-0.9-0.8-6-5.3-6-5.3l1.8-2c0,0,0.6,0.6,1.5,1.3l0,0c1.2-1.4,3.8-4.2,4.2-4.8
		c-0.6-0.5-1.2-1.1-1.2-1.1l1.8-2l2.8,2.4c0.3,0.2,0.3,0.6,0.1,0.9l-5.6,6.3l0,0c0.5,0.5,1.1,0.9,1.5,1.3c0.5,0.5,0.9,0.4,1.4-0.1
		c0.9-1,2.5-2.8,3.6-4c-0.6-0.5-1.2-1.1-1.2-1.1l1.8-2l2.7,2.4c0.3,0.2,0.3,0.6,0.1,0.9c0,0-4.8,5.4-5.7,6.4
		C112.8,77,111.3,77.1,110.3,76.3z M114.4,81c0,0,4.7-3.5,7.3-5.4c-0.5-0.7-1-1.4-1-1.4l2.2-1.6l2.3,3c0.2,0.3,0.1,0.7-0.1,0.9
		l-8.9,6.6L114.4,81z M119.4,88.3l2.5-0.9l1.1,3.1l0,0l4.5-1.6c0.8-0.3,1.1-1.2,0.9-2c-0.2-1.3-1.6-2.7-3.1-2.2L119,87l-0.9-2.5
		l6.5-2.3c0.8-0.3,1.6-0.3,2.3-0.1l0,0l-0.5-1.3l2.5-0.9l1,2.8l-0.6,0.6c0.7,0.6,1.3,1.3,1.8,2.8c0.8,2.2-0.4,4.7-2.6,5.5l-7.1,2.5
		L119.4,88.3z M106.1,150.2c0,0-0.9-1.3-1.7-2.6c-0.9,0.6-1.7,1.1-1.7,1.1l-1.5-2.3l3.4-2.3c0.3-0.2,0.7-0.1,0.9,0.2l2.8,4.3
		L106.1,150.2z M116.2,150.3l-2-1.9l4.1-4.3l0,0c-1-1-3.4-3.2-4.4-4.2c-0.2-0.2-0.4-0.1-0.5,0c-1.1,1.2-3.9,4.1-3.9,4.1l-2-1.9
		l4.7-4.9c0.7-0.8,1.9-0.8,2.7-0.1l5.2,4.9l0,0l0.8-0.8l2,1.9L116.2,150.3z M129.3,133.1l-3.3,5.9l-2.4-1.3c0,0,1.5-2.7,2.4-4.3
		c0.3-0.5,0.2-1-0.5-1.5c-1.2-0.7-3.4-1.9-4.5-2.6c-1.1,2-2.9,5.2-2.9,5.2l-2.4-1.3l3.9-7c0.2-0.3,0.6-0.4,0.9-0.2l8,4.5
		C129.4,131,129.8,132.2,129.3,133.1z M126.9,116.2c-0.8-0.2-1.6,0.4-1.9,1.2c-0.5,1.2-0.1,3.2,1.5,3.5l6.7,1.5l-0.6,2.6l-6.7-1.5
		c-0.8-0.2-1.5-0.6-2-1.1l0,0l-0.3,1.4l-2.6-0.6l0.7-3l0.8-0.2c-0.3-0.9-0.4-1.8-0.1-3.3c0.5-2.3,2.8-3.7,5.1-3.2l7.3,1.7l-1.3,5.9
		l-2.6-0.6l0.7-3.2l0,0L126.9,116.2z"/>
	<circle class="st0" cx="70.3" cy="148.5" r="1"/>
	<path class="st0" d="M83.6,139.3l-5.2-9.1l-4.6,8l0,0.1h5.9c0,0,1.4,1.8,2.2,2.8c0.5-0.4,1.1-1,1.8-1.6L83.6,139.3z"/>
	<polygon class="st0" points="68,139.6 62.2,139.6 67.3,148.5 67.3,148.5 68.1,148.5 68.1,139.6 	"/>
	<path class="st0" d="M66,151.7l-3.8,6.6h13.5h0c0-1.6,0-4.7,0-6.6v0h-0.6v-7.7l0,0c-0.9-1.2-2.4-3.3-3.2-4.4l0,0h-2.5v0v5.4h0h3
		v6.6L66,151.7L66,151.7z"/>
	<path class="st0" d="M83.8,158.3c0-2.9,0-10.1,0-11.9c-0.9,0-1.2,0-2.1,0c0,1.9,0,11.1,0,13.2v0h-8l4.6,8L83.8,158.3L83.8,158.3z"
		/>
	<polygon class="st0" points="85.2,151.7 85.2,158.3 85.2,158.4 94.6,158.4 89.2,149 94.6,139.6 85.5,139.6 85.5,139.6 81.7,143 
		79,139.6 73.6,139.6 73.6,139.7 77.1,144.4 77.1,158.3 77.1,158.4 80.4,158.4 80.4,158.3 80.4,145.1 85.3,145.1 88.8,151.7 
		85.2,151.7 	"/>
</g>
</svg>
