<?xml version="1.0" encoding="utf-8"?>
<!-- Generator: Adobe Illustrator 24.2.3, SVG Export Plug-In . SVG Version: 6.00 Build 0)  -->
<svg version="1.1" id="Layer_1" xmlns="http://www.w3.org/2000/svg" xmlns:xlink="http://www.w3.org/1999/xlink" x="0px" y="0px"
	 viewBox="0 0 156.8 167.7" style="enable-background:new 0 0 156.8 167.7;" xml:space="preserve">
<style type="text/css">
	.st0{fill:#FFFFFF;}
	.st1{fill-rule:evenodd;clip-rule:evenodd;fill:#FFFFFF;}
	.st2{fill-rule:evenodd;clip-rule:evenodd;fill:#493C3B;}
	.st3{fill:#D6D6D6;}
	.st4{fill:#606060;}
</style>
<g>
	<polygon class="st0" points="114.3,104.5 109.1,112.4 109,112.4 97.2,108.9 97.2,108.8 91.2,95.4 91.2,95.3 96.9,85.5 96.9,85.5 
		106.4,86.9 106.4,86.9 114.4,104.5 	"/>
	<path class="st0" d="M107.7,85.4L107.7,85.4l0.5-5.6l0,0c8,7.3,12.5,17.6,12.5,28.1v0l-4.4-3.2L107.7,85.4z"/>
	<path class="st0" d="M86.6,110H63.5L51.9,92.1L40.4,110H17.3L28.8,128l-11.6,17.9h23.1l11.6,17.9l11.6-17.9h23.1L75,128L86.6,110z
		 M51.9,99.5c2.4,3.7,6.1,9.4,8,12.5l0,0c-0.8,0.7-3,2.7-4.6,4.2c-1.2-1.7-3.4-4.6-3.4-4.6h-1.2h-6.5h-0.1
		C46.2,108.5,49.6,103.1,51.9,99.5z M24.6,114c4.6,0,11.2,0,15,0l0,0.1l-7.5,11.6l0,0C30.2,122.7,26.9,117.6,24.6,114z M36.1,126.2
		c1,0,1.8,0.8,1.8,1.8c0,1-0.8,1.8-1.8,1.8c-1,0-1.8-0.8-1.8-1.8C34.3,127,35.1,126.2,36.1,126.2z M24.6,141.9c1.7-2.7,4-6.2,5.8-9
		h0.1h10.9v-10.1h-4.4l0-0.1l5.1-8l0-0.1c0.7,1,2,2.7,3.1,4.2l0,0v14h2.5v0.2c0,3.3,0,6.5,0,8.6v0.2
		C42.5,141.9,29.9,141.9,24.6,141.9z M60.8,142.6L60.8,142.6c-1.5,2.3-6.1,9.5-8.9,13.8c-2.3-3.5-5.7-8.9-7.8-12l0,0h7.1l5.3-4.9
		c0,0,0-10.7,0-14.2c1.3,0,2.7,0,4.1,0h0.2V142.6z M79.2,141.9c-5,0-12.2,0-15.8,0h-0.1v-9h3.4v-10.1H54.1v15.6l-3.8,3.5v-0.2v-20.2
		l-5.5-7.4l0,0c2.1,0,4.6,0,5.9,0l4.3,5.8l6.4-5.8h0c1.2,0,11.4,0,17.8,0c-3.4,5.3-9,13.9-9,13.9S75.8,136.5,79.2,141.9z"/>
	<path class="st0" d="M68.9,77.3L64,75.2l-0.1,0c9.2-5.3,20.4-6.5,30.6-3.2l0,0L90,75.2l0,0l-20.7,2.1L68.9,77.3z"/>
	<polygon class="st0" points="75,96 89.6,94.5 89.7,94.4 95.3,84.6 95.3,84.6 89.4,77.1 89.3,77 70.2,79 70.1,79 65.9,87.5 66,87.5 
		74.9,96 	"/>
	<path class="st0" d="M71.6,106c-2.8,0-5.1,0-5.9,0c-1.1-1.7-5.6-8.6-9.1-14.1l0,0l8.2-3l0,0l8.7,8.3l0,0.1L71.6,106L71.6,106z"/>
	<path class="st0" d="M84.2,134.7l0.7-0.4v0l-0.8-12.8l0-0.1c-1.9,3-3.6,5.6-4.3,6.6C80.5,129,82.2,131.6,84.2,134.7L84.2,134.7z"/>
	<polygon class="st0" points="95.7,136.8 86.7,134.2 86.7,134.2 85.8,120.7 85.8,120.6 96.9,110.7 96.9,110.7 108.5,114 
		108.5,114.1 110.2,123.7 110.2,123.7 95.8,136.8 	"/>
	<path class="st0" d="M96.4,138.7l-1.8,5.2l0,0.1c8.8-2.9,16.4-8.9,21.1-17.1c0.7-1.1,1.2-2.3,1.8-3.5l0,0l-5.7,1.3l0,0l-15.2,13.9
		L96.4,138.7z"/>
	<g>
		<path class="st0" d="M57.1,64l-1.4,0.8l1.9,3.2l1.5-0.9c0.9-0.5,1-1.4,0.4-2.5C58.9,63.7,57.9,63.5,57.1,64z"/>
		<path class="st0" d="M56.7,60.8c-0.7-1.1-1.5-0.9-2.3-0.5l-1,0.6l1.7,2.8l1.2-0.7C57.1,62.6,57.2,61.7,56.7,60.8z"/>
		<polygon class="st0" points="94.4,53.9 92,58.8 94.5,59.4 94.4,53.9 		"/>
		<polygon class="st0" points="51.6,69 47.2,65.7 47.2,65.7 49.7,70.6 		"/>
		<path class="st0" d="M69.8,54.1l-1.1,0.3l0.9,3.6l1.2-0.3c0.9-0.2,1.6-0.9,1.2-2.2C71.8,54.4,71.2,53.8,69.8,54.1z"/>
		<polygon class="st0" points="133.2,85 133.2,85 127.8,86.1 128.8,88.4 		"/>
		<polygon class="st0" points="36.1,87.8 30.8,86.3 30.8,86.3 34.8,90 		"/>
		<path class="st0" d="M82.9,48.2c-14.8,0-29,5.4-39.9,15.3c-9.6,8.6-18.4,21.2-26.9,38.3c-0.4,0.8-1.9,4.2-1.9,4.2s16.9,0,21.6,0
			l0,0c1.2-2.8,3.6-8.1,7.5-14.6c3.9-6.7,7.6-10.8,10.2-13.4c13.1-12.8,33.6-16,50.3-6.3c20,11.6,26.9,37.2,15.3,57.3
			c-7.8,13.4-21.8,20.9-36.3,21h-7c-4.7,0-8.9,0-10.2,0c-1.4,2.1-7.9,12.3-11.5,17.8l-0.1,0.1c6,0,28.7,0,28.7,0
			c33,0,59.8-26.8,59.8-59.8S115.8,48.2,82.9,48.2z M35.8,96.6l-8.1-4l0,0l7.1,5.9l-0.6,1.3l-9-2l0,0l8.1,4l-0.7,1.5l-9.7-4.8
			l1.2-2.4l8,1.8l0,0l-6.4-5.2l1.2-2.4l9.7,4.8L35.8,96.6z M40,89l-2.6-0.7L35.8,91l2,1.9l-0.9,1.6l-7.9-8l1.1-1.9l10.8,2.9L40,89z
			 M43.4,84.2c-1.6,2.2-3.5,1.9-6.7-0.3c-3.2-2.2-4.1-3.9-2.6-6.2c1.8-2.5,3.7-1.4,4.6-0.8l0.2,0.1l-1,1.4l-0.2-0.1
			c-0.8-0.6-1.9-1-2.6,0.1c-0.7,1.1-0.4,2,2.5,4c2.9,2,3.9,2,4.6,1c0.8-1.2-0.4-2.2-1.2-2.8l-0.1-0.1l1-1.4l0.2,0.1
			C43.7,80.4,44.8,82.1,43.4,84.2z M48.1,78.2c-1.8,2-3.7,1.5-6.6-1c-2.9-2.6-3.6-4.4-1.8-6.4c2-2.3,3.9-0.9,4.7-0.2l0.2,0.1
			l-1.1,1.3l-0.1-0.1c-0.8-0.7-1.8-1.2-2.6-0.2c-0.8,1-0.6,1.9,2,4.2c2.6,2.3,3.6,2.5,4.5,1.5c1-1.1-0.1-2.3-0.9-2.9l-0.1-0.1
			l1.1-1.3l0.2,0.2C48.9,74.4,49.8,76.3,48.1,78.2z M54.9,71.4l-2.2-1.6l-2.4,2l1.2,2.5l-1.4,1.2l-4.6-10.3l1.7-1.4l9.2,6.4
			L54.9,71.4z M59.7,68.3l-3,1.7l-5.5-9.3l3-1.8c1.4-0.8,2.9-0.9,3.8,0.8c0.7,1.1,0.6,2.1-0.1,2.9l0,0c1.1-0.4,2.1-0.2,3.1,1.4
			C62,65.6,61.4,67.3,59.7,68.3z M63.6,66.3l-4.3-9.9l1.6-0.7l4.3,9.9L63.6,66.3z M71.4,58.9L70,59.3l1,4.4L69.3,64l-2.5-10.5
			l3.3-0.8c2-0.5,3.2,0.6,3.6,2.4C74.2,56.9,73.4,58.4,71.4,58.9z M76.4,62.4l-0.9-10.8l5.8-0.5l0.1,1.5L77.4,53l0.2,3l3.9-0.3
			l0.1,1.5l-3.9,0.3l0.3,3.4l4.2-0.3l0.1,1.5L76.4,62.4z M68.8,164.6h-2.8v-5.8h2.8V164.6z M73.9,164.6h-2.8c0,0,0-4.8,0-7.9
			c-2.3,0-5.1,0-5.1,0v-2.8h7.9L73.9,164.6L73.9,164.6z M138.7,99.5l-2.8,0.4c0,0-0.1-0.9-0.1-1c-1.4,0.2-2.9,0.4-3.9,0.5
			c-0.8,0.1-1.1,0.9-0.8,1.6c0.2,0.5,0.5,0.8,1.4,0.7l6.4-0.9l0.4,2.8l-10.6,1.4l-0.4-2.8l0.3,0l0,0c-0.3-0.7-0.5-1.5-0.6-2.7
			c0-0.5,0-1.1,0.2-1.5c0.3-0.7,1-1.1,1.9-1.2l8.2-1.1L138.7,99.5z M87,62.2l-1.7-0.1l0.6-9.3l-2.6-0.2l0.1-1.5l6.8,0.5l-0.1,1.5
			l-2.5-0.2L87,62.2z M94.6,63.5l-0.1-2.7l-3.1-0.6l-1.2,2.4l-1.8-0.4l5.2-10l2.2,0.5l0.6,11.2L94.6,63.5z M103,66.5l-1.6-0.6
			l1.9-4.7l-3-1.2l-1.9,4.7l-1.6-0.6l4-10.1l1.6,0.6l-1.6,4l3,1.2l1.6-4l1.6,0.6L103,66.5z M107.2,61.4l2.6,1.5l-0.8,1.4l-2.6-1.5
			L107.2,61.4z M109.8,70.7l-1.4-1l5.3-7.7l-2.1-1.5l0.8-1.2l5.6,3.9l-0.8,1.2l-2.1-1.4L109.8,70.7z M112.4,72.8l7.1-8.2l1.3,1.1
			l-7.1,8.2L112.4,72.8z M118.5,78.8l1.9-5.2l-1.7,0.2l-2.6,2.3l-1.2-1.3l8-7.3l1.2,1.3l-3.5,3.2l0,0l5.7-0.7l1.3,1.4l-5.5,0.7
			l-2.3,6.8L118.5,78.8z M120.7,81.9l7.7-8l1,1.5l-6.3,6.2l0,0l8.3-3.1l1,1.5l-10.6,3.6L120.7,81.9z M123.7,86.8l-0.8-1.6l11.1-1.7
			l0.9,2l-8.7,7.1l-0.8-1.6l2.1-1.7l-1.3-2.9L123.7,86.8z M130,126.4l-0.9,2l-4.2-1.8l0.9-2L130,126.4z M76.2,164.6l0-10.6l2.8,0
			l0,10.6L76.2,164.6z M81.8,166.1l-0.3-7.1l2.8-0.1l0.3,7.1L81.8,166.1z M85.3,164.4l-0.2-3.2l0,0c0.6-0.6,1.4-1.5,1.3-3.1
			c0,0,0-0.9-0.1-1.6c-2.3,0.1-5.1,0.2-5.1,0.2l-0.1-2.8l7.9-0.4l0.2,4.4C89.5,162.7,85.3,164.4,85.3,164.4z M98.8,162.2
			c0,0-1.2-4.7-2-7.6c-0.9,0.3-1.1,0.3-2.1,0.5c0.5,2,1.7,6.4,1.7,6.4c0.2,0.9-0.1,1.3-0.8,1.5l-2.8,0.8l-0.7-2.7l0.7-0.2
			c0.3-0.1,0.5-0.5,0.3-1l-1.8-6.8l7.4-2l2.7,10.3L98.8,162.2z M102.8,156.2l-0.6-1.4l2.6-1.2l0.6,1.4L102.8,156.2z M114.3,154.9
			c0,0-2.6-4.1-4.2-6.6c-0.9,0.6-1.1,0.7-1.9,1.2c1.6,2.6,4.2,6.6,4.2,6.6l-2.3,1.5l-5.8-9l6.6-4.2l5.8,9L114.3,154.9z M123.4,147.3
			c0,0-3.4-3.5-5.5-5.6c-0.7,0.7-0.8,0.8-1.5,1.5c1.4,1.4,4.6,4.8,4.6,4.8c0.6,0.7,0.6,1.1,0,1.7l-2.1,2.1l-1.9-2l0.5-0.5
			c0.3-0.3,0.2-0.6-0.2-1l-4.9-5l5.5-5.4l7.4,7.6L123.4,147.3z M128.1,142l-2.3-1.5c0,0,1.5-2.3,2.8-4.3c-1.7-1.1-2.6-1.7-4.3-2.8
			c-0.6,0.9-0.7,1.1-1.2,1.9c1,0.6,2,1.3,2,1.3l-1.5,2.3l-4.3-2.8l4.3-6.6l8.9,5.8L128.1,142z M136.9,124.9l-2.7-0.6l1.1-4.5l0-0.2
			c-1.2-0.3-3.3-0.8-4.9-1.2c-0.5,2.2-1.1,4.6-1.1,4.6l-2.7-0.6l1.7-7.3l7.7,1.8l0-0.1l0.2-0.7l2.7,0.6L136.9,124.9z M139.2,114.7
			l-2.8-0.1l0.2-3.8c0-1-0.4-1.3-0.9-1.3c-1,0-2.9-0.1-4.1-0.2c-0.1,1.7-0.2,4.5-0.2,4.5l-2.8-0.1l0.3-6.1c0-0.7,0.6-1.2,1.3-1.2
			c0,0,5.2,0.2,6.7,0.3c1.5,0.1,2.7,1.8,2.6,3.8L139.2,114.7z"/>
	</g>
</g>
</svg>
