<?xml version="1.0" encoding="utf-8"?>
<!-- Generator: Adobe Illustrator 24.2.3, SVG Export Plug-In . SVG Version: 6.00 Build 0)  -->
<svg version="1.1" id="Layer_1" xmlns="http://www.w3.org/2000/svg" xmlns:xlink="http://www.w3.org/1999/xlink" x="0px" y="0px"
	 viewBox="0 0 156.8 167.7" style="enable-background:new 0 0 156.8 167.7;" xml:space="preserve">
<style type="text/css">
	.st0{fill:#FFFFFF;}
	.st1{fill-rule:evenodd;clip-rule:evenodd;fill:#FFFFFF;}
	.st2{fill-rule:evenodd;clip-rule:evenodd;fill:#493C3B;}
	.st3{fill:#D6D6D6;}
	.st4{fill:#606060;}
</style>
<path class="st0" d="M43.9,60.8c1,0.9,2,2.6,2,2.6c0,0.3,0,0.5,0,0.7c0,0,0,0.1,0,0.1c0,0,0,0.1,0,0.1c0,0,0,0,0,0.1
	c0,0.1,0,0.1,0,0.1c0,0,0,0.1,0,0.1c0,0.1,0,0.1,0.1,0.1c0,0,0,0,0,0.1c0,0,0,0.1,0.1,0.1c0,0,0,0,0,0.1c0,0,0,0.1,0,0.1
	s0,0.1,0,0.1s0,0.1,0.1,0.1c0.1,0.1,0.2,0.3,0.3,0.4c0,0,0.1,0.1,0.1,0.1l0,0c0,0,0.1,0.1,0.1,0.1C46.9,65.9,47,66,47,66
	c0.1,0.1,0.1,0.1,0.1,0.2c0.1,0.1,0.1,0.1,0.1,0.1c0.9,1.1,1.3,1.7,1.5,3c0.3,1.4,0.6,2.5,1.3,3.5c0.7,1,1.5,1.5,3.1,1.4
	c1.6-0.1,2.2-0.9,2.4-2.9c0.2-2,0.2-4.3,0.2-4.3s1.2,1.7,1.1,5.1c-0.1,3.4,0.2,7.3,2.2,10c0,0-0.4,1.1-2.1,3.6
	c-1.7,2.5-2,2.8-1.9,3.9c0.1,1.1,0.7,1.6,2.6,3.5c1.9,1.9,4.7,4.4,6.3,5.2c1.6,0.9,2.6,1.3,3.7,0.7c1.1-0.6,2-0.9,1.4-1.8
	c-0.6-0.9-1.6-2.4-1.9-2.9c-0.3-0.6-1.1-0.2-1.4,0.1c-0.3,0.3-0.6,0.8-2-0.6c-1.4-1.4-3.6-3.6-3.6-4.2c0-0.6,0.6-1.4,1.9-3
	c1.3-1.6,2.9-3.5,2.9-3.5s1.1,2.3,2.8,5.8s2.4,4.8,2.4,7.2c0,2.4,0.2,4.4-1.6,5.4s-2.4,1.9-2.6,2.6c-0.2,0.6,0.1,1.3,0.8,1.4
	l-0.1,0.1c-4.6,3.5-7.6,9-7.6,15.2c0,10.6,8.6,19.1,19.1,19.1c10.5,0,19.1-8.6,19.1-19.1c0-8.1-5.1-15-12.2-17.8l0.1,0
	c1.8-0.2,1.9-0.1,2.2-1.5c0.2-1.4,0.4-1.4,0.7-1.5c0.4-0.1,1.4-0.3,2.1-4.4c0.7-4.1,2-11.6,2-11.6s0.6,0.8,2.5,3.5s1.9,4.6,2.4,8.1
	c0.6,3.5,0.4,5.9-0.6,6.5c-0.8,0.4-1.5,1-2,2.1c-0.4,0.8,0,1.4,1.5,1.4c1.5-0.1,3.7-0.2,4.2-1c0.5-0.8,0.6-2.4,0.6-2.4
	s0.9-0.1,1.2-0.4c0.4-0.3,0.3-2.4-0.6-4.7c-1.1-2.8-1.1-5-1-9.3c0.1-5.3-0.9-8.5-0.4-10.2c0,0,0.4,1.6,0.9,4.4
	c0.6,2.8,1.3,5.1,2.6,6.7c1.4,1.6,3.2,3.1,3.2,3.1s0.5-1.9,0.2-5c-0.3-3.1-1.1-6.6-0.6-10.8c0.6-4.1,0.4-7.1-1.1-9.4
	c-1.9-3-5.8-3.2-9-2.6c-3.6,0.6-5.2,0.1-8.2,0.1c-3.7,0.1-7.8,1.6-11.9,1.5c-3-0.1-6.4-2.4-11.2-5.9c-0.2-0.1-0.4-0.3-0.6-0.4
	c-0.1-0.1-0.3-0.2-0.4-0.3l-0.2-0.1c-0.1-0.1-0.2-0.1-0.2-0.2c-0.1-0.1-0.1-0.1-0.2-0.1c-0.1-0.1-0.2-0.1-0.3-0.2
	c-0.1-0.1-0.2-0.1-0.3-0.2c-0.1,0-0.1-0.1-0.2-0.1c-4.1-2.5-7.1-2.5-10.7-2.3c-4.1,0.3-4.4,1.6-4.4,1.6s-1.1-0.5-2.6-1.3
	c-1.5-0.8-1.5,0.1-1,0.9s0.7,1.9,0.7,1.9s-2.4-0.4-3,0.1C40.7,59.5,42.9,59.9,43.9,60.8z M72.3,104.2l0.1,0l0.5,1.6l0.1,0.1l-2.8,4
	l-0.1,0.2l-4.9,1.4l-0.1-0.1l-1.3-1C66,107.6,68.9,105.4,72.3,104.2z M74.2,106.7h0.2h7.6l0.1,0.1l2.6,3.8l-0.1,0.1l-2.3,3.1
	l-0.1,0.1h-8.1l-0.2,0c-0.9-1.2-2.1-2.9-2.4-3.3C71.8,110.2,73.1,108.2,74.2,106.7z M65.1,130.2l-0.1,0.1l-1.2,0.8l-0.1,0.1
	c-2-2.8-3.2-6.3-3.3-10l0.2,0l1.4,0l0.2,0l3,3.9l0.1,0.1L65.1,130.2z M63.3,120.2l0.1-0.2l2.3-7l0-0.1l4.7-1.3l0.1,0.2l2.4,3.4
	l-0.1,0.2l-2.4,7.4l-0.3,0.1c-1.4,0.5-3.4,1.1-3.9,1.3C65.9,123.6,64.4,121.7,63.3,120.2z M66.7,130.3l-0.1-0.1l0.1-4.9l0.2-0.1
	l4.1-1.3l0.4-0.1l6.1,4.4v0.2v4.7c-0.5,0.2-2.8,1-4.5,1.6l-0.1-0.1L66.7,130.3z M78.1,138.6c-1.8,0-3.6-0.3-5.3-0.8l0.1-0.3l0.4-1.3
	l0-0.1l4.8-1.7l0.3,0.1l4.3,1.6l0.2,0.1l0.5,1.7C81.7,138.3,79.9,138.6,78.1,138.6z M89.5,130.3l-6.1,4.5l-0.2-0.1l-4.2-1.5
	l-0.1-0.1v-4.6l0-0.2l6-4.4L85,124c1.3,0.4,3.8,1.2,4.4,1.4C89.4,125.9,89.5,128.3,89.5,130.3L89.5,130.3z M94,121.1l1.8,0.1l0,0.2
	c-0.1,3.6-1.2,6.9-3.2,9.7l-0.1,0.1l-1.4-0.9l-0.1-0.1l-0.2-5.1l0.2-0.2l2.8-3.6L94,121.1z M92.7,120.3l-2.7,3.5l-0.1,0.1l-4-1.3
	l-0.2-0.1l-2.5-7.6l0.1-0.2c0.9-1.2,2.2-3,2.5-3.4c0.5,0.1,2.7,0.8,4.5,1.3l0.2,0l2.4,7.3L92.7,120.3z M92.1,110.3l0.1,0.1l-1.4,1.1
	l-0.1,0l-4.7-1.4l-0.1,0l-2.8-4.1l-0.1-0.1l0.6-1.7l0.1,0C87.2,105.4,90,107.5,92.1,110.3z M72.8,101.9c0.4-0.1,1.8-1.3,1.6-3.6
	s-0.3-4.9-0.4-7.3c-0.1-2.4,0.6-5,0.6-7.4c0,0,1.1,0.6,4.4,0.6c3.3,0.1,5.9-1.1,5.9-1.1s0.9,1.9,1.1,5.4c0.2,2.9,0,6.7-0.6,9
	c-0.4,1.6-1.2,1.8-2.2,2.2c-0.8,0.3-1.5,1.3-2,2.4l-0.2,0c-1-0.2-2-0.2-3-0.2c-2,0-4,0.3-5.9,0.9l-0.2,0.1
	C72.3,102.1,72.4,101.9,72.8,101.9z M119.2,155.3l9.7-12.1H96.4l3.3,3.8h-8.8l0.3-0.3l0,0c0.1-0.1,0.2-0.2,0.3-0.3
	c0,0,0.1-0.1,0.1-0.1c0.1-0.1,0.2-0.1,0.3-0.2c0.1-0.1,0.1-0.1,0.2-0.2c0.1-0.1,0.1-0.1,0.2-0.2c0.1-0.1,0.2-0.1,0.3-0.2
	c0,0,0.1-0.1,0.1-0.1c0.1-0.1,0.2-0.2,0.3-0.3c0,0,0,0,0.1-0.1c0.1-0.1,0.3-0.2,0.4-0.3c0,0,0,0,0,0c7.8-7,17.4-18.6,24.2-36.8
	c5.8-15.5,6.8-29,6.8-36.2c0-3.5-0.2-5.5-0.2-5.5c-0.4-0.1-0.9-0.3-1.3-0.4c0,0,0,0-0.1,0c-0.4-0.1-0.8-0.3-1.2-0.4c0,0,0,0-0.1,0
	c-0.4-0.1-0.8-0.3-1.3-0.4c0,0,0,0,0,0c-1.7-0.6-3.4-1.1-5.1-1.7c0,0-0.1,0-0.1-0.1c-0.3-0.1-0.7-0.2-1.1-0.4c-0.1,0-0.1,0-0.2-0.1
	l-0.1,0c-3.3-1.1-6.4-2.3-9.4-3.5c-3-1.1-5.8-2.3-8.4-3.4l0,0c-10.4-4.3-17.3-7.7-17.3-7.7l0,0c0,0-6.9,3.4-17.3,7.7l0,0
	c0,0-0.1,0-0.1,0c0.6,0.3,1.3,0.6,2,1.1c0.1,0,0.1,0.1,0.2,0.1c0.1,0.1,0.2,0.1,0.4,0.2c0.1,0.1,0.2,0.1,0.3,0.2
	c0.1,0.1,0.1,0.1,0.2,0.1l0.1,0c6.9-2.9,12.1-5.3,14.4-6.4c2.3,1.1,7.5,3.5,14.4,6.4l0.1,0.1l0,0c5.5,2.3,12,4.9,19.1,7.4l0,0l0.1,0
	c0.7,0.3,1.4,0.5,2.2,0.8c0.1,0,0.1,0.1,0.2,0.1c0.7,0.2,1.3,0.5,2,0.7c0.1,0,0.2,0.1,0.3,0.1c0.6,0.2,1.3,0.4,1.9,0.6
	c0.1,0.1,0.3,0.1,0.4,0.1c0.7,0.2,1.4,0.5,2.1,0.7c0,0.1,0,0.2,0,0.3c0,0.8,0.1,1.8,0.1,3c0,6.9-0.9,20.2-6.6,35.4
	c-4.3,11.5-9.8,20.3-15,26.7c-2.7,3.4-5.3,6.1-7.6,8.2c0,0-0.1,0.1-0.1,0.1c-1.8,1.7-3.5,3.1-5.1,4.3c0,0,0,0-0.1,0.1
	c-0.2,0.2-0.4,0.3-0.6,0.5l-0.3,0.2h0H70.6h0l-0.3-0.2c-0.2-0.1-0.4-0.3-0.6-0.5c0,0,0,0-0.1-0.1c-1.6-1.2-3.3-2.6-5.1-4.3
	c0,0-0.1-0.1-0.1-0.1c-2.3-2.1-4.9-4.9-7.6-8.2c-5.2-6.4-10.7-15.2-15-26.7c-5.7-15.2-6.6-28.5-6.6-35.4c0-1.2,0-2.2,0.1-3
	c0-0.1,0-0.2,0-0.3c0.7-0.2,1.4-0.5,2.1-0.7c0.1,0,0.3-0.1,0.4-0.1c0.6-0.2,1.3-0.4,1.9-0.6c0.1,0,0.2-0.1,0.3-0.1
	c0.7-0.2,1.3-0.5,2-0.7c0.1,0,0.1-0.1,0.2-0.1c0.7-0.3,1.4-0.5,2.2-0.8l0.1,0l0,0c0.1,0,0.2-0.1,0.3-0.1l0,0c0-0.1-0.1-0.2-0.1-0.2
	c0,0,0-0.1,0-0.1c0-0.1,0-0.1-0.1-0.2c0,0,0-0.1,0-0.1s0-0.1,0-0.1s0-0.1,0-0.1c0-0.2,0-0.3,0-0.5c-0.2-0.3-0.5-0.7-0.8-1.2
	c-0.2,0.1-0.5,0.2-0.7,0.2l-0.1,0c-0.1,0-0.1,0-0.1,0.1c-0.3,0.1-0.7,0.2-1.1,0.4c0,0-0.1,0-0.1,0.1c-1.7,0.6-3.4,1.1-5.1,1.7
	c0,0,0,0,0,0c-0.4,0.1-0.8,0.3-1.3,0.4c0,0,0,0-0.1,0c-0.4,0.1-0.8,0.3-1.2,0.4c0,0,0,0-0.1,0c-0.4,0.1-0.9,0.3-1.3,0.4
	c0,0-0.2,2-0.2,5.5c0,7.2,1,20.7,6.8,36.2c6.8,18.2,16.4,29.8,24.2,36.8c0,0,0,0,0,0c0.1,0.1,0.3,0.2,0.4,0.3c0,0,0,0,0.1,0.1
	c0.1,0.1,0.2,0.2,0.3,0.3c0,0,0.1,0.1,0.1,0.1c0.1,0.1,0.2,0.1,0.3,0.2c0.1,0.1,0.1,0.1,0.2,0.2c0.1,0.1,0.1,0.1,0.2,0.2
	c0.1,0.1,0.2,0.1,0.3,0.2c0,0,0.1,0.1,0.1,0.1c0.1,0.1,0.2,0.2,0.3,0.3l0,0L66,147h-8.8l3.3-3.8H28l9.7,12.1l-10.2,10.5h21.8v2h58.3
	v-2h21.8L119.2,155.3z M105.8,163.9v2H51.1v-2H31.8l8.3-8.5l-8.3-10.4h24.7l-3.3,3.8h50.4l-3.3-3.8h24.7l-3.1,3.8l-5.3,6.6l8.3,8.5
	H105.8z M63.4,163.5H60V155h-1.3v-2.5h4.1c0.3,0,0.5,0.2,0.5,0.5V163.5z M69.4,158.1h-3.4V155h-1.2v-2.5h4c0.3,0,0.5,0.2,0.5,0.5
	L69.4,158.1L69.4,158.1z M77.1,161.6c0,0.3-0.2,0.5-0.5,0.5h-5.6v-2.5h2.7c0-0.3,0-0.6,0-0.9v-3c0-0.5-0.2-0.8-0.7-0.8
	c-0.4,0-0.9,0.1-1.6,0.1v-2.4c0.6-0.1,1.5-0.2,2.6-0.2c1.1,0,1.9,0.3,2.4,0.8c0.4,0.4,0.6,1.2,0.6,2.2v2.7c0,1.3,0.1,2.3,0.1,3
	V161.6z M86.9,157.2c0,0.6-0.1,1.1-0.2,1.6c-0.5,2.3-2,3.4-4.7,3.4c-0.9,0-2-0.1-3.3-0.2v-2.5c1.1,0.1,1.9,0.1,2.3,0.1
	c0.9,0,1.4-0.1,1.7-0.4c0.4-0.4,0.6-1.1,0.6-2c0-1.3-0.4-2.1-1.1-2.3c-0.3-0.1-0.7-0.1-1.1-0.1c-0.6,0-1.5,0.1-2.6,0.3v-2.5
	c1.3-0.2,2.4-0.3,3.2-0.3c1,0,1.8,0.1,2.3,0.2C86,153.1,86.9,154.6,86.9,157.2z M98.1,157.4c0,0.6-0.1,1.3-0.3,1.9
	c-0.3,0.9-0.7,1.6-1.4,2.2c-0.3,0.3-0.8,0.5-1.4,0.7c-0.5,0.2-0.9,0.2-1.3,0.2c-1.3,0-2.2-0.1-2.8-0.4c-1.9-0.8-2.8-2.3-2.8-4.6
	c0-1.1,0.3-2,1-2.6H88v-2.4c2.4-0.1,4.2-0.2,5.5-0.2c0.9,0,1.6,0.1,2.2,0.4c0.8,0.4,1.4,0.9,1.9,1.8
	C97.9,155.2,98.1,156.2,98.1,157.4z M94.7,157.4c0-0.8-0.1-1.4-0.3-1.9c-0.1-0.3-0.3-0.5-0.5-0.6c-0.2-0.1-0.4-0.2-0.8-0.2
	c-0.1,0-0.3,0-0.7,0.1c-0.4,0.3-0.7,0.6-0.7,1c-0.1,0.2-0.1,0.6-0.1,1.2v0.4c0,0.7,0.1,1.3,0.4,1.8c0.1,0.3,0.4,0.5,0.7,0.6
	c0.1,0.1,0.4,0.1,0.8,0.1c0.5,0,0.8-0.3,1-0.8c0.1-0.2,0.1-0.4,0.2-0.7C94.6,158.1,94.7,157.8,94.7,157.4z"/>
</svg>
